<?xml version="1.0" standalone="no"?>
<!DOCTYPE svg PUBLIC "-//W3C//DTD SVG 1.1//EN" "http://www.w3.org/Graphics/SVG/1.1/DTD/svg11.dtd" >
<svg xmlns="http://www.w3.org/2000/svg" xmlns:xlink="http://www.w3.org/1999/xlink" version="1.1">
<metadata>
Created by FontForge 20201107 at Sat Apr 30 01:31:50 2022
 By Jimmy Wärting
Copyright 2015 The Public Sans Project Authors (https://github.com/uswds/public-sans)
</metadata>
<defs>
<font id="PublicSans-Light" horiz-adv-x="0" >
  <font-face 
    font-family="Public Sans Light"
    font-weight="300"
    font-stretch="normal"
    units-per-em="2000"
    panose-1="0 0 0 0 0 0 0 0 0 0"
    ascent="1600"
    descent="-400"
    x-height="1034"
    cap-height="1446"
    bbox="-308 -480 2468 2105"
    underline-thickness="140"
    underline-position="-440"
    unicode-range="U+000D-FB02"
  />
<missing-glyph horiz-adv-x="1388" 
d="M237 1652h918q34 0 34 -42v-1876q0 -56 -64 -56h-872q-32 0 -43 12t-11 36v1880q0 46 38 46zM1089 -113v1633q0 34 -30 34h-688zM301 1433v-1617q0 -19 9 -29.5t35 -10.5h669z" />
    <glyph glyph-name="fi" unicode="fi" horiz-adv-x="1276" 
d="M304 0v917h-226v117h226v164q0 248 243 248h183v-114h-159q-66 0 -89.5 -35.5t-23.5 -106.5v-156h262v-117h-260v-917h-156zM952 1273v172h164v-172h-164zM959 0v1034h152v-1034h-152z" />
    <glyph glyph-name="fl" unicode="fl" horiz-adv-x="1384" 
d="M304 0v917h-226v117h226v164q0 248 243 248h183v-114h-159q-66 0 -89.5 -35.5t-23.5 -106.5v-156h262v-117h-260v-917h-156zM1194 -11q-100 0 -152 37.5t-71 99t-19 134.5v1226h154v-1213q0 -85 32 -124.5t84 -42.5l58 -1v-102q-45 -14 -86 -14z" />
    <glyph glyph-name=".notdef" horiz-adv-x="1388" 
d="M237 1652h918q34 0 34 -42v-1876q0 -56 -64 -56h-872q-32 0 -43 12t-11 36v1880q0 46 38 46zM1089 -113v1633q0 34 -30 34h-688zM301 1433v-1617q0 -19 9 -29.5t35 -10.5h669z" />
    <glyph glyph-name="A" unicode="A" horiz-adv-x="1412" 
d="M90 0l525 1446h183l524 -1446h-161l-149 412h-612l-150 -412h-160zM444 560h523l-262 732z" />
    <glyph glyph-name="Aacute" unicode="&#xc1;" horiz-adv-x="1412" 
d="M90 0l525 1446h183l524 -1446h-161l-149 412h-612l-150 -412h-160zM444 560h523l-262 732zM633 1567l206 291h186l-268 -291h-124z" />
    <glyph glyph-name="Abreve" unicode="&#x102;" horiz-adv-x="1412" 
d="M90 0l525 1446h183l524 -1446h-161l-149 412h-612l-150 -412h-160zM444 560h523l-262 732zM704 1564q-107 0 -187 53t-101 153h120q17 -47 61 -77t107 -30q62 0 108 30t64 77h120q-22 -96 -101 -151t-191 -55z" />
    <glyph glyph-name="uni1EAE" unicode="&#x1eae;" horiz-adv-x="1412" 
d="M90 0l525 1446h183l524 -1446h-161l-149 412h-612l-150 -412h-160zM444 560h523l-262 732zM652 1792l145 237h158l-193 -237h-110zM709 1564q-107 0 -187 53t-101 153h120q17 -47 61 -77t107 -30q62 0 108 30t64 77h120q-22 -96 -101 -151t-191 -55z" />
    <glyph glyph-name="uni1EB6" unicode="&#x1eb6;" horiz-adv-x="1412" 
d="M90 0l525 1446h183l524 -1446h-161l-149 412h-612l-150 -412h-160zM444 560h523l-262 732zM625 -348v163h163v-163h-163zM704 1564q-107 0 -187 53t-101 153h120q17 -47 61 -77t107 -30q62 0 108 30t64 77h120q-22 -96 -101 -151t-191 -55z" />
    <glyph glyph-name="uni1EB0" unicode="&#x1eb0;" horiz-adv-x="1412" 
d="M90 0l525 1446h183l524 -1446h-161l-149 412h-612l-150 -412h-160zM444 560h523l-262 732zM668 1790l-207 238h159l159 -238h-111zM709 1564q-107 0 -187 53t-101 153h120q17 -47 61 -77t107 -30q62 0 108 30t64 77h120q-22 -96 -101 -151t-191 -55z" />
    <glyph glyph-name="uni1EB2" unicode="&#x1eb2;" horiz-adv-x="1412" 
d="M90 0l525 1446h183l524 -1446h-161l-149 412h-612l-150 -412h-160zM444 560h523l-262 732zM719 1765l-50 78q43 28 62 65t-2 71t-64 32.5t-85 -29.5l-50 78q70 45 139 45q92 0 140 -72q48 -73 22 -144t-112 -124zM709 1564q-107 0 -187 53t-101 153h120q17 -47 61 -77
t107 -30q62 0 108 30t64 77h120q-22 -96 -101 -151t-191 -55z" />
    <glyph glyph-name="uni1EB4" unicode="&#x1eb4;" horiz-adv-x="1412" 
d="M90 0l525 1446h183l524 -1446h-161l-149 412h-612l-150 -412h-160zM444 560h523l-262 732zM457 1892l-32 98q32 29 68.5 49.5t90.5 20.5q48 0 89.5 -13.5t81.5 -27t84 -13.5q43 0 73 15t60 37l31 -108q-25 -18 -64 -36t-101 -18q-53 0 -91.5 12.5t-74 25t-79.5 12.5
q-49 0 -78.5 -16.5t-57.5 -37.5zM709 1564q-107 0 -187 53t-101 153h120q17 -47 61 -77t107 -30q62 0 108 30t64 77h120q-22 -96 -101 -151t-191 -55z" />
    <glyph glyph-name="Acircumflex" unicode="&#xc2;" horiz-adv-x="1412" 
d="M90 0l525 1446h183l524 -1446h-161l-149 412h-612l-150 -412h-160zM444 560h523l-262 732zM403 1567l247 215h114l243 -215h-160l-142 127l-152 -127h-150z" />
    <glyph glyph-name="uni1EA4" unicode="&#x1ea4;" horiz-adv-x="1412" 
d="M90 0l525 1446h183l524 -1446h-161l-149 412h-612l-150 -412h-160zM444 560h523l-262 732zM878 1782l144 237h159l-194 -237h-109zM404 1567l247 215h114l243 -215h-160l-142 127l-152 -127h-150z" />
    <glyph glyph-name="uni1EAC" unicode="&#x1eac;" horiz-adv-x="1412" 
d="M90 0l525 1446h183l524 -1446h-161l-149 412h-612l-150 -412h-160zM444 560h523l-262 732zM625 -348v163h163v-163h-163zM404 1567l247 215h114l243 -215h-160l-142 127l-152 -127h-150z" />
    <glyph glyph-name="uni1EA6" unicode="&#x1ea6;" horiz-adv-x="1412" 
d="M90 0l525 1446h183l524 -1446h-161l-149 412h-612l-150 -412h-160zM444 560h523l-262 732zM979 1783l-206 237h158l159 -237h-111zM404 1567l247 215h114l243 -215h-160l-142 127l-152 -127h-150z" />
    <glyph glyph-name="uni1EA8" unicode="&#x1ea8;" horiz-adv-x="1412" 
d="M90 0l525 1446h183l524 -1446h-161l-149 412h-612l-150 -412h-160zM444 560h523l-262 732zM925 1735l-50 78q43 28 62 65t-2 71t-64 32.5t-85 -29.5l-50 78q82 53 160 43.5t119 -70.5q48 -73 22 -144t-112 -124zM407 1567l247 215h114l243 -215h-160l-142 127l-152 -127
h-150z" />
    <glyph glyph-name="uni1EAA" unicode="&#x1eaa;" horiz-adv-x="1412" 
d="M90 0l525 1446h183l524 -1446h-161l-149 412h-612l-150 -412h-160zM444 560h523l-262 732zM451 1895l-32 98q32 29 68.5 49.5t90.5 20.5q48 0 89.5 -13.5t81.5 -27t84 -13.5q43 0 73 15t60 37l31 -108q-25 -18 -64 -36t-101 -18q-53 0 -91.5 12.5t-74 25t-79.5 12.5
q-49 0 -78.5 -16.5t-57.5 -37.5zM405 1567l247 215h114l243 -215h-160l-142 127l-152 -127h-150z" />
    <glyph glyph-name="uni0200" unicode="&#x200;" horiz-adv-x="1412" 
d="M90 0l525 1446h183l524 -1446h-161l-149 412h-612l-150 -412h-160zM444 560h523l-262 732zM514 1567l-286 291h177l233 -291h-124zM773 1567l-244 291h173l195 -291h-124z" />
    <glyph glyph-name="Adieresis" unicode="&#xc4;" horiz-adv-x="1412" 
d="M90 0l525 1446h183l524 -1446h-161l-149 412h-612l-150 -412h-160zM444 560h523l-262 732zM812 1695l1 163h156l-1 -163h-156zM444 1695l1 163h156l-1 -163h-156z" />
    <glyph glyph-name="uni1EA0" unicode="&#x1ea0;" horiz-adv-x="1412" 
d="M90 0l525 1446h183l524 -1446h-161l-149 412h-612l-150 -412h-160zM444 560h523l-262 732zM625 -348v163h163v-163h-163z" />
    <glyph glyph-name="Agrave" unicode="&#xc0;" horiz-adv-x="1412" 
d="M90 0l525 1446h183l524 -1446h-161l-149 412h-612l-150 -412h-160zM444 560h523l-262 732zM651 1567l-268 291h186l206 -291h-124z" />
    <glyph glyph-name="uni1EA2" unicode="&#x1ea2;" horiz-adv-x="1412" 
d="M90 0l525 1446h183l524 -1446h-161l-149 412h-612l-150 -412h-160zM444 560h523l-262 732zM760 1564l-51 77q44 28 62.5 65.5t-2.5 70.5q-21 34 -64 33t-84 -29l-51 78q83 53 161 43t118 -71q49 -73 22.5 -144t-111.5 -123z" />
    <glyph glyph-name="uni0202" unicode="&#x202;" horiz-adv-x="1412" 
d="M90 0l525 1446h183l524 -1446h-161l-149 412h-612l-150 -412h-160zM444 560h523l-262 732zM411 1627q22 100 102 153t186 53q113 0 192 -55t100 -151h-119q-18 47 -64 77.5t-109 30.5t-106.5 -30.5t-60.5 -77.5h-121z" />
    <glyph glyph-name="Amacron" unicode="&#x100;" horiz-adv-x="1412" 
d="M90 0l525 1446h183l524 -1446h-161l-149 412h-612l-150 -412h-160zM444 560h523l-262 732zM422 1655v115h568v-115h-568z" />
    <glyph glyph-name="Aogonek" unicode="&#x104;" horiz-adv-x="1412" 
d="M90 0l525 1446h183l524 -1446h-161l-149 412h-612l-150 -412h-160zM444 560h523l-262 732zM1195 -333q-97 0 -145 42.5t-48 114.5q0 60 43.5 108t164.5 86l116 -14q-101 -43 -146.5 -81t-45.5 -89q0 -75 97 -75q48 0 86 12t57 23v-88q-24 -14 -73 -26.5t-106 -12.5z" />
    <glyph glyph-name="Aring" unicode="&#xc5;" horiz-adv-x="1412" 
d="M90 0l525 1446h183l524 -1446h-161l-149 412h-612l-150 -412h-160zM444 560h523l-262 732zM707 1571q-85 0 -144 59.5t-59 147.5q0 81 59.5 138.5t143.5 57.5q85 0 144.5 -58t59.5 -142q0 -86 -59.5 -144.5t-144.5 -58.5zM705 1662q45 0 76.5 33.5t31.5 77.5
q0 48 -31.5 78.5t-76.5 30.5q-44 0 -77 -30.5t-33 -78.5q0 -44 33 -77.5t77 -33.5z" />
    <glyph glyph-name="Aringacute" unicode="&#x1fa;" horiz-adv-x="1412" 
d="M90 0l506 1394q-41 26 -65.5 70.5t-24.5 100.5q0 72 47.5 124.5t118.5 62.5l31 128h129l-58 -136q58 -20 94.5 -69t36.5 -114q0 -54 -24.5 -97t-64.5 -69l506 -1395h-161l-149 412h-612l-150 -412h-160zM703 1448q45 0 77 34t32 77q0 48 -32 79t-77 31q-44 0 -77 -31
t-33 -79q0 -43 33 -77t77 -34zM444 560h523l-262 732z" />
    <glyph glyph-name="Atilde" unicode="&#xc3;" horiz-adv-x="1412" 
d="M90 0l525 1446h183l524 -1446h-161l-149 412h-612l-150 -412h-160zM444 560h523l-262 732zM451 1639l-31 98q32 29 68 49.5t91 20.5q47 0 88.5 -13.5t82 -27t84.5 -13.5q42 0 72.5 15t60.5 37l31 -108q-25 -18 -64.5 -36t-100.5 -18q-53 0 -92 12.5t-74.5 25t-79.5 12.5
q-49 0 -78 -16.5t-58 -37.5z" />
    <glyph glyph-name="AE" unicode="&#xc6;" horiz-adv-x="1913" 
d="M0 0l807 1446h957l-1 -138h-690v-509h624v-137h-624v-523h716v-139h-893v418h-502l-234 -418h-160zM458 560h438v768z" />
    <glyph glyph-name="AEacute" unicode="&#x1fc;" horiz-adv-x="1913" 
d="M0 0l807 1446h957l-1 -138h-690v-509h624v-137h-624v-523h716v-139h-893v418h-502l-234 -418h-160zM458 560h438v768zM1198 1567l206 291h186l-268 -291h-124z" />
    <glyph glyph-name="B" unicode="B" horiz-adv-x="1333" 
d="M199 0v1446h449q258 0 393.5 -97t135.5 -279q0 -117 -61.5 -200t-211.5 -133q168 -35 238 -128t70 -221q0 -196 -140.5 -292t-411.5 -96h-461zM355 800h325q79 0 158.5 21t133 75.5t53.5 153.5q0 135 -103.5 199t-269.5 64h-297v-513zM355 135h301q195 0 297 61.5
t102 194.5q0 98 -50.5 157.5t-135.5 87t-189 27.5h-325v-528z" />
    <glyph glyph-name="C" unicode="C" horiz-adv-x="1361" 
d="M715 -20q-290 0 -447 194.5t-157 551.5t157 548.5t447 191.5q150 0 265.5 -63t186 -167t83.5 -226h-168q-17 87 -63.5 159t-123.5 115t-183 43q-211 0 -319.5 -147t-108.5 -456q0 -310 108.5 -457t319.5 -147q106 0 183 44.5t123.5 118t63.5 160.5h168
q-15 -120 -79 -225.5t-178 -171.5t-278 -66z" />
    <glyph glyph-name="Cacute" unicode="&#x106;" horiz-adv-x="1361" 
d="M715 -20q-290 0 -447 194.5t-157 551.5t157 548.5t447 191.5q150 0 265.5 -63t186 -167t83.5 -226h-168q-17 87 -63.5 159t-123.5 115t-183 43q-211 0 -319.5 -147t-108.5 -456q0 -310 108.5 -457t319.5 -147q106 0 183 44.5t123.5 118t63.5 160.5h168
q-15 -120 -79 -225.5t-178 -171.5t-278 -66zM635 1567l206 291h186l-268 -291h-124z" />
    <glyph glyph-name="Ccaron" unicode="&#x10c;" horiz-adv-x="1361" 
d="M715 -20q-290 0 -447 194.5t-157 551.5t157 548.5t447 191.5q150 0 265.5 -63t186 -167t83.5 -226h-168q-17 87 -63.5 159t-123.5 115t-183 43q-211 0 -319.5 -147t-108.5 -456q0 -310 108.5 -457t319.5 -147q106 0 183 44.5t123.5 118t63.5 160.5h168
q-15 -120 -79 -225.5t-178 -171.5t-278 -66zM653 1567l-249 216h152l152 -131l142 131h160l-243 -216h-114z" />
    <glyph glyph-name="Ccedilla" unicode="&#xc7;" horiz-adv-x="1361" 
d="M683 -408q-106 0 -179 49l28 72q25 -20 56.5 -33t76.5 -13q110 0 110 76q0 43 -37.5 65t-119.5 24q-17 0 -11 12l60 137q-267 17 -411.5 210t-144.5 535q0 357 157 548.5t447 191.5q150 0 265.5 -63t186 -167t83.5 -226h-168q-17 87 -63.5 159t-123.5 115t-183 43
q-211 0 -319.5 -147t-108.5 -456q0 -310 108.5 -457t319.5 -147q106 0 183 44.5t123.5 118t63.5 160.5h168q-14 -115 -73 -217t-164 -169t-256 -76l-37 -92q100 -6 136.5 -51t36.5 -94q0 -75 -62.5 -113.5t-147.5 -38.5z" />
    <glyph glyph-name="Ccircumflex" unicode="&#x108;" horiz-adv-x="1361" 
d="M715 -20q-290 0 -447 194.5t-157 551.5t157 548.5t447 191.5q150 0 265.5 -63t186 -167t83.5 -226h-168q-17 87 -63.5 159t-123.5 115t-183 43q-211 0 -319.5 -147t-108.5 -456q0 -310 108.5 -457t319.5 -147q106 0 183 44.5t123.5 118t63.5 160.5h168
q-15 -120 -79 -225.5t-178 -171.5t-278 -66zM406 1567l247 215h114l243 -215h-160l-142 127l-152 -127h-150z" />
    <glyph glyph-name="Cdotaccent" unicode="&#x10a;" horiz-adv-x="1361" 
d="M715 -20q-290 0 -447 194.5t-157 551.5t157 548.5t447 191.5q150 0 265.5 -63t186 -167t83.5 -226h-168q-17 87 -63.5 159t-123.5 115t-183 43q-211 0 -319.5 -147t-108.5 -456q0 -310 108.5 -457t319.5 -147q106 0 183 44.5t123.5 118t63.5 160.5h168
q-15 -120 -79 -225.5t-178 -171.5t-278 -66zM627 1695v163h163v-163h-163z" />
    <glyph glyph-name="D" unicode="D" horiz-adv-x="1373" 
d="M199 0v1446q7 0 58.5 -0.5t121 -0.5t130.5 -1q399 -4 575.5 -183.5t176.5 -527.5q0 -366 -189 -549.5t-585 -183.5h-288zM361 138h125q194 0 330.5 57.5t208.5 187t72 345.5q0 220 -71 346.5t-206 180t-325 53.5h-134v-1170z" />
    <glyph glyph-name="Eth" unicode="&#xd0;" horiz-adv-x="1391" 
d="M217 0v660h-147v130h147v656q7 0 58.5 -0.5t121.5 -0.5t130 -1q400 -4 576.5 -183.5t176.5 -527.5q0 -366 -189.5 -549.5t-584.5 -183.5h-289zM379 138h125q194 0 330.5 57.5t208.5 187t72 345.5q0 220 -71 346.5t-205.5 180t-325.5 53.5h-134v-518h339v-130h-339v-522z
" />
    <glyph glyph-name="Dcaron" unicode="&#x10e;" horiz-adv-x="1373" 
d="M199 0v1446q7 0 58.5 -0.5t121 -0.5t130.5 -1q399 -4 575.5 -183.5t176.5 -527.5q0 -366 -189 -549.5t-585 -183.5h-288zM361 138h125q194 0 330.5 57.5t208.5 187t72 345.5q0 220 -71 346.5t-206 180t-325 53.5h-134v-1170zM618 1567l-249 216h152l152 -131l142 131h160
l-243 -216h-114z" />
    <glyph glyph-name="Dcroat" unicode="&#x110;" horiz-adv-x="1391" 
d="M217 0v660h-147v130h147v656q7 0 58.5 -0.5t121.5 -0.5t130 -1q400 -4 576.5 -183.5t176.5 -527.5q0 -366 -189.5 -549.5t-584.5 -183.5h-289zM379 138h125q194 0 330.5 57.5t208.5 187t72 345.5q0 220 -71 346.5t-205.5 180t-325.5 53.5h-134v-518h339v-130h-339v-522z
" />
    <glyph glyph-name="uni1E0C" unicode="&#x1e0c;" horiz-adv-x="1373" 
d="M199 0v1446q7 0 58.5 -0.5t121 -0.5t130.5 -1q399 -4 575.5 -183.5t176.5 -527.5q0 -366 -189 -549.5t-585 -183.5h-288zM361 138h125q194 0 330.5 57.5t208.5 187t72 345.5q0 220 -71 346.5t-206 180t-325 53.5h-134v-1170zM631 -348v163h163v-163h-163z" />
    <glyph glyph-name="E" unicode="E" horiz-adv-x="1234" 
d="M199 0v1446h889v-140h-733v-506h666v-140h-666v-516l755 -1v-143h-911z" />
    <glyph glyph-name="Eacute" unicode="&#xc9;" horiz-adv-x="1234" 
d="M199 0v1446h889v-140h-733v-506h666v-140h-666v-516l755 -1v-143h-911zM574 1567l206 291h186l-268 -291h-124z" />
    <glyph glyph-name="Ebreve" unicode="&#x114;" horiz-adv-x="1234" 
d="M199 0v1446h889v-140h-733v-506h666v-140h-666v-516l755 -1v-143h-911zM645 1564q-107 0 -187 53t-101 153h120q17 -47 61 -77t107 -30q62 0 108 30t64 77h120q-22 -96 -101 -151t-191 -55z" />
    <glyph glyph-name="Ecaron" unicode="&#x11a;" horiz-adv-x="1234" 
d="M199 0v1446h889v-140h-733v-506h666v-140h-666v-516l755 -1v-143h-911zM592 1567l-249 216h152l152 -131l142 131h160l-243 -216h-114z" />
    <glyph glyph-name="Ecircumflex" unicode="&#xca;" horiz-adv-x="1234" 
d="M199 0v1446h889v-140h-733v-506h666v-140h-666v-516l755 -1v-143h-911zM345 1567l247 215h114l243 -215h-160l-142 127l-152 -127h-150z" />
    <glyph glyph-name="uni1EBE" unicode="&#x1ebe;" horiz-adv-x="1234" 
d="M199 0v1446h889v-140h-733v-506h666v-140h-666v-516l755 -1v-143h-911zM819 1782l144 237h159l-194 -237h-109zM345 1567l247 215h114l243 -215h-160l-142 127l-152 -127h-150z" />
    <glyph glyph-name="uni1EC6" unicode="&#x1ec6;" horiz-adv-x="1234" 
d="M199 0v1446h889v-140h-733v-506h666v-140h-666v-516l755 -1v-143h-911zM607 -348v163h163v-163h-163zM345 1567l247 215h114l243 -215h-160l-142 127l-152 -127h-150z" />
    <glyph glyph-name="uni1EC0" unicode="&#x1ec0;" horiz-adv-x="1234" 
d="M199 0v1446h889v-140h-733v-506h666v-140h-666v-516l755 -1v-143h-911zM920 1783l-206 237h158l159 -237h-111zM345 1567l247 215h114l243 -215h-160l-142 127l-152 -127h-150z" />
    <glyph glyph-name="uni1EC2" unicode="&#x1ec2;" horiz-adv-x="1234" 
d="M199 0v1446h889v-140h-733v-506h666v-140h-666v-516l755 -1v-143h-911zM867 1735l-50 78q43 28 62 65t-2 71t-64 32.5t-85 -29.5l-50 78q82 53 160 43.5t119 -70.5q48 -73 22 -144t-112 -124zM349 1567l247 215h114l243 -215h-160l-142 127l-152 -127h-150z" />
    <glyph glyph-name="uni1EC4" unicode="&#x1ec4;" horiz-adv-x="1234" 
d="M199 0v1446h889v-140h-733v-506h666v-140h-666v-516l755 -1v-143h-911zM392 1895l-32 98q32 29 68.5 49.5t90.5 20.5q48 0 89.5 -13.5t81.5 -27t84 -13.5q43 0 73 15t60 37l31 -108q-25 -18 -64 -36t-101 -18q-53 0 -91.5 12.5t-74 25t-79.5 12.5q-49 0 -78.5 -16.5
t-57.5 -37.5zM346 1567l247 215h114l243 -215h-160l-142 127l-152 -127h-150z" />
    <glyph glyph-name="uni0204" unicode="&#x204;" horiz-adv-x="1234" 
d="M199 0v1446h889v-140h-733v-506h666v-140h-666v-516l755 -1v-143h-911zM455 1567l-286 291h177l233 -291h-124zM714 1567l-244 291h173l195 -291h-124z" />
    <glyph glyph-name="Edieresis" unicode="&#xcb;" horiz-adv-x="1234" 
d="M199 0v1446h889v-140h-733v-506h666v-140h-666v-516l755 -1v-143h-911zM753 1695l1 163h156l-1 -163h-156zM385 1695l1 163h156l-1 -163h-156z" />
    <glyph glyph-name="Edotaccent" unicode="&#x116;" horiz-adv-x="1234" 
d="M199 0v1446h889v-140h-733v-506h666v-140h-666v-516l755 -1v-143h-911zM566 1695v163h163v-163h-163z" />
    <glyph glyph-name="uni1EB8" unicode="&#x1eb8;" horiz-adv-x="1234" 
d="M199 0v1446h889v-140h-733v-506h666v-140h-666v-516l755 -1v-143h-911zM607 -348v163h163v-163h-163z" />
    <glyph glyph-name="Egrave" unicode="&#xc8;" horiz-adv-x="1234" 
d="M199 0v1446h889v-140h-733v-506h666v-140h-666v-516l755 -1v-143h-911zM592 1567l-268 291h186l206 -291h-124z" />
    <glyph glyph-name="uni1EBA" unicode="&#x1eba;" horiz-adv-x="1234" 
d="M199 0v1446h889v-140h-733v-506h666v-140h-666v-516l755 -1v-143h-911zM701 1564l-51 77q44 28 62.5 65.5t-2.5 70.5q-21 34 -64 33t-84 -29l-51 78q83 53 161 43t118 -71q49 -73 22.5 -144t-111.5 -123z" />
    <glyph glyph-name="uni0206" unicode="&#x206;" horiz-adv-x="1234" 
d="M199 0v1446h889v-140h-733v-506h666v-140h-666v-516l755 -1v-143h-911zM352 1627q22 100 102 153t186 53q113 0 192 -55t100 -151h-119q-18 47 -64 77.5t-109 30.5t-106.5 -30.5t-60.5 -77.5h-121z" />
    <glyph glyph-name="Emacron" unicode="&#x112;" horiz-adv-x="1234" 
d="M199 0v1446h889v-140h-733v-506h666v-140h-666v-516l755 -1v-143h-911zM363 1655v115h568v-115h-568z" />
    <glyph glyph-name="Eogonek" unicode="&#x118;" horiz-adv-x="1234" 
d="M199 0v1446h889v-140h-733v-506h666v-140h-666v-516l755 -1v-143h-911zM990 -334q-97 0 -145 42.5t-48 114.5q0 60 43.5 108t164.5 86l116 -14q-101 -43 -146.5 -81t-45.5 -89q0 -75 97 -75q48 0 86 12t57 23v-88q-24 -14 -73 -26.5t-106 -12.5z" />
    <glyph glyph-name="uni1EBC" unicode="&#x1ebc;" horiz-adv-x="1234" 
d="M199 0v1446h889v-140h-733v-506h666v-140h-666v-516l755 -1v-143h-911zM392 1639l-31 98q32 29 68 49.5t91 20.5q47 0 88.5 -13.5t82 -27t84.5 -13.5q42 0 72.5 15t60.5 37l31 -108q-25 -18 -64.5 -36t-100.5 -18q-53 0 -92 12.5t-74.5 25t-79.5 12.5q-49 0 -78 -16.5
t-58 -37.5z" />
    <glyph glyph-name="F" unicode="F" horiz-adv-x="1177" 
d="M199 0v1446h878v-139h-716v-509h649v-139h-649v-659h-162z" />
    <glyph glyph-name="G" unicode="G" horiz-adv-x="1452" 
d="M715 -20q-283 0 -443.5 192t-160.5 548q0 237 74 403.5t210.5 254.5t325.5 88q104 0 197 -37.5t166 -101.5t117 -146t51 -171h-168q-14 83 -64.5 154.5t-128 115.5t-172.5 44q-199 0 -319.5 -146.5t-120.5 -454.5q0 -211 57 -343.5t157 -194.5t230 -62q97 0 169 34.5
t120.5 89.5t73 118.5t26.5 121.5l4 139h-366v118l527 -1v-743h-122v229q-58 -99 -164 -174t-276 -75z" />
    <glyph glyph-name="Gbreve" unicode="&#x11e;" horiz-adv-x="1452" 
d="M715 -20q-283 0 -443.5 192t-160.5 548q0 237 74 403.5t210.5 254.5t325.5 88q104 0 197 -37.5t166 -101.5t117 -146t51 -171h-168q-14 83 -64.5 154.5t-128 115.5t-172.5 44q-199 0 -319.5 -146.5t-120.5 -454.5q0 -211 57 -343.5t157 -194.5t230 -62q97 0 169 34.5
t120.5 89.5t73 118.5t26.5 121.5l4 139h-366v118l527 -1v-743h-122v229q-58 -99 -164 -174t-276 -75zM717 1564q-107 0 -187 53t-101 153h120q17 -47 61 -77t107 -30q62 0 108 30t64 77h120q-22 -96 -101 -151t-191 -55z" />
    <glyph glyph-name="Gcircumflex" unicode="&#x11c;" horiz-adv-x="1452" 
d="M715 -20q-283 0 -443.5 192t-160.5 548q0 237 74 403.5t210.5 254.5t325.5 88q104 0 197 -37.5t166 -101.5t117 -146t51 -171h-168q-14 83 -64.5 154.5t-128 115.5t-172.5 44q-199 0 -319.5 -146.5t-120.5 -454.5q0 -211 57 -343.5t157 -194.5t230 -62q97 0 169 34.5
t120.5 89.5t73 118.5t26.5 121.5l4 139h-366v118l527 -1v-743h-122v229q-58 -99 -164 -174t-276 -75zM416 1567l247 215h114l243 -215h-160l-142 127l-152 -127h-150z" />
    <glyph glyph-name="uni0122" unicode="&#x122;" horiz-adv-x="1452" 
d="M715 -20q-283 0 -443.5 192t-160.5 548q0 237 74 403.5t210.5 254.5t325.5 88q104 0 197 -37.5t166 -101.5t117 -146t51 -171h-168q-14 83 -64.5 154.5t-128 115.5t-172.5 44q-199 0 -319.5 -146.5t-120.5 -454.5q0 -211 57 -343.5t157 -194.5t230 -62q97 0 169 34.5
t120.5 89.5t73 118.5t26.5 121.5l4 139h-366v118l527 -1v-743h-122v229q-58 -99 -164 -174t-276 -75zM612 -364l79 118l-58 3v145h171v-122l-123 -144h-69z" />
    <glyph glyph-name="Gdotaccent" unicode="&#x120;" horiz-adv-x="1452" 
d="M715 -20q-283 0 -443.5 192t-160.5 548q0 237 74 403.5t210.5 254.5t325.5 88q104 0 197 -37.5t166 -101.5t117 -146t51 -171h-168q-14 83 -64.5 154.5t-128 115.5t-172.5 44q-199 0 -319.5 -146.5t-120.5 -454.5q0 -211 57 -343.5t157 -194.5t230 -62q97 0 169 34.5
t120.5 89.5t73 118.5t26.5 121.5l4 139h-366v118l527 -1v-743h-122v229q-58 -99 -164 -174t-276 -75zM637 1695v163h163v-163h-163z" />
    <glyph glyph-name="H" unicode="H" horiz-adv-x="1530" 
d="M199 0v1446h156v-626h820v626h156v-1446h-156v679h-820v-679h-156z" />
    <glyph glyph-name="Hbar" unicode="&#x126;" horiz-adv-x="1566" 
d="M223 0v1117h-198v109h198v220h156v-220h820v220h156v-220h186v-109h-186v-1117h-156v679h-820v-679h-156zM379 820h820v297h-820v-297z" />
    <glyph glyph-name="Hcircumflex" unicode="&#x124;" horiz-adv-x="1530" 
d="M199 0v1446h156v-626h820v626h156v-1446h-156v679h-820v-679h-156zM460 1576l247 215h114l243 -215h-160l-142 127l-152 -127h-150z" />
    <glyph glyph-name="uni1E24" unicode="&#x1e24;" horiz-adv-x="1530" 
d="M199 0v1446h156v-626h820v626h156v-1446h-156v679h-820v-679h-156zM701 -348v163h163v-163h-163z" />
    <glyph glyph-name="I" unicode="I" horiz-adv-x="553" 
d="M199 0v1446h156v-1446h-156z" />
    <glyph glyph-name="Iacute" unicode="&#xcd;" horiz-adv-x="553" 
d="M199 0v1446h156v-1446h-156zM204 1567l206 291h186l-268 -291h-124z" />
    <glyph glyph-name="Ibreve" unicode="&#x12c;" horiz-adv-x="553" 
d="M199 0v1446h156v-1446h-156zM276 1564q-107 0 -187 53t-101 153h120q17 -47 61 -77t107 -30q62 0 108 30t64 77h120q-22 -96 -101 -151t-191 -55z" />
    <glyph glyph-name="Icircumflex" unicode="&#xce;" horiz-adv-x="553" 
d="M199 0v1446h156v-1446h-156zM-25 1567l247 215h114l243 -215h-160l-142 127l-152 -127h-150z" />
    <glyph glyph-name="uni0208" unicode="&#x208;" horiz-adv-x="553" 
d="M199 0v1446h156v-1446h-156zM85 1567l-286 291h177l233 -291h-124zM344 1567l-244 291h173l195 -291h-124z" />
    <glyph glyph-name="Idieresis" unicode="&#xcf;" horiz-adv-x="553" 
d="M199 0v1446h156v-1446h-156zM384 1695l1 163h156l-1 -163h-156zM16 1695l1 163h156l-1 -163h-156z" />
    <glyph glyph-name="Idotaccent" unicode="&#x130;" horiz-adv-x="553" 
d="M199 0v1446h156v-1446h-156zM196 1695v163h163v-163h-163z" />
    <glyph glyph-name="uni1ECA" unicode="&#x1eca;" horiz-adv-x="553" 
d="M199 0v1446h156v-1446h-156zM203 -348v163h163v-163h-163z" />
    <glyph glyph-name="Igrave" unicode="&#xcc;" horiz-adv-x="553" 
d="M199 0v1446h156v-1446h-156zM223 1567l-268 291h186l206 -291h-124z" />
    <glyph glyph-name="uni1EC8" unicode="&#x1ec8;" horiz-adv-x="553" 
d="M199 0v1446h156v-1446h-156zM331 1564l-51 77q44 28 62.5 65.5t-2.5 70.5q-21 34 -64 33t-84 -29l-51 78q83 53 161 43t118 -71q49 -73 22.5 -144t-111.5 -123z" />
    <glyph glyph-name="uni020A" unicode="&#x20a;" horiz-adv-x="553" 
d="M199 0v1446h156v-1446h-156zM-17 1627q22 100 102 153t186 53q113 0 192 -55t100 -151h-119q-18 47 -64 77.5t-109 30.5t-106.5 -30.5t-60.5 -77.5h-121z" />
    <glyph glyph-name="Imacron" unicode="&#x12a;" horiz-adv-x="553" 
d="M199 0v1446h156v-1446h-156zM-7 1655v115h568v-115h-568z" />
    <glyph glyph-name="Iogonek" unicode="&#x12e;" horiz-adv-x="553" 
d="M199 0v1446h156v-1446h-156zM223 -337q-97 0 -145 42.5t-48 114.5q0 60 43.5 108t164.5 86l116 -14q-101 -43 -146.5 -81t-45.5 -89q0 -75 97 -75q48 0 86 12t57 23v-88q-24 -14 -73 -26.5t-106 -12.5z" />
    <glyph glyph-name="Itilde" unicode="&#x128;" horiz-adv-x="553" 
d="M199 0v1446h156v-1446h-156zM23 1639l-31 98q32 29 68 49.5t91 20.5q47 0 88.5 -13.5t82 -27t84.5 -13.5q42 0 72.5 15t60.5 37l31 -108q-25 -18 -64.5 -36t-100.5 -18q-53 0 -92 12.5t-74.5 25t-79.5 12.5q-49 0 -78 -16.5t-58 -37.5z" />
    <glyph glyph-name="J" unicode="J" horiz-adv-x="770" 
d="M321 -20q-80 0 -146 20t-85 29l15 152q32 -12 73 -30.5t106 -18.5q97 0 134 54t37 185v1075h156v-1121q0 -109 -25 -186.5t-88 -118t-177 -40.5z" />
    <glyph glyph-name="Jcircumflex" unicode="&#x134;" horiz-adv-x="770" 
d="M321 -20q-80 0 -146 20t-85 29l15 152q32 -12 73 -30.5t106 -18.5q97 0 134 54t37 185v1075h156v-1121q0 -109 -25 -186.5t-88 -118t-177 -40.5zM227 1567l247 215h114l243 -215h-160l-142 127l-152 -127h-150z" />
    <glyph glyph-name="K" unicode="K" horiz-adv-x="1346" 
d="M199 0v1446h162v-771l681 771h190l-496 -571l534 -875h-179l-469 762l-261 -295v-467h-162z" />
    <glyph glyph-name="uni0136" unicode="&#x136;" horiz-adv-x="1346" 
d="M199 0v1446h162v-771l681 771h190l-496 -571l534 -875h-179l-469 762l-261 -295v-467h-162zM575 -364l79 118l-58 3v145h171v-122l-123 -144h-69z" />
    <glyph glyph-name="L" unicode="L" horiz-adv-x="1155" 
d="M199 0l1 1446h161v-1301h698v-145h-860z" />
    <glyph glyph-name="Lacute" unicode="&#x139;" horiz-adv-x="1155" 
d="M199 0l1 1446h161v-1301h698v-145h-860zM206 1567l206 291h186l-268 -291h-124z" />
    <glyph glyph-name="Lcaron" unicode="&#x13d;" horiz-adv-x="1155" 
d="M199 0l1 1446h161v-1301h698v-145h-860zM755 1071l75 179l-50 10v186h140v-195l-77 -180h-88z" />
    <glyph glyph-name="uni013B" unicode="&#x13b;" horiz-adv-x="1155" 
d="M199 0l1 1446h161v-1301h698v-145h-860zM515 -364l79 118l-58 3v145h171v-122l-123 -144h-69z" />
    <glyph glyph-name="Ldot" unicode="&#x13f;" horiz-adv-x="1155" 
d="M199 0l1 1446h161v-1301h698v-145h-860zM756 684v202h210v-202h-210z" />
    <glyph glyph-name="Lslash" unicode="&#x141;" horiz-adv-x="1157" 
d="M201 0l1 658l-179 -48v137l179 46l1 653h160v-612l309 80v-129l-309 -83v-557h698v-145h-860z" />
    <glyph glyph-name="M" unicode="M" horiz-adv-x="1753" 
d="M199 0v1446h210l465 -1239l472 1239h208v-1446h-162v1186l-439 -1186h-157l-435 1174v-1174h-162z" />
    <glyph glyph-name="N" unicode="N" horiz-adv-x="1493" 
d="M199 0v1446h146l793 -1169v1169h156v-1446h-139l-800 1180v-1180h-156z" />
    <glyph glyph-name="Nacute" unicode="&#x143;" horiz-adv-x="1493" 
d="M199 0v1446h146l793 -1169v1169h156v-1446h-139l-800 1180v-1180h-156zM673 1567l206 291h186l-268 -291h-124z" />
    <glyph glyph-name="Ncaron" unicode="&#x147;" horiz-adv-x="1493" 
d="M199 0v1446h146l793 -1169v1169h156v-1446h-139l-800 1180v-1180h-156zM691 1567l-249 216h152l152 -131l142 131h160l-243 -216h-114z" />
    <glyph glyph-name="uni0145" unicode="&#x145;" horiz-adv-x="1493" 
d="M199 0v1446h146l793 -1169v1169h156v-1446h-139l-800 1180v-1180h-156zM607 -364l79 118l-58 3v145h171v-122l-123 -144h-69z" />
    <glyph glyph-name="uni1E44" unicode="&#x1e44;" horiz-adv-x="1493" 
d="M199 0v1446h146l793 -1169v1169h156v-1446h-139l-800 1180v-1180h-156zM665 1695v163h163v-163h-163z" />
    <glyph glyph-name="Eng" unicode="&#x14a;" horiz-adv-x="1493" 
d="M1004 -480q-80 0 -146 20t-85 29l15 152q32 -12 73 -30.5t106 -18.5q93 0 132.5 50t39.5 172v130l-784 1156v-1180h-156v1446h146l793 -1169v1169h156v-1581q0 -170 -62 -257.5t-228 -87.5z" />
    <glyph glyph-name="Ntilde" unicode="&#xd1;" horiz-adv-x="1493" 
d="M199 0v1446h146l793 -1169v1169h156v-1446h-139l-800 1180v-1180h-156zM491 1639l-31 98q32 29 68 49.5t91 20.5q47 0 88.5 -13.5t82 -27t84.5 -13.5q42 0 72.5 15t60.5 37l31 -108q-25 -18 -64.5 -36t-100.5 -18q-53 0 -92 12.5t-74.5 25t-79.5 12.5q-49 0 -78 -16.5
t-58 -37.5z" />
    <glyph glyph-name="O" unicode="O" horiz-adv-x="1453" 
d="M729 -20q-286 0 -452 192t-166 548q0 238 75.5 405t214.5 254t328 87q284 0 448.5 -193.5t164.5 -552.5q0 -355 -164 -547.5t-449 -192.5zM729 120q213 0 327 145.5t114 453.5q0 311 -115.5 459.5t-325.5 148.5t-327.5 -149t-117.5 -459q0 -309 117.5 -454t327.5 -145z
" />
    <glyph glyph-name="Oacute" unicode="&#xd3;" horiz-adv-x="1453" 
d="M729 -20q-286 0 -452 192t-166 548q0 238 75.5 405t214.5 254t328 87q284 0 448.5 -193.5t164.5 -552.5q0 -355 -164 -547.5t-449 -192.5zM729 120q213 0 327 145.5t114 453.5q0 311 -115.5 459.5t-325.5 148.5t-327.5 -149t-117.5 -459q0 -309 117.5 -454t327.5 -145z
M657 1567l206 291h186l-268 -291h-124z" />
    <glyph glyph-name="Obreve" unicode="&#x14e;" horiz-adv-x="1453" 
d="M729 -20q-286 0 -452 192t-166 548q0 238 75.5 405t214.5 254t328 87q284 0 448.5 -193.5t164.5 -552.5q0 -355 -164 -547.5t-449 -192.5zM729 120q213 0 327 145.5t114 453.5q0 311 -115.5 459.5t-325.5 148.5t-327.5 -149t-117.5 -459q0 -309 117.5 -454t327.5 -145z
M728 1564q-107 0 -187 53t-101 153h120q17 -47 61 -77t107 -30q62 0 108 30t64 77h120q-22 -96 -101 -151t-191 -55z" />
    <glyph glyph-name="Ocircumflex" unicode="&#xd4;" horiz-adv-x="1453" 
d="M729 -20q-286 0 -452 192t-166 548q0 238 75.5 405t214.5 254t328 87q284 0 448.5 -193.5t164.5 -552.5q0 -355 -164 -547.5t-449 -192.5zM729 120q213 0 327 145.5t114 453.5q0 311 -115.5 459.5t-325.5 148.5t-327.5 -149t-117.5 -459q0 -309 117.5 -454t327.5 -145z
M428 1567l247 215h114l243 -215h-160l-142 127l-152 -127h-150z" />
    <glyph glyph-name="uni1ED0" unicode="&#x1ed0;" horiz-adv-x="1453" 
d="M729 -20q-286 0 -452 192t-166 548q0 238 75.5 405t214.5 254t328 87q284 0 448.5 -193.5t164.5 -552.5q0 -355 -164 -547.5t-449 -192.5zM729 120q213 0 327 145.5t114 453.5q0 311 -115.5 459.5t-325.5 148.5t-327.5 -149t-117.5 -459q0 -309 117.5 -454t327.5 -145z
M902 1782l144 237h159l-194 -237h-109zM428 1567l247 215h114l243 -215h-160l-142 127l-152 -127h-150z" />
    <glyph glyph-name="uni1ED8" unicode="&#x1ed8;" horiz-adv-x="1453" 
d="M729 -20q-286 0 -452 192t-166 548q0 238 75.5 405t214.5 254t328 87q284 0 448.5 -193.5t164.5 -552.5q0 -355 -164 -547.5t-449 -192.5zM729 120q213 0 327 145.5t114 453.5q0 311 -115.5 459.5t-325.5 148.5t-327.5 -149t-117.5 -459q0 -309 117.5 -454t327.5 -145z
M650 -348v163h163v-163h-163zM428 1567l247 215h114l243 -215h-160l-142 127l-152 -127h-150z" />
    <glyph glyph-name="uni1ED2" unicode="&#x1ed2;" horiz-adv-x="1453" 
d="M729 -20q-286 0 -452 192t-166 548q0 238 75.5 405t214.5 254t328 87q284 0 448.5 -193.5t164.5 -552.5q0 -355 -164 -547.5t-449 -192.5zM729 120q213 0 327 145.5t114 453.5q0 311 -115.5 459.5t-325.5 148.5t-327.5 -149t-117.5 -459q0 -309 117.5 -454t327.5 -145z
M1003 1783l-206 237h158l159 -237h-111zM428 1567l247 215h114l243 -215h-160l-142 127l-152 -127h-150z" />
    <glyph glyph-name="uni1ED4" unicode="&#x1ed4;" horiz-adv-x="1453" 
d="M729 -20q-286 0 -452 192t-166 548q0 238 75.5 405t214.5 254t328 87q284 0 448.5 -193.5t164.5 -552.5q0 -355 -164 -547.5t-449 -192.5zM729 120q213 0 327 145.5t114 453.5q0 311 -115.5 459.5t-325.5 148.5t-327.5 -149t-117.5 -459q0 -309 117.5 -454t327.5 -145z
M950 1735l-50 78q43 28 62 65t-2 71t-64 32.5t-85 -29.5l-50 78q82 53 160 43.5t119 -70.5q48 -73 22 -144t-112 -124zM432 1567l247 215h114l243 -215h-160l-142 127l-152 -127h-150z" />
    <glyph glyph-name="uni1ED6" unicode="&#x1ed6;" horiz-adv-x="1453" 
d="M729 -20q-286 0 -452 192t-166 548q0 238 75.5 405t214.5 254t328 87q284 0 448.5 -193.5t164.5 -552.5q0 -355 -164 -547.5t-449 -192.5zM729 120q213 0 327 145.5t114 453.5q0 311 -115.5 459.5t-325.5 148.5t-327.5 -149t-117.5 -459q0 -309 117.5 -454t327.5 -145z
M475 1895l-32 98q32 29 68.5 49.5t90.5 20.5q48 0 89.5 -13.5t81.5 -27t84 -13.5q43 0 73 15t60 37l31 -108q-25 -18 -64 -36t-101 -18q-53 0 -91.5 12.5t-74 25t-79.5 12.5q-49 0 -78.5 -16.5t-57.5 -37.5zM429 1567l247 215h114l243 -215h-160l-142 127l-152 -127h-150z
" />
    <glyph glyph-name="uni020C" unicode="&#x20c;" horiz-adv-x="1453" 
d="M729 -20q-286 0 -452 192t-166 548q0 238 75.5 405t214.5 254t328 87q284 0 448.5 -193.5t164.5 -552.5q0 -355 -164 -547.5t-449 -192.5zM729 120q213 0 327 145.5t114 453.5q0 311 -115.5 459.5t-325.5 148.5t-327.5 -149t-117.5 -459q0 -309 117.5 -454t327.5 -145z
M538 1567l-286 291h177l233 -291h-124zM797 1567l-244 291h173l195 -291h-124z" />
    <glyph glyph-name="Odieresis" unicode="&#xd6;" horiz-adv-x="1453" 
d="M729 -20q-286 0 -452 192t-166 548q0 238 75.5 405t214.5 254t328 87q284 0 448.5 -193.5t164.5 -552.5q0 -355 -164 -547.5t-449 -192.5zM729 120q213 0 327 145.5t114 453.5q0 311 -115.5 459.5t-325.5 148.5t-327.5 -149t-117.5 -459q0 -309 117.5 -454t327.5 -145z
M836 1695l1 163h156l-1 -163h-156zM468 1695l1 163h156l-1 -163h-156z" />
    <glyph glyph-name="uni1ECC" unicode="&#x1ecc;" horiz-adv-x="1453" 
d="M729 -20q-286 0 -452 192t-166 548q0 238 75.5 405t214.5 254t328 87q284 0 448.5 -193.5t164.5 -552.5q0 -355 -164 -547.5t-449 -192.5zM729 120q213 0 327 145.5t114 453.5q0 311 -115.5 459.5t-325.5 148.5t-327.5 -149t-117.5 -459q0 -309 117.5 -454t327.5 -145z
M650 -348v163h163v-163h-163z" />
    <glyph glyph-name="Ograve" unicode="&#xd2;" horiz-adv-x="1453" 
d="M729 -20q-286 0 -452 192t-166 548q0 238 75.5 405t214.5 254t328 87q284 0 448.5 -193.5t164.5 -552.5q0 -355 -164 -547.5t-449 -192.5zM729 120q213 0 327 145.5t114 453.5q0 311 -115.5 459.5t-325.5 148.5t-327.5 -149t-117.5 -459q0 -309 117.5 -454t327.5 -145z
M675 1567l-268 291h186l206 -291h-124z" />
    <glyph glyph-name="uni1ECE" unicode="&#x1ece;" horiz-adv-x="1453" 
d="M729 -20q-286 0 -452 192t-166 548q0 238 75.5 405t214.5 254t328 87q284 0 448.5 -193.5t164.5 -552.5q0 -355 -164 -547.5t-449 -192.5zM729 120q213 0 327 145.5t114 453.5q0 311 -115.5 459.5t-325.5 148.5t-327.5 -149t-117.5 -459q0 -309 117.5 -454t327.5 -145z
M784 1564l-51 77q44 28 62.5 65.5t-2.5 70.5q-21 34 -64 33t-84 -29l-51 78q83 53 161 43t118 -71q49 -73 22.5 -144t-111.5 -123z" />
    <glyph glyph-name="Ohorn" unicode="&#x1a0;" horiz-adv-x="1544" 
d="M729 -20q-286 0 -452 192t-166 548q0 238 75.5 405t214.5 254t328 87q282 0 443 -187q77 3 109 40.5t38 156.5h135q-1 -143 -50.5 -215.5t-163.5 -80.5q50 -88 76 -203.5t26 -256.5q0 -355 -164 -547.5t-449 -192.5zM729 120q213 0 327 145.5t114 453.5
q0 311 -115.5 459.5t-325.5 148.5t-327.5 -149t-117.5 -459q0 -309 117.5 -454t327.5 -145z" />
    <glyph glyph-name="uni1EDA" unicode="&#x1eda;" horiz-adv-x="1544" 
d="M729 -20q-286 0 -452 192t-166 548q0 238 75.5 405t214.5 254t328 87q282 0 443 -187q77 3 109 40.5t38 156.5h135q-1 -143 -50.5 -215.5t-163.5 -80.5q50 -88 76 -203.5t26 -256.5q0 -355 -164 -547.5t-449 -192.5zM729 120q213 0 327 145.5t114 453.5
q0 311 -115.5 459.5t-325.5 148.5t-327.5 -149t-117.5 -459q0 -309 117.5 -454t327.5 -145zM657 1567l206 291h186l-268 -291h-124z" />
    <glyph glyph-name="uni1EE2" unicode="&#x1ee2;" horiz-adv-x="1544" 
d="M729 -20q-286 0 -452 192t-166 548q0 238 75.5 405t214.5 254t328 87q282 0 443 -187q77 3 109 40.5t38 156.5h135q-1 -143 -50.5 -215.5t-163.5 -80.5q50 -88 76 -203.5t26 -256.5q0 -355 -164 -547.5t-449 -192.5zM729 120q213 0 327 145.5t114 453.5
q0 311 -115.5 459.5t-325.5 148.5t-327.5 -149t-117.5 -459q0 -309 117.5 -454t327.5 -145zM650 -348v163h163v-163h-163z" />
    <glyph glyph-name="uni1EDC" unicode="&#x1edc;" horiz-adv-x="1544" 
d="M729 -20q-286 0 -452 192t-166 548q0 238 75.5 405t214.5 254t328 87q282 0 443 -187q77 3 109 40.5t38 156.5h135q-1 -143 -50.5 -215.5t-163.5 -80.5q50 -88 76 -203.5t26 -256.5q0 -355 -164 -547.5t-449 -192.5zM729 120q213 0 327 145.5t114 453.5
q0 311 -115.5 459.5t-325.5 148.5t-327.5 -149t-117.5 -459q0 -309 117.5 -454t327.5 -145zM675 1567l-268 291h186l206 -291h-124z" />
    <glyph glyph-name="uni1EDE" unicode="&#x1ede;" horiz-adv-x="1544" 
d="M729 -20q-286 0 -452 192t-166 548q0 238 75.5 405t214.5 254t328 87q282 0 443 -187q77 3 109 40.5t38 156.5h135q-1 -143 -50.5 -215.5t-163.5 -80.5q50 -88 76 -203.5t26 -256.5q0 -355 -164 -547.5t-449 -192.5zM729 120q213 0 327 145.5t114 453.5
q0 311 -115.5 459.5t-325.5 148.5t-327.5 -149t-117.5 -459q0 -309 117.5 -454t327.5 -145zM784 1564l-51 77q44 28 62.5 65.5t-2.5 70.5q-21 34 -64 33t-84 -29l-51 78q83 53 161 43t118 -71q49 -73 22.5 -144t-111.5 -123z" />
    <glyph glyph-name="uni1EE0" unicode="&#x1ee0;" horiz-adv-x="1544" 
d="M729 -20q-286 0 -452 192t-166 548q0 238 75.5 405t214.5 254t328 87q282 0 443 -187q77 3 109 40.5t38 156.5h135q-1 -143 -50.5 -215.5t-163.5 -80.5q50 -88 76 -203.5t26 -256.5q0 -355 -164 -547.5t-449 -192.5zM729 120q213 0 327 145.5t114 453.5
q0 311 -115.5 459.5t-325.5 148.5t-327.5 -149t-117.5 -459q0 -309 117.5 -454t327.5 -145zM475 1639l-31 98q32 29 68 49.5t91 20.5q47 0 88.5 -13.5t82 -27t84.5 -13.5q42 0 72.5 15t60.5 37l31 -108q-25 -18 -64.5 -36t-100.5 -18q-53 0 -92 12.5t-74.5 25t-79.5 12.5
q-49 0 -78 -16.5t-58 -37.5z" />
    <glyph glyph-name="Ohungarumlaut" unicode="&#x150;" horiz-adv-x="1453" 
d="M729 -20q-286 0 -452 192t-166 548q0 238 75.5 405t214.5 254t328 87q284 0 448.5 -193.5t164.5 -552.5q0 -355 -164 -547.5t-449 -192.5zM729 120q213 0 327 145.5t114 453.5q0 311 -115.5 459.5t-325.5 148.5t-327.5 -149t-117.5 -459q0 -309 117.5 -454t327.5 -145z
M804 1567l233 291h177l-286 -291h-124zM545 1567l195 291h173l-244 -291h-124z" />
    <glyph glyph-name="uni020E" unicode="&#x20e;" horiz-adv-x="1453" 
d="M729 -20q-286 0 -452 192t-166 548q0 238 75.5 405t214.5 254t328 87q284 0 448.5 -193.5t164.5 -552.5q0 -355 -164 -547.5t-449 -192.5zM729 120q213 0 327 145.5t114 453.5q0 311 -115.5 459.5t-325.5 148.5t-327.5 -149t-117.5 -459q0 -309 117.5 -454t327.5 -145z
M435 1627q22 100 102 153t186 53q113 0 192 -55t100 -151h-119q-18 47 -64 77.5t-109 30.5t-106.5 -30.5t-60.5 -77.5h-121z" />
    <glyph glyph-name="Omacron" unicode="&#x14c;" horiz-adv-x="1453" 
d="M729 -20q-286 0 -452 192t-166 548q0 238 75.5 405t214.5 254t328 87q284 0 448.5 -193.5t164.5 -552.5q0 -355 -164 -547.5t-449 -192.5zM729 120q213 0 327 145.5t114 453.5q0 311 -115.5 459.5t-325.5 148.5t-327.5 -149t-117.5 -459q0 -309 117.5 -454t327.5 -145z
M446 1655v115h568v-115h-568z" />
    <glyph glyph-name="uni01EA" unicode="&#x1ea;" horiz-adv-x="1453" 
d="M766 -335q-97 0 -145 42.5t-48 113.5q0 48 25.5 87.5t92.5 72.5q-269 13 -424.5 204t-155.5 535q0 238 75.5 405t214.5 254t328 87q284 0 448.5 -193.5t164.5 -552.5q0 -303 -121 -488.5t-335 -234.5q-95 -41 -138 -78.5t-43 -86.5q0 -76 97 -76q48 0 86 12t57 23v-87
q-24 -14 -73 -26.5t-106 -12.5zM729 120q213 0 327 145.5t114 453.5q0 311 -115.5 459.5t-325.5 148.5t-327.5 -149t-117.5 -459q0 -309 117.5 -454t327.5 -145z" />
    <glyph glyph-name="Oslash" unicode="&#xd8;" horiz-adv-x="1487" 
d="M152 -26l-92 88l172 191q-106 179 -106 464q0 240 74.5 407t213 254.5t328.5 87.5q268 0 430 -173l161 178l92 -87l-176 -196q52 -90 79.5 -207.5t27.5 -260.5q0 -355 -165 -547.5t-450 -192.5q-273 0 -429 169zM369 396l691 781q-105 151 -318 151q-413 0 -423 -564
q-4 -213 50 -368zM744 119q202 0 306 134t110 413q5 215 -49 381l-689 -781q107 -147 322 -147z" />
    <glyph glyph-name="Oslashacute" unicode="&#x1fe;" horiz-adv-x="1487" 
d="M152 -26l-92 88l172 191q-106 179 -106 464q0 240 74.5 407t213 254.5t328.5 87.5q268 0 430 -173l161 178l92 -87l-176 -196q52 -90 79.5 -207.5t27.5 -260.5q0 -355 -165 -547.5t-450 -192.5q-273 0 -429 169zM369 396l691 781q-105 151 -318 151q-413 0 -423 -564
q-4 -213 50 -368zM744 119q202 0 306 134t110 413q5 215 -49 381l-689 -781q107 -147 322 -147zM668 1567l206 291h186l-268 -291h-124z" />
    <glyph glyph-name="Otilde" unicode="&#xd5;" horiz-adv-x="1453" 
d="M729 -20q-286 0 -452 192t-166 548q0 238 75.5 405t214.5 254t328 87q284 0 448.5 -193.5t164.5 -552.5q0 -355 -164 -547.5t-449 -192.5zM729 120q213 0 327 145.5t114 453.5q0 311 -115.5 459.5t-325.5 148.5t-327.5 -149t-117.5 -459q0 -309 117.5 -454t327.5 -145z
M475 1639l-31 98q32 29 68 49.5t91 20.5q47 0 88.5 -13.5t82 -27t84.5 -13.5q42 0 72.5 15t60.5 37l31 -108q-25 -18 -64.5 -36t-100.5 -18q-53 0 -92 12.5t-74.5 25t-79.5 12.5q-49 0 -78 -16.5t-58 -37.5z" />
    <glyph glyph-name="OE" unicode="&#x152;" horiz-adv-x="2231" 
d="M1352 660v-516l755 -1v-143h-911v251q-140 -271 -467 -271q-286 0 -452 192t-166 548q0 238 75.5 405t214.5 254t328 87q327 0 467 -272v252h890l-1 -140h-732v-506h666v-140h-667zM729 120q213 0 327 145.5t114 453.5q0 311 -115.5 459.5t-325.5 148.5t-327.5 -149
t-117.5 -459q0 -309 117.5 -454t327.5 -145z" />
    <glyph glyph-name="P" unicode="P" horiz-adv-x="1264" 
d="M199 0v1446h477q154 0 274 -51.5t189 -152t69 -248.5q0 -145 -64.5 -246.5t-179.5 -154.5t-266 -53h-337v-540h-162zM360 677h335q159 0 258.5 86.5t99.5 239.5q0 154 -102 231t-267 77h-324v-634z" />
    <glyph glyph-name="Thorn" unicode="&#xde;" horiz-adv-x="1285" 
d="M199 0v1446h162v-302h336q156 0 276 -42t188 -128.5t68 -221.5q0 -146 -68 -238t-186 -135.5t-269 -43.5h-345v-335h-162zM361 474h340q161 0 263 62.5t102 215.5q0 141 -103 197t-272 56h-330v-531z" />
    <glyph glyph-name="Q" unicode="Q" horiz-adv-x="1481" 
d="M1329 -241q-65 0 -142 18t-152 69.5t-135 152.5q-49 -9 -90 -14t-82 -5q-188 0 -326.5 84.5t-214.5 249.5t-76 406q0 360 166 553t451 193t449.5 -193t164.5 -553q0 -231 -69 -394.5t-224 -258.5q40 -87 115 -128t165 -44v-136zM728 120q212 0 328 144.5t116 454.5
q0 305 -114.5 456.5t-329.5 151.5t-329.5 -152t-114.5 -459t116 -451.5t328 -144.5z" />
    <glyph glyph-name="R" unicode="R" horiz-adv-x="1342" 
d="M199 0v1446h546q228 0 346 -101t118 -284q0 -118 -43.5 -196.5t-109.5 -125t-136 -69.5l289 -670h-167l-272 641h-415v-641h-156zM355 775h328q175 0 270 67t95 208q0 134 -83 199t-232 65h-378v-539z" />
    <glyph glyph-name="Racute" unicode="&#x154;" horiz-adv-x="1342" 
d="M199 0v1446h546q228 0 346 -101t118 -284q0 -118 -43.5 -196.5t-109.5 -125t-136 -69.5l289 -670h-167l-272 641h-415v-641h-156zM355 775h328q175 0 270 67t95 208q0 134 -83 199t-232 65h-378v-539zM580 1567l206 291h186l-268 -291h-124z" />
    <glyph glyph-name="Rcaron" unicode="&#x158;" horiz-adv-x="1342" 
d="M199 0v1446h546q228 0 346 -101t118 -284q0 -118 -43.5 -196.5t-109.5 -125t-136 -69.5l289 -670h-167l-272 641h-415v-641h-156zM355 775h328q175 0 270 67t95 208q0 134 -83 199t-232 65h-378v-539zM598 1567l-249 216h152l152 -131l142 131h160l-243 -216h-114z" />
    <glyph glyph-name="uni0156" unicode="&#x156;" horiz-adv-x="1342" 
d="M199 0v1446h546q228 0 346 -101t118 -284q0 -118 -43.5 -196.5t-109.5 -125t-136 -69.5l289 -670h-167l-272 641h-415v-641h-156zM355 775h328q175 0 270 67t95 208q0 134 -83 199t-232 65h-378v-539zM566 -364l79 118l-58 3v145h171v-122l-123 -144h-69z" />
    <glyph glyph-name="uni0210" unicode="&#x210;" horiz-adv-x="1342" 
d="M199 0v1446h546q228 0 346 -101t118 -284q0 -118 -43.5 -196.5t-109.5 -125t-136 -69.5l289 -670h-167l-272 641h-415v-641h-156zM355 775h328q175 0 270 67t95 208q0 134 -83 199t-232 65h-378v-539zM461 1567l-286 291h177l233 -291h-124zM720 1567l-244 291h173
l195 -291h-124z" />
    <glyph glyph-name="uni1E5A" unicode="&#x1e5a;" horiz-adv-x="1342" 
d="M199 0v1446h546q228 0 346 -101t118 -284q0 -118 -43.5 -196.5t-109.5 -125t-136 -69.5l289 -670h-167l-272 641h-415v-641h-156zM355 775h328q175 0 270 67t95 208q0 134 -83 199t-232 65h-378v-539zM588 -348v163h163v-163h-163z" />
    <glyph glyph-name="uni0212" unicode="&#x212;" horiz-adv-x="1342" 
d="M199 0v1446h546q228 0 346 -101t118 -284q0 -118 -43.5 -196.5t-109.5 -125t-136 -69.5l289 -670h-167l-272 641h-415v-641h-156zM355 775h328q175 0 270 67t95 208q0 134 -83 199t-232 65h-378v-539zM358 1627q22 100 102 153t186 53q113 0 192 -55t100 -151h-119
q-18 47 -64 77.5t-109 30.5t-106.5 -30.5t-60.5 -77.5h-121z" />
    <glyph glyph-name="S" unicode="S" horiz-adv-x="1328" 
d="M674 -20q-139 0 -257.5 45t-197.5 133t-99 218h165q29 -130 139 -196.5t256 -66.5q99 0 181 31.5t131 91t49 142.5q0 89 -57 146t-181 91l-304 81q-147 38 -241 121.5t-94 247.5q0 119 66 209t179 140t257 50q167 0 281 -59t172.5 -154t58.5 -201h-162
q-10 105 -61.5 166.5t-128.5 88t-165 26.5q-162 0 -247 -75t-85 -180q0 -96 60 -149.5t174 -83.5l302 -80q187 -47 261.5 -148.5t74.5 -226.5q0 -117 -65 -209.5t-183 -145.5t-279 -53z" />
    <glyph glyph-name="Sacute" unicode="&#x15a;" horiz-adv-x="1328" 
d="M674 -20q-139 0 -257.5 45t-197.5 133t-99 218h165q29 -130 139 -196.5t256 -66.5q99 0 181 31.5t131 91t49 142.5q0 89 -57 146t-181 91l-304 81q-147 38 -241 121.5t-94 247.5q0 119 66 209t179 140t257 50q167 0 281 -59t172.5 -154t58.5 -201h-162
q-10 105 -61.5 166.5t-128.5 88t-165 26.5q-162 0 -247 -75t-85 -180q0 -96 60 -149.5t174 -83.5l302 -80q187 -47 261.5 -148.5t74.5 -226.5q0 -117 -65 -209.5t-183 -145.5t-279 -53zM585 1567l206 291h186l-268 -291h-124z" />
    <glyph glyph-name="Scaron" unicode="&#x160;" horiz-adv-x="1328" 
d="M674 -20q-139 0 -257.5 45t-197.5 133t-99 218h165q29 -130 139 -196.5t256 -66.5q99 0 181 31.5t131 91t49 142.5q0 89 -57 146t-181 91l-304 81q-147 38 -241 121.5t-94 247.5q0 119 66 209t179 140t257 50q167 0 281 -59t172.5 -154t58.5 -201h-162
q-10 105 -61.5 166.5t-128.5 88t-165 26.5q-162 0 -247 -75t-85 -180q0 -96 60 -149.5t174 -83.5l302 -80q187 -47 261.5 -148.5t74.5 -226.5q0 -117 -65 -209.5t-183 -145.5t-279 -53zM603 1567l-249 216h152l152 -131l142 131h160l-243 -216h-114z" />
    <glyph glyph-name="Scedilla" unicode="&#x15e;" horiz-adv-x="1328" 
d="M612 -408q-105 0 -179 49l29 72q25 -20 56.5 -33t75.5 -13q110 0 110 76q0 43 -37 65t-120 24q-16 0 -11 12l61 140q-122 11 -223.5 59t-168.5 131.5t-85 201.5h165q29 -130 139 -196.5t256 -66.5q99 0 181 31.5t131 91t49 142.5q0 89 -57 146t-181 91l-304 81
q-147 38 -241 121.5t-94 247.5q0 119 66 209t179 140t257 50q167 0 281 -59t172.5 -154t58.5 -201h-162q-10 105 -61.5 166.5t-128.5 88t-165 26.5q-162 0 -247 -75t-85 -180q0 -96 60 -149.5t174 -83.5l302 -80q187 -47 261.5 -148.5t74.5 -226.5q0 -116 -63.5 -207.5
t-179 -145t-272.5 -55.5l-36 -91q99 -6 136 -51t37 -94q0 -75 -62.5 -113.5t-148.5 -38.5z" />
    <glyph glyph-name="Scircumflex" unicode="&#x15c;" horiz-adv-x="1328" 
d="M674 -20q-139 0 -257.5 45t-197.5 133t-99 218h165q29 -130 139 -196.5t256 -66.5q99 0 181 31.5t131 91t49 142.5q0 89 -57 146t-181 91l-304 81q-147 38 -241 121.5t-94 247.5q0 119 66 209t179 140t257 50q167 0 281 -59t172.5 -154t58.5 -201h-162
q-10 105 -61.5 166.5t-128.5 88t-165 26.5q-162 0 -247 -75t-85 -180q0 -96 60 -149.5t174 -83.5l302 -80q187 -47 261.5 -148.5t74.5 -226.5q0 -117 -65 -209.5t-183 -145.5t-279 -53zM356 1567l247 215h114l243 -215h-160l-142 127l-152 -127h-150z" />
    <glyph glyph-name="uni0218" unicode="&#x218;" horiz-adv-x="1328" 
d="M674 -20q-139 0 -257.5 45t-197.5 133t-99 218h165q29 -130 139 -196.5t256 -66.5q99 0 181 31.5t131 91t49 142.5q0 89 -57 146t-181 91l-304 81q-147 38 -241 121.5t-94 247.5q0 119 66 209t179 140t257 50q167 0 281 -59t172.5 -154t58.5 -201h-162
q-10 105 -61.5 166.5t-128.5 88t-165 26.5q-162 0 -247 -75t-85 -180q0 -96 60 -149.5t174 -83.5l302 -80q187 -47 261.5 -148.5t74.5 -226.5q0 -117 -65 -209.5t-183 -145.5t-279 -53zM546 -364l79 118l-58 3v145h171v-122l-123 -144h-69z" />
    <glyph glyph-name="uni1E62" unicode="&#x1e62;" horiz-adv-x="1328" 
d="M674 -20q-139 0 -257.5 45t-197.5 133t-99 218h165q29 -130 139 -196.5t256 -66.5q99 0 181 31.5t131 91t49 142.5q0 89 -57 146t-181 91l-304 81q-147 38 -241 121.5t-94 247.5q0 119 66 209t179 140t257 50q167 0 281 -59t172.5 -154t58.5 -201h-162
q-10 105 -61.5 166.5t-128.5 88t-165 26.5q-162 0 -247 -75t-85 -180q0 -96 60 -149.5t174 -83.5l302 -80q187 -47 261.5 -148.5t74.5 -226.5q0 -117 -65 -209.5t-183 -145.5t-279 -53zM568 -348v163h163v-163h-163z" />
    <glyph glyph-name="uni018F" unicode="&#x18f;" horiz-adv-x="1451" 
d="M728 -20q-187 0 -325 85.5t-213.5 259.5t-75.5 439h1043q0 261 -110.5 405.5t-320.5 144.5q-141 0 -238 -56.5t-146.5 -138t-49.5 -157.5h-181q0 82 43 170.5t123 164t194 122.5t257 47q191 0 328.5 -88t210.5 -254t73 -398q0 -369 -166 -557.5t-446 -188.5zM728 127
q141 0 235.5 66t142.5 181t50 260h-853q0 -146 48 -260.5t143 -180.5t234 -66z" />
    <glyph glyph-name="T" unicode="T" horiz-adv-x="1174" 
d="M523 0v1301h-474v145h1077v-145h-446v-1301h-157z" />
    <glyph glyph-name="Tbar" unicode="&#x166;" horiz-adv-x="1174" 
d="M523 0v664h-310v130h310v507h-474v145h1077v-145h-446v-507h282v-130h-282v-664h-157z" />
    <glyph glyph-name="Tcaron" unicode="&#x164;" horiz-adv-x="1174" 
d="M523 0v1301h-474v145h1077v-145h-446v-1301h-157zM553 1567l-249 216h152l152 -131l142 131h160l-243 -216h-114z" />
    <glyph glyph-name="uni0162" unicode="&#x162;" horiz-adv-x="1174" 
d="M523 0v1301h-474v145h1077v-145h-446v-1301h-28l-43 -108q100 -6 136.5 -51t36.5 -94q0 -75 -62.5 -113.5t-147.5 -38.5q-106 0 -179 49l28 72q25 -20 56.5 -33t76.5 -13q110 0 110 76q0 43 -37.5 65t-119.5 24q-17 0 -11 12l67 153h-40z" />
    <glyph glyph-name="uni021A" unicode="&#x21a;" horiz-adv-x="1174" 
d="M523 0v1301h-474v145h1077v-145h-446v-1301h-157zM505 -361l79 118l-58 3v145h171v-122l-123 -144h-69z" />
    <glyph glyph-name="uni1E6C" unicode="&#x1e6c;" horiz-adv-x="1174" 
d="M523 0v1301h-474v145h1077v-145h-446v-1301h-157zM527 -345v163h163v-163h-163z" />
    <glyph glyph-name="U" unicode="U" horiz-adv-x="1388" 
d="M713 -20q-272 0 -393 134t-121 394v938h163v-967q0 -361 351 -360q174 0 266.5 89t92.5 271v967h157v-960q0 -246 -123.5 -376t-392.5 -130z" />
    <glyph glyph-name="Uacute" unicode="&#xda;" horiz-adv-x="1388" 
d="M713 -20q-272 0 -393 134t-121 394v938h163v-967q0 -361 351 -360q174 0 266.5 89t92.5 271v967h157v-960q0 -246 -123.5 -376t-392.5 -130zM643 1567l206 291h186l-268 -291h-124z" />
    <glyph glyph-name="Ubreve" unicode="&#x16c;" horiz-adv-x="1388" 
d="M713 -20q-272 0 -393 134t-121 394v938h163v-967q0 -361 351 -360q174 0 266.5 89t92.5 271v967h157v-960q0 -246 -123.5 -376t-392.5 -130zM714 1564q-107 0 -187 53t-101 153h120q17 -47 61 -77t107 -30q62 0 108 30t64 77h120q-22 -96 -101 -151t-191 -55z" />
    <glyph glyph-name="Ucircumflex" unicode="&#xdb;" horiz-adv-x="1388" 
d="M713 -20q-272 0 -393 134t-121 394v938h163v-967q0 -361 351 -360q174 0 266.5 89t92.5 271v967h157v-960q0 -246 -123.5 -376t-392.5 -130zM414 1567l247 215h114l243 -215h-160l-142 127l-152 -127h-150z" />
    <glyph glyph-name="uni0214" unicode="&#x214;" horiz-adv-x="1388" 
d="M713 -20q-272 0 -393 134t-121 394v938h163v-967q0 -361 351 -360q174 0 266.5 89t92.5 271v967h157v-960q0 -246 -123.5 -376t-392.5 -130zM524 1567l-286 291h177l233 -291h-124zM783 1567l-244 291h173l195 -291h-124z" />
    <glyph glyph-name="Udieresis" unicode="&#xdc;" horiz-adv-x="1388" 
d="M713 -20q-272 0 -393 134t-121 394v938h163v-967q0 -361 351 -360q174 0 266.5 89t92.5 271v967h157v-960q0 -246 -123.5 -376t-392.5 -130zM822 1695l1 163h156l-1 -163h-156zM454 1695l1 163h156l-1 -163h-156z" />
    <glyph glyph-name="uni1EE4" unicode="&#x1ee4;" horiz-adv-x="1388" 
d="M713 -20q-272 0 -393 134t-121 394v938h163v-967q0 -361 351 -360q174 0 266.5 89t92.5 271v967h157v-960q0 -246 -123.5 -376t-392.5 -130zM631 -345v163h163v-163h-163z" />
    <glyph glyph-name="Ugrave" unicode="&#xd9;" horiz-adv-x="1388" 
d="M713 -20q-272 0 -393 134t-121 394v938h163v-967q0 -361 351 -360q174 0 266.5 89t92.5 271v967h157v-960q0 -246 -123.5 -376t-392.5 -130zM661 1567l-268 291h186l206 -291h-124z" />
    <glyph glyph-name="uni1EE6" unicode="&#x1ee6;" horiz-adv-x="1388" 
d="M713 -20q-272 0 -393 134t-121 394v938h163v-967q0 -361 351 -360q174 0 266.5 89t92.5 271v967h157v-960q0 -246 -123.5 -376t-392.5 -130zM770 1564l-51 77q44 28 62.5 65.5t-2.5 70.5q-21 34 -64 33t-84 -29l-51 78q83 53 161 43t118 -71q49 -73 22.5 -144
t-111.5 -123z" />
    <glyph glyph-name="Uhorn" unicode="&#x1af;" horiz-adv-x="1593" 
d="M713 -20q-272 0 -393 134t-121 394v938h163v-967q0 -361 351 -360q174 0 266.5 89t92.5 271v967h157v-167q67 4 96 45t34 152h135q-1 -158 -62 -230.5t-203 -65.5v-694q0 -246 -123.5 -376t-392.5 -130z" />
    <glyph glyph-name="uni1EE8" unicode="&#x1ee8;" horiz-adv-x="1593" 
d="M713 -20q-272 0 -393 134t-121 394v938h163v-967q0 -361 351 -360q174 0 266.5 89t92.5 271v967h157v-167q67 4 96 45t34 152h135q-1 -158 -62 -230.5t-203 -65.5v-694q0 -246 -123.5 -376t-392.5 -130zM643 1567l206 291h186l-268 -291h-124z" />
    <glyph glyph-name="uni1EF0" unicode="&#x1ef0;" horiz-adv-x="1593" 
d="M713 -20q-272 0 -393 134t-121 394v938h163v-967q0 -361 351 -360q174 0 266.5 89t92.5 271v967h157v-167q67 4 96 45t34 152h135q-1 -158 -62 -230.5t-203 -65.5v-694q0 -246 -123.5 -376t-392.5 -130zM631 -345v163h163v-163h-163z" />
    <glyph glyph-name="uni1EEA" unicode="&#x1eea;" horiz-adv-x="1593" 
d="M713 -20q-272 0 -393 134t-121 394v938h163v-967q0 -361 351 -360q174 0 266.5 89t92.5 271v967h157v-167q67 4 96 45t34 152h135q-1 -158 -62 -230.5t-203 -65.5v-694q0 -246 -123.5 -376t-392.5 -130zM661 1567l-268 291h186l206 -291h-124z" />
    <glyph glyph-name="uni1EEC" unicode="&#x1eec;" horiz-adv-x="1593" 
d="M713 -20q-272 0 -393 134t-121 394v938h163v-967q0 -361 351 -360q174 0 266.5 89t92.5 271v967h157v-167q67 4 96 45t34 152h135q-1 -158 -62 -230.5t-203 -65.5v-694q0 -246 -123.5 -376t-392.5 -130zM770 1564l-51 77q44 28 62.5 65.5t-2.5 70.5q-21 34 -64 33
t-84 -29l-51 78q83 53 161 43t118 -71q49 -73 22.5 -144t-111.5 -123z" />
    <glyph glyph-name="uni1EEE" unicode="&#x1eee;" horiz-adv-x="1590" 
d="M713 -20q-272 0 -393 134t-121 394v938h163v-967q0 -361 351 -360q174 0 266.5 89t92.5 271v967h157v-167q67 4 96 45t34 152h135q-1 -158 -62 -230.5t-203 -65.5v-694q0 -246 -123.5 -376t-392.5 -130zM461 1639l-31 98q32 29 68 49.5t91 20.5q47 0 88.5 -13.5t82 -27
t84.5 -13.5q42 0 72.5 15t60.5 37l31 -108q-25 -18 -64.5 -36t-100.5 -18q-53 0 -92 12.5t-74.5 25t-79.5 12.5q-49 0 -78 -16.5t-58 -37.5z" />
    <glyph glyph-name="Uhungarumlaut" unicode="&#x170;" horiz-adv-x="1388" 
d="M713 -20q-272 0 -393 134t-121 394v938h163v-967q0 -361 351 -360q174 0 266.5 89t92.5 271v967h157v-960q0 -246 -123.5 -376t-392.5 -130zM790 1567l233 291h177l-286 -291h-124zM531 1567l195 291h173l-244 -291h-124z" />
    <glyph glyph-name="uni0216" unicode="&#x216;" horiz-adv-x="1388" 
d="M713 -20q-272 0 -393 134t-121 394v938h163v-967q0 -361 351 -360q174 0 266.5 89t92.5 271v967h157v-960q0 -246 -123.5 -376t-392.5 -130zM421 1627q22 100 102 153t186 53q113 0 192 -55t100 -151h-119q-18 47 -64 77.5t-109 30.5t-106.5 -30.5t-60.5 -77.5h-121z" />
    <glyph glyph-name="Umacron" unicode="&#x16a;" horiz-adv-x="1388" 
d="M713 -20q-272 0 -393 134t-121 394v938h163v-967q0 -361 351 -360q174 0 266.5 89t92.5 271v967h157v-960q0 -246 -123.5 -376t-392.5 -130zM432 1655v115h568v-115h-568z" />
    <glyph glyph-name="Uogonek" unicode="&#x172;" horiz-adv-x="1388" 
d="M745 -334q-96 0 -144 42.5t-48 113.5q0 47 25 86.5t91 72.5q-248 11 -359 144.5t-111 382.5v938h163v-967q0 -361 351 -360q174 0 266.5 89t92.5 271v967h157v-960q0 -213 -92 -339.5t-290 -156.5q-85 -39 -124 -74.5t-39 -82.5q0 -76 98 -76q48 0 86 12t57 23v-87
q-25 -14 -74 -26.5t-106 -12.5z" />
    <glyph glyph-name="Uring" unicode="&#x16e;" horiz-adv-x="1388" 
d="M713 -20q-272 0 -393 134t-121 394v938h163v-967q0 -361 351 -360q174 0 266.5 89t92.5 271v967h157v-960q0 -246 -123.5 -376t-392.5 -130zM717 1571q-85 0 -144 59.5t-59 147.5q0 81 59.5 138.5t143.5 57.5q85 0 144.5 -58t59.5 -142q0 -86 -59.5 -144.5t-144.5 -58.5z
M715 1662q45 0 76.5 33.5t31.5 77.5q0 48 -31.5 78.5t-76.5 30.5q-44 0 -77 -30.5t-33 -78.5q0 -44 33 -77.5t77 -33.5z" />
    <glyph glyph-name="Utilde" unicode="&#x168;" horiz-adv-x="1388" 
d="M713 -20q-272 0 -393 134t-121 394v938h163v-967q0 -361 351 -360q174 0 266.5 89t92.5 271v967h157v-960q0 -246 -123.5 -376t-392.5 -130zM461 1639l-31 98q32 29 68 49.5t91 20.5q47 0 88.5 -13.5t82 -27t84.5 -13.5q42 0 72.5 15t60.5 37l31 -108q-25 -18 -64.5 -36
t-100.5 -18q-53 0 -92 12.5t-74.5 25t-79.5 12.5q-49 0 -78 -16.5t-58 -37.5z" />
    <glyph glyph-name="V" unicode="V" horiz-adv-x="1328" 
d="M567 0l-518 1446h156l459 -1271l458 1271h157l-518 -1446h-194z" />
    <glyph glyph-name="W" unicode="W" horiz-adv-x="1899" 
d="M462 0l-413 1446h159l334 -1205l342 1205h127l339 -1205l342 1205h158l-420 -1446h-154l-330 1169l-335 -1169h-149z" />
    <glyph glyph-name="Wacute" unicode="&#x1e82;" horiz-adv-x="1899" 
d="M462 0l-413 1446h159l334 -1205l342 1205h127l339 -1205l342 1205h158l-420 -1446h-154l-330 1169l-335 -1169h-149zM874 1567l206 291h186l-268 -291h-124z" />
    <glyph glyph-name="Wcircumflex" unicode="&#x174;" horiz-adv-x="1899" 
d="M462 0l-413 1446h159l334 -1205l342 1205h127l339 -1205l342 1205h158l-420 -1446h-154l-330 1169l-335 -1169h-149zM645 1567l247 215h114l243 -215h-160l-142 127l-152 -127h-150z" />
    <glyph glyph-name="Wdieresis" unicode="&#x1e84;" horiz-adv-x="1899" 
d="M462 0l-413 1446h159l334 -1205l342 1205h127l339 -1205l342 1205h158l-420 -1446h-154l-330 1169l-335 -1169h-149zM1053 1695l1 163h156l-1 -163h-156zM685 1695l1 163h156l-1 -163h-156z" />
    <glyph glyph-name="Wgrave" unicode="&#x1e80;" horiz-adv-x="1899" 
d="M462 0l-413 1446h159l334 -1205l342 1205h127l339 -1205l342 1205h158l-420 -1446h-154l-330 1169l-335 -1169h-149zM893 1567l-268 291h186l206 -291h-124z" />
    <glyph glyph-name="X" unicode="X" horiz-adv-x="1361" 
d="M90 0l493 739l-474 707h192l379 -574l376 574h174l-465 -693l506 -753h-193l-409 617l-404 -617h-175z" />
    <glyph glyph-name="Y" unicode="Y" horiz-adv-x="1182" 
d="M516 0v619l-491 827h171l398 -686l392 686h171l-486 -829v-617h-155z" />
    <glyph glyph-name="Yacute" unicode="&#xdd;" horiz-adv-x="1182" 
d="M516 0v619l-491 827h171l398 -686l392 686h171l-486 -829v-617h-155zM530 1570l206 291h186l-268 -291h-124z" />
    <glyph glyph-name="Ycircumflex" unicode="&#x176;" horiz-adv-x="1182" 
d="M516 0v619l-491 827h171l398 -686l392 686h171l-486 -829v-617h-155zM301 1570l247 215h114l243 -215h-160l-142 127l-152 -127h-150z" />
    <glyph glyph-name="Ydieresis" unicode="&#x178;" horiz-adv-x="1182" 
d="M516 0v619l-491 827h171l398 -686l392 686h171l-486 -829v-617h-155zM710 1698l1 163h156l-1 -163h-156zM342 1698l1 163h156l-1 -163h-156z" />
    <glyph glyph-name="uni1EF4" unicode="&#x1ef4;" horiz-adv-x="1182" 
d="M516 0v619l-491 827h171l398 -686l392 686h171l-486 -829v-617h-155zM513 -348v163h163v-163h-163z" />
    <glyph glyph-name="Ygrave" unicode="&#x1ef2;" horiz-adv-x="1182" 
d="M516 0v619l-491 827h171l398 -686l392 686h171l-486 -829v-617h-155zM549 1570l-268 291h186l206 -291h-124z" />
    <glyph glyph-name="uni1EF6" unicode="&#x1ef6;" horiz-adv-x="1182" 
d="M516 0v619l-491 827h171l398 -686l392 686h171l-486 -829v-617h-155zM657 1567l-51 77q44 28 62.5 65.5t-2.5 70.5q-21 34 -64 33t-84 -29l-51 78q83 53 161 43t118 -71q49 -73 22.5 -144t-111.5 -123z" />
    <glyph glyph-name="uni1EF8" unicode="&#x1ef8;" horiz-adv-x="1182" 
d="M516 0v619l-491 827h171l398 -686l392 686h171l-486 -829v-617h-155zM349 1642l-31 98q32 29 68 49.5t91 20.5q47 0 88.5 -13.5t82 -27t84.5 -13.5q42 0 72.5 15t60.5 37l31 -108q-25 -18 -64.5 -36t-100.5 -18q-53 0 -92 12.5t-74.5 25t-79.5 12.5q-49 0 -78 -16.5
t-58 -37.5z" />
    <glyph glyph-name="Z" unicode="Z" horiz-adv-x="1256" 
d="M133 0v91l808 1217h-779v138h994v-87l-813 -1219h810v-140h-1020z" />
    <glyph glyph-name="Zacute" unicode="&#x179;" horiz-adv-x="1256" 
d="M133 0v91l808 1217h-779v138h994v-87l-813 -1219h810v-140h-1020zM592 1567l206 291h186l-268 -291h-124z" />
    <glyph glyph-name="Zcaron" unicode="&#x17d;" horiz-adv-x="1256" 
d="M133 0v91l808 1217h-779v138h994v-87l-813 -1219h810v-140h-1020zM610 1567l-249 216h152l152 -131l142 131h160l-243 -216h-114z" />
    <glyph glyph-name="Zdotaccent" unicode="&#x17b;" horiz-adv-x="1256" 
d="M133 0v91l808 1217h-779v138h994v-87l-813 -1219h810v-140h-1020zM584 1695v163h163v-163h-163z" />
    <glyph glyph-name="uni1E92" unicode="&#x1e92;" horiz-adv-x="1256" 
d="M133 0v91l808 1217h-779v138h994v-87l-813 -1219h810v-140h-1020zM583 -348v163h163v-163h-163z" />
    <glyph glyph-name="a" unicode="a" horiz-adv-x="1099" 
d="M446 -20q-152 0 -245.5 78t-93.5 218q0 172 118 255t381 90l199 6v86q0 101 -61.5 161t-188.5 60q-96 0 -167 -45t-89 -142h-142q8 145 113.5 226t291.5 81q192 0 293 -84.5t101 -249.5v-720h-134l-11 199q-62 -123 -158 -171t-207 -48zM490 97q73 0 146 35t121 90
t48 116v184l-166 -3q-197 -3 -288 -56t-91 -173q0 -91 64 -142t166 -51z" />
    <glyph glyph-name="aacute" unicode="&#xe1;" horiz-adv-x="1099" 
d="M446 -20q-152 0 -245.5 78t-93.5 218q0 172 118 255t381 90l199 6v86q0 101 -61.5 161t-188.5 60q-96 0 -167 -45t-89 -142h-142q8 145 113.5 226t291.5 81q192 0 293 -84.5t101 -249.5v-720h-134l-11 199q-62 -123 -158 -171t-207 -48zM490 97q73 0 146 35t121 90
t48 116v184l-166 -3q-197 -3 -288 -56t-91 -173q0 -91 64 -142t166 -51zM489 1155l206 291h186l-268 -291h-124z" />
    <glyph glyph-name="abreve" unicode="&#x103;" horiz-adv-x="1099" 
d="M446 -20q-152 0 -245.5 78t-93.5 218q0 172 118 255t381 90l199 6v86q0 101 -61.5 161t-188.5 60q-96 0 -167 -45t-89 -142h-142q8 145 113.5 226t291.5 81q192 0 293 -84.5t101 -249.5v-720h-134l-11 199q-62 -123 -158 -171t-207 -48zM490 97q73 0 146 35t121 90
t48 116v184l-166 -3q-197 -3 -288 -56t-91 -173q0 -91 64 -142t166 -51zM561 1152q-107 0 -187 53t-101 153h120q17 -47 61 -77t107 -30q62 0 108 30t64 77h120q-22 -96 -101 -151t-191 -55z" />
    <glyph glyph-name="uni1EAF" unicode="&#x1eaf;" horiz-adv-x="1099" 
d="M446 -20q-152 0 -245.5 78t-93.5 218q0 172 118 255t381 90l199 6v86q0 101 -61.5 161t-188.5 60q-96 0 -167 -45t-89 -142h-142q8 145 113.5 226t291.5 81q192 0 293 -84.5t101 -249.5v-720h-134l-11 199q-62 -123 -158 -171t-207 -48zM490 97q73 0 146 35t121 90
t48 116v184l-166 -3q-197 -3 -288 -56t-91 -173q0 -91 64 -142t166 -51zM508 1380l145 237h158l-193 -237h-110zM565 1152q-107 0 -187 53t-101 153h120q17 -47 61 -77t107 -30q62 0 108 30t64 77h120q-22 -96 -101 -151t-191 -55z" />
    <glyph glyph-name="uni1EB7" unicode="&#x1eb7;" horiz-adv-x="1099" 
d="M446 -20q-152 0 -245.5 78t-93.5 218q0 172 118 255t381 90l199 6v86q0 101 -61.5 161t-188.5 60q-96 0 -167 -45t-89 -142h-142q8 145 113.5 226t291.5 81q192 0 293 -84.5t101 -249.5v-720h-134l-11 199q-62 -123 -158 -171t-207 -48zM490 97q73 0 146 35t121 90
t48 116v184l-166 -3q-197 -3 -288 -56t-91 -173q0 -91 64 -142t166 -51zM479 -348v163h163v-163h-163zM561 1152q-107 0 -187 53t-101 153h120q17 -47 61 -77t107 -30q62 0 108 30t64 77h120q-22 -96 -101 -151t-191 -55z" />
    <glyph glyph-name="uni1EB1" unicode="&#x1eb1;" horiz-adv-x="1099" 
d="M446 -20q-152 0 -245.5 78t-93.5 218q0 172 118 255t381 90l199 6v86q0 101 -61.5 161t-188.5 60q-96 0 -167 -45t-89 -142h-142q8 145 113.5 226t291.5 81q192 0 293 -84.5t101 -249.5v-720h-134l-11 199q-62 -123 -158 -171t-207 -48zM490 97q73 0 146 35t121 90
t48 116v184l-166 -3q-197 -3 -288 -56t-91 -173q0 -91 64 -142t166 -51zM524 1378l-207 238h159l159 -238h-111zM565 1152q-107 0 -187 53t-101 153h120q17 -47 61 -77t107 -30q62 0 108 30t64 77h120q-22 -96 -101 -151t-191 -55z" />
    <glyph glyph-name="uni1EB3" unicode="&#x1eb3;" horiz-adv-x="1099" 
d="M446 -20q-152 0 -245.5 78t-93.5 218q0 172 118 255t381 90l199 6v86q0 101 -61.5 161t-188.5 60q-96 0 -167 -45t-89 -142h-142q8 145 113.5 226t291.5 81q192 0 293 -84.5t101 -249.5v-720h-134l-11 199q-62 -123 -158 -171t-207 -48zM490 97q73 0 146 35t121 90
t48 116v184l-166 -3q-197 -3 -288 -56t-91 -173q0 -91 64 -142t166 -51zM575 1353l-50 78q43 28 62 65t-2 71t-64 32.5t-85 -29.5l-50 78q70 45 139 45q92 0 140 -72q48 -73 22 -144t-112 -124zM565 1152q-107 0 -187 53t-101 153h120q17 -47 61 -77t107 -30q62 0 108 30
t64 77h120q-22 -96 -101 -151t-191 -55z" />
    <glyph glyph-name="uni1EB5" unicode="&#x1eb5;" horiz-adv-x="1099" 
d="M446 -20q-152 0 -245.5 78t-93.5 218q0 172 118 255t381 90l199 6v86q0 101 -61.5 161t-188.5 60q-96 0 -167 -45t-89 -142h-142q8 145 113.5 226t291.5 81q192 0 293 -84.5t101 -249.5v-720h-134l-11 199q-62 -123 -158 -171t-207 -48zM490 97q73 0 146 35t121 90
t48 116v184l-166 -3q-197 -3 -288 -56t-91 -173q0 -91 64 -142t166 -51zM313 1480l-32 98q32 29 68.5 49.5t90.5 20.5q48 0 89.5 -13.5t81.5 -27t84 -13.5q43 0 73 15t60 37l31 -108q-25 -18 -64 -36t-101 -18q-53 0 -91.5 12.5t-74 25t-79.5 12.5q-49 0 -78.5 -16.5
t-57.5 -37.5zM565 1152q-107 0 -187 53t-101 153h120q17 -47 61 -77t107 -30q62 0 108 30t64 77h120q-22 -96 -101 -151t-191 -55z" />
    <glyph glyph-name="acircumflex" unicode="&#xe2;" horiz-adv-x="1099" 
d="M446 -20q-152 0 -245.5 78t-93.5 218q0 172 118 255t381 90l199 6v86q0 101 -61.5 161t-188.5 60q-96 0 -167 -45t-89 -142h-142q8 145 113.5 226t291.5 81q192 0 293 -84.5t101 -249.5v-720h-134l-11 199q-62 -123 -158 -171t-207 -48zM490 97q73 0 146 35t121 90
t48 116v184l-166 -3q-197 -3 -288 -56t-91 -173q0 -91 64 -142t166 -51zM260 1155l247 215h114l243 -215h-160l-142 127l-152 -127h-150z" />
    <glyph glyph-name="uni1EA5" unicode="&#x1ea5;" horiz-adv-x="1099" 
d="M446 -20q-152 0 -245.5 78t-93.5 218q0 172 118 255t381 90l199 6v86q0 101 -61.5 161t-188.5 60q-96 0 -167 -45t-89 -142h-142q8 145 113.5 226t291.5 81q192 0 293 -84.5t101 -249.5v-720h-134l-11 199q-62 -123 -158 -171t-207 -48zM490 97q73 0 146 35t121 90
t48 116v184l-166 -3q-197 -3 -288 -56t-91 -173q0 -91 64 -142t166 -51zM734 1370l144 237h159l-194 -237h-109zM260 1155l247 215h114l243 -215h-160l-142 127l-152 -127h-150z" />
    <glyph glyph-name="uni1EAD" unicode="&#x1ead;" horiz-adv-x="1099" 
d="M446 -20q-152 0 -245.5 78t-93.5 218q0 172 118 255t381 90l199 6v86q0 101 -61.5 161t-188.5 60q-96 0 -167 -45t-89 -142h-142q8 145 113.5 226t291.5 81q192 0 293 -84.5t101 -249.5v-720h-134l-11 199q-62 -123 -158 -171t-207 -48zM490 97q73 0 146 35t121 90
t48 116v184l-166 -3q-197 -3 -288 -56t-91 -173q0 -91 64 -142t166 -51zM479 -348v163h163v-163h-163zM260 1155l247 215h114l243 -215h-160l-142 127l-152 -127h-150z" />
    <glyph glyph-name="uni1EA7" unicode="&#x1ea7;" horiz-adv-x="1099" 
d="M446 -20q-152 0 -245.5 78t-93.5 218q0 172 118 255t381 90l199 6v86q0 101 -61.5 161t-188.5 60q-96 0 -167 -45t-89 -142h-142q8 145 113.5 226t291.5 81q192 0 293 -84.5t101 -249.5v-720h-134l-11 199q-62 -123 -158 -171t-207 -48zM490 97q73 0 146 35t121 90
t48 116v184l-166 -3q-197 -3 -288 -56t-91 -173q0 -91 64 -142t166 -51zM835 1371l-206 237h158l159 -237h-111zM260 1155l247 215h114l243 -215h-160l-142 127l-152 -127h-150z" />
    <glyph glyph-name="uni1EA9" unicode="&#x1ea9;" horiz-adv-x="1099" 
d="M446 -20q-152 0 -245.5 78t-93.5 218q0 172 118 255t381 90l199 6v86q0 101 -61.5 161t-188.5 60q-96 0 -167 -45t-89 -142h-142q8 145 113.5 226t291.5 81q192 0 293 -84.5t101 -249.5v-720h-134l-11 199q-62 -123 -158 -171t-207 -48zM490 97q73 0 146 35t121 90
t48 116v184l-166 -3q-197 -3 -288 -56t-91 -173q0 -91 64 -142t166 -51zM782 1323l-50 78q43 28 62 65t-2 71t-64 32.5t-85 -29.5l-50 78q82 53 160 43.5t119 -70.5q48 -73 22 -144t-112 -124zM264 1155l247 215h114l243 -215h-160l-142 127l-152 -127h-150z" />
    <glyph glyph-name="uni1EAB" unicode="&#x1eab;" horiz-adv-x="1099" 
d="M446 -20q-152 0 -245.5 78t-93.5 218q0 172 118 255t381 90l199 6v86q0 101 -61.5 161t-188.5 60q-96 0 -167 -45t-89 -142h-142q8 145 113.5 226t291.5 81q192 0 293 -84.5t101 -249.5v-720h-134l-11 199q-62 -123 -158 -171t-207 -48zM490 97q73 0 146 35t121 90
t48 116v184l-166 -3q-197 -3 -288 -56t-91 -173q0 -91 64 -142t166 -51zM307 1483l-32 98q32 29 68.5 49.5t90.5 20.5q48 0 89.5 -13.5t81.5 -27t84 -13.5q43 0 73 15t60 37l31 -108q-25 -18 -64 -36t-101 -18q-53 0 -91.5 12.5t-74 25t-79.5 12.5q-49 0 -78.5 -16.5
t-57.5 -37.5zM261 1155l247 215h114l243 -215h-160l-142 127l-152 -127h-150z" />
    <glyph glyph-name="uni0201" unicode="&#x201;" horiz-adv-x="1099" 
d="M446 -20q-152 0 -245.5 78t-93.5 218q0 172 118 255t381 90l199 6v86q0 101 -61.5 161t-188.5 60q-96 0 -167 -45t-89 -142h-142q8 145 113.5 226t291.5 81q192 0 293 -84.5t101 -249.5v-720h-134l-11 199q-62 -123 -158 -171t-207 -48zM490 97q73 0 146 35t121 90
t48 116v184l-166 -3q-197 -3 -288 -56t-91 -173q0 -91 64 -142t166 -51zM370 1155l-286 291h177l233 -291h-124zM629 1155l-244 291h173l195 -291h-124z" />
    <glyph glyph-name="adieresis" unicode="&#xe4;" horiz-adv-x="1099" 
d="M446 -20q-152 0 -245.5 78t-93.5 218q0 172 118 255t381 90l199 6v86q0 101 -61.5 161t-188.5 60q-96 0 -167 -45t-89 -142h-142q8 145 113.5 226t291.5 81q192 0 293 -84.5t101 -249.5v-720h-134l-11 199q-62 -123 -158 -171t-207 -48zM490 97q73 0 146 35t121 90
t48 116v184l-166 -3q-197 -3 -288 -56t-91 -173q0 -91 64 -142t166 -51zM669 1283l1 163h156l-1 -163h-156zM301 1283l1 163h156l-1 -163h-156z" />
    <glyph glyph-name="uni1EA1" unicode="&#x1ea1;" horiz-adv-x="1099" 
d="M446 -20q-152 0 -245.5 78t-93.5 218q0 172 118 255t381 90l199 6v86q0 101 -61.5 161t-188.5 60q-96 0 -167 -45t-89 -142h-142q8 145 113.5 226t291.5 81q192 0 293 -84.5t101 -249.5v-720h-134l-11 199q-62 -123 -158 -171t-207 -48zM490 97q73 0 146 35t121 90
t48 116v184l-166 -3q-197 -3 -288 -56t-91 -173q0 -91 64 -142t166 -51zM479 -348v163h163v-163h-163z" />
    <glyph glyph-name="agrave" unicode="&#xe0;" horiz-adv-x="1099" 
d="M446 -20q-152 0 -245.5 78t-93.5 218q0 172 118 255t381 90l199 6v86q0 101 -61.5 161t-188.5 60q-96 0 -167 -45t-89 -142h-142q8 145 113.5 226t291.5 81q192 0 293 -84.5t101 -249.5v-720h-134l-11 199q-62 -123 -158 -171t-207 -48zM490 97q73 0 146 35t121 90
t48 116v184l-166 -3q-197 -3 -288 -56t-91 -173q0 -91 64 -142t166 -51zM508 1155l-268 291h186l206 -291h-124z" />
    <glyph glyph-name="uni1EA3" unicode="&#x1ea3;" horiz-adv-x="1099" 
d="M446 -20q-152 0 -245.5 78t-93.5 218q0 172 118 255t381 90l199 6v86q0 101 -61.5 161t-188.5 60q-96 0 -167 -45t-89 -142h-142q8 145 113.5 226t291.5 81q192 0 293 -84.5t101 -249.5v-720h-134l-11 199q-62 -123 -158 -171t-207 -48zM490 97q73 0 146 35t121 90
t48 116v184l-166 -3q-197 -3 -288 -56t-91 -173q0 -91 64 -142t166 -51zM616 1152l-51 77q44 28 62.5 65.5t-2.5 70.5q-21 34 -64 33t-84 -29l-51 78q83 53 161 43t118 -71q49 -73 22.5 -144t-111.5 -123z" />
    <glyph glyph-name="uni0203" unicode="&#x203;" horiz-adv-x="1099" 
d="M446 -20q-152 0 -245.5 78t-93.5 218q0 172 118 255t381 90l199 6v86q0 101 -61.5 161t-188.5 60q-96 0 -167 -45t-89 -142h-142q8 145 113.5 226t291.5 81q192 0 293 -84.5t101 -249.5v-720h-134l-11 199q-62 -123 -158 -171t-207 -48zM490 97q73 0 146 35t121 90
t48 116v184l-166 -3q-197 -3 -288 -56t-91 -173q0 -91 64 -142t166 -51zM268 1215q22 100 102 153t186 53q113 0 192 -55t100 -151h-119q-18 47 -64 77.5t-109 30.5t-106.5 -30.5t-60.5 -77.5h-121z" />
    <glyph glyph-name="amacron" unicode="&#x101;" horiz-adv-x="1099" 
d="M446 -20q-152 0 -245.5 78t-93.5 218q0 172 118 255t381 90l199 6v86q0 101 -61.5 161t-188.5 60q-96 0 -167 -45t-89 -142h-142q8 145 113.5 226t291.5 81q192 0 293 -84.5t101 -249.5v-720h-134l-11 199q-62 -123 -158 -171t-207 -48zM490 97q73 0 146 35t121 90
t48 116v184l-166 -3q-197 -3 -288 -56t-91 -173q0 -91 64 -142t166 -51zM278 1243v115h568v-115h-568z" />
    <glyph glyph-name="aogonek" unicode="&#x105;" horiz-adv-x="1099" 
d="M446 -20q-152 0 -245.5 78t-93.5 218q0 172 118 255t381 90l199 6v86q0 101 -61.5 161t-188.5 60q-96 0 -167 -45t-89 -142h-142q8 145 113.5 226t291.5 81q192 0 293 -84.5t101 -249.5v-720h-134l-11 199q-62 -123 -158 -171t-207 -48zM490 97q73 0 146 35t121 90
t48 116v184l-166 -3q-197 -3 -288 -56t-91 -173q0 -91 64 -142t166 -51zM821 -328q-97 0 -145 42.5t-48 114.5q0 60 43.5 108t164.5 86l116 -14q-101 -43 -146.5 -81t-45.5 -89q0 -75 97 -75q48 0 86 12t57 23v-88q-24 -14 -73 -26.5t-106 -12.5z" />
    <glyph glyph-name="aring" unicode="&#xe5;" horiz-adv-x="1099" 
d="M446 -20q-152 0 -245.5 78t-93.5 218q0 172 118 255t381 90l199 6v86q0 101 -61.5 161t-188.5 60q-96 0 -167 -45t-89 -142h-142q8 145 113.5 226t291.5 81q192 0 293 -84.5t101 -249.5v-720h-134l-11 199q-62 -123 -158 -171t-207 -48zM490 97q73 0 146 35t121 90
t48 116v184l-166 -3q-197 -3 -288 -56t-91 -173q0 -91 64 -142t166 -51zM563 1159q-85 0 -144 59.5t-59 147.5q0 81 59.5 138.5t143.5 57.5q85 0 144.5 -58t59.5 -142q0 -86 -59.5 -144.5t-144.5 -58.5zM561 1250q45 0 76.5 33.5t31.5 77.5q0 48 -31.5 78.5t-76.5 30.5
q-44 0 -77 -30.5t-33 -78.5q0 -44 33 -77.5t77 -33.5z" />
    <glyph glyph-name="aringacute" unicode="&#x1fb;" horiz-adv-x="1099" 
d="M446 -20q-152 0 -245.5 78t-93.5 218q0 172 118 255t381 90l199 6v86q0 101 -61.5 161t-188.5 60q-96 0 -167 -45t-89 -142l-142 -1q6 114 71.5 188.5t182.5 102.5q-54 57 -54 142q0 72 47.5 124t118.5 62l31 129h129l-58 -137q58 -20 94.5 -69t36.5 -114q0 -79 -52 -134
q252 -57 252 -320v-720h-134l-11 199q-62 -123 -158 -171t-207 -48zM554 1062q45 0 77 33.5t32 77.5q0 48 -32 79t-77 31q-44 0 -77 -31t-33 -79q0 -44 33 -77.5t77 -33.5zM490 97q73 0 146 35t121 90t48 116v184l-166 -3q-197 -3 -288 -56t-91 -173q0 -91 64 -142t166 -51z
" />
    <glyph glyph-name="atilde" unicode="&#xe3;" horiz-adv-x="1099" 
d="M446 -20q-152 0 -245.5 78t-93.5 218q0 172 118 255t381 90l199 6v86q0 101 -61.5 161t-188.5 60q-96 0 -167 -45t-89 -142h-142q8 145 113.5 226t291.5 81q192 0 293 -84.5t101 -249.5v-720h-134l-11 199q-62 -123 -158 -171t-207 -48zM490 97q73 0 146 35t121 90
t48 116v184l-166 -3q-197 -3 -288 -56t-91 -173q0 -91 64 -142t166 -51zM308 1227l-31 98q32 29 68 49.5t91 20.5q47 0 88.5 -13.5t82 -27t84.5 -13.5q42 0 72.5 15t60.5 37l31 -108q-25 -18 -64.5 -36t-100.5 -18q-53 0 -92 12.5t-74.5 25t-79.5 12.5q-49 0 -78 -16.5
t-58 -37.5z" />
    <glyph glyph-name="ae" unicode="&#xe6;" horiz-adv-x="1828" 
d="M446 -20q-152 0 -245.5 78t-93.5 218q0 172 118 255t381 90l200 6v86q0 105 -69 163t-182 58q-95 0 -166.5 -47t-89.5 -140h-142q5 85 54.5 154.5t138.5 111t212 41.5q131 0 223 -49.5t131 -138.5q56 90 147 139t212 49q214 0 329.5 -136.5t115.5 -372.5v-64h-753
q0 -104 34 -189t105 -136t180 -51q105 0 181 49.5t95 140.5h150q-19 -104 -82.5 -174t-153.5 -105.5t-188 -35.5q-143 0 -252.5 65t-167.5 186q-23 -77 -85.5 -133.5t-150 -87t-186.5 -30.5zM968 592h600q0 144 -72 242t-222 98q-106 0 -174 -50.5t-100.5 -128.5t-31.5 -161
zM490 97q95 0 165 44t108.5 108.5t38.5 125.5l-1 147l-162 -3q-197 -4 -288 -56.5t-91 -172.5q0 -91 64 -142t166 -51z" />
    <glyph glyph-name="aeacute" unicode="&#x1fd;" horiz-adv-x="1828" 
d="M446 -20q-152 0 -245.5 78t-93.5 218q0 172 118 255t381 90l200 6v86q0 105 -69 163t-182 58q-95 0 -166.5 -47t-89.5 -140h-142q5 85 54.5 154.5t138.5 111t212 41.5q131 0 223 -49.5t131 -138.5q56 90 147 139t212 49q214 0 329.5 -136.5t115.5 -372.5v-64h-753
q0 -104 34 -189t105 -136t180 -51q105 0 181 49.5t95 140.5h150q-19 -104 -82.5 -174t-153.5 -105.5t-188 -35.5q-143 0 -252.5 65t-167.5 186q-23 -77 -85.5 -133.5t-150 -87t-186.5 -30.5zM968 592h600q0 144 -72 242t-222 98q-106 0 -174 -50.5t-100.5 -128.5t-31.5 -161
zM490 97q95 0 165 44t108.5 108.5t38.5 125.5l-1 147l-162 -3q-197 -4 -288 -56.5t-91 -172.5q0 -91 64 -142t166 -51zM818 1155l206 291h186l-268 -291h-124z" />
    <glyph glyph-name="b" unicode="b" horiz-adv-x="1187" 
d="M654 -20q-95 0 -159.5 25.5t-104.5 63.5t-61.5 77t-29.5 66l-16 -212h-123v1486h158v-622q14 30 55.5 75t113.5 80t177 35q194 0 310 -134t116 -399q0 -244 -108.5 -392.5t-327.5 -148.5zM629 104q134 0 218 102.5t84 324.5q0 186 -77 292t-229 106q-166 0 -235.5 -105.5
t-71.5 -292.5q0 -226 71 -326.5t240 -100.5z" />
    <glyph glyph-name="c" unicode="c" horiz-adv-x="1085" 
d="M567 -20q-208 0 -338.5 135t-130.5 399q0 161 53.5 282.5t158 189.5t257.5 68q159 0 272.5 -88.5t137.5 -245.5h-142q-15 87 -85.5 146t-181.5 59q-141 0 -230 -101t-89 -309q0 -187 81 -299.5t240 -112.5q110 0 180.5 60t85.5 144h140q-23 -154 -137.5 -240.5
t-271.5 -86.5z" />
    <glyph glyph-name="cacute" unicode="&#x107;" horiz-adv-x="1085" 
d="M567 -20q-208 0 -338.5 135t-130.5 399q0 161 53.5 282.5t158 189.5t257.5 68q159 0 272.5 -88.5t137.5 -245.5h-142q-15 87 -85.5 146t-181.5 59q-141 0 -230 -101t-89 -309q0 -187 81 -299.5t240 -112.5q110 0 180.5 60t85.5 144h140q-23 -154 -137.5 -240.5
t-271.5 -86.5zM495 1155l206 291h186l-268 -291h-124z" />
    <glyph glyph-name="ccaron" unicode="&#x10d;" horiz-adv-x="1085" 
d="M567 -20q-208 0 -338.5 135t-130.5 399q0 161 53.5 282.5t158 189.5t257.5 68q159 0 272.5 -88.5t137.5 -245.5h-142q-15 87 -85.5 146t-181.5 59q-141 0 -230 -101t-89 -309q0 -187 81 -299.5t240 -112.5q110 0 180.5 60t85.5 144h140q-23 -154 -137.5 -240.5
t-271.5 -86.5zM513 1155l-249 216h152l152 -131l142 131h160l-243 -216h-114z" />
    <glyph glyph-name="ccedilla" unicode="&#xe7;" horiz-adv-x="1085" 
d="M531 -408q-105 0 -179 49l29 72q25 -20 56.5 -33t75.5 -13q110 0 110 76q0 43 -37 65t-120 24q-16 0 -11 12l61 138q-187 16 -302.5 150t-115.5 382q0 161 53.5 282.5t158 189.5t257.5 68q159 0 272.5 -88.5t137.5 -245.5h-142q-15 87 -85.5 146t-181.5 59
q-141 0 -230 -101t-89 -309q0 -187 81 -299.5t240 -112.5q110 0 180.5 60t85.5 144h140q-22 -145 -124.5 -230t-246.5 -96l-36 -92q99 -6 136 -51t37 -94q0 -75 -62.5 -113.5t-148.5 -38.5z" />
    <glyph glyph-name="ccircumflex" unicode="&#x109;" horiz-adv-x="1085" 
d="M567 -20q-208 0 -338.5 135t-130.5 399q0 161 53.5 282.5t158 189.5t257.5 68q159 0 272.5 -88.5t137.5 -245.5h-142q-15 87 -85.5 146t-181.5 59q-141 0 -230 -101t-89 -309q0 -187 81 -299.5t240 -112.5q110 0 180.5 60t85.5 144h140q-23 -154 -137.5 -240.5
t-271.5 -86.5zM266 1155l247 215h114l243 -215h-160l-142 127l-152 -127h-150z" />
    <glyph glyph-name="cdotaccent" unicode="&#x10b;" horiz-adv-x="1085" 
d="M567 -20q-208 0 -338.5 135t-130.5 399q0 161 53.5 282.5t158 189.5t257.5 68q159 0 272.5 -88.5t137.5 -245.5h-142q-15 87 -85.5 146t-181.5 59q-141 0 -230 -101t-89 -309q0 -187 81 -299.5t240 -112.5q110 0 180.5 60t85.5 144h140q-23 -154 -137.5 -240.5
t-271.5 -86.5zM487 1283v163h163v-163h-163z" />
    <glyph glyph-name="d" unicode="d" horiz-adv-x="1187" 
d="M533 -20q-200 0 -317.5 136.5t-117.5 404.5q0 241 106 387t319 146q105 0 177 -35t113.5 -80t56.5 -75v622h157v-1486h-123l-16 212q-8 -27 -29.5 -66t-61.5 -77t-104.5 -63.5t-159.5 -25.5zM558 104q169 0 240.5 100.5t71.5 326.5q-3 187 -72.5 292.5t-235.5 105.5
q-136 0 -221 -96t-85 -302q0 -200 76 -313.5t226 -113.5z" />
    <glyph glyph-name="eth" unicode="&#xf0;" horiz-adv-x="1126" 
d="M563 -20q-157 0 -260 70t-154 190t-51 269q0 163 55 283t158.5 186t247.5 66q127 0 220 -55q-27 68 -63.5 129t-78.5 114l-272 -83l-27 88l235 71q-49 54 -96.5 97t-88.5 75h154q38 -28 77 -62t76 -72l250 76l26 -88l-208 -64q112 -135 189 -320.5t77 -423.5
q0 -158 -50.5 -281.5t-153.5 -194t-262 -70.5zM566 106q108 0 176 54t99.5 146t31.5 207q0 196 -79 301.5t-225 105.5q-160 0 -237.5 -112.5t-77.5 -294.5q0 -110 30 -202.5t98.5 -148.5t183.5 -56z" />
    <glyph glyph-name="dcaron" unicode="&#x10f;" horiz-adv-x="1171" 
d="M533 -20q-200 0 -317.5 136.5t-117.5 404.5q0 241 106 387t319 146q105 0 177 -35t113.5 -80t56.5 -75v622h157v-1486h-123l-16 212q-8 -27 -29.5 -66t-61.5 -77t-104.5 -63.5t-159.5 -25.5zM558 104q169 0 240.5 100.5t71.5 326.5q-3 187 -72.5 292.5t-235.5 105.5
q-136 0 -221 -96t-85 -302q0 -200 76 -313.5t226 -113.5zM1134 1111l75 179l-50 10v186h140v-195l-77 -180h-88z" />
    <glyph glyph-name="dcroat" unicode="&#x111;" horiz-adv-x="1222" 
d="M533 -20q-200 0 -317.5 136.5t-117.5 404.5q0 241 106 387t319 146q105 0 177 -35t113.5 -80t56.5 -75v336h-310v103h310v183h157v-183h135v-103h-135v-1200h-123l-16 212q-8 -27 -29.5 -66t-61.5 -77t-104.5 -63.5t-159.5 -25.5zM558 104q169 0 240.5 100.5t71.5 326.5
q-3 187 -72.5 292.5t-235.5 105.5q-136 0 -221 -96t-85 -302q0 -200 76 -313.5t226 -113.5z" />
    <glyph glyph-name="uni1E0D" unicode="&#x1e0d;" horiz-adv-x="1187" 
d="M533 -20q-200 0 -317.5 136.5t-117.5 404.5q0 241 106 387t319 146q105 0 177 -35t113.5 -80t56.5 -75v622h157v-1486h-123l-16 212q-8 -27 -29.5 -66t-61.5 -77t-104.5 -63.5t-159.5 -25.5zM558 104q169 0 240.5 100.5t71.5 326.5q-3 187 -72.5 292.5t-235.5 105.5
q-136 0 -221 -96t-85 -302q0 -200 76 -313.5t226 -113.5zM464 -348v163h163v-163h-163z" />
    <glyph glyph-name="e" unicode="e" horiz-adv-x="1128" 
d="M588 -20q-143 0 -251 62.5t-169 180.5t-61 284q0 165 55 288t159.5 191t253.5 68q213 0 329 -136.5t116 -372.5v-64h-753q-1 -104 33.5 -189t105.5 -136t179 -51q106 0 182 49.5t95 140.5h150q-20 -104 -83 -174t-153 -105.5t-188 -35.5zM268 592h600q0 144 -72.5 242
t-222.5 98q-105 0 -173 -50.5t-100.5 -128.5t-31.5 -161z" />
    <glyph glyph-name="eacute" unicode="&#xe9;" horiz-adv-x="1128" 
d="M588 -20q-143 0 -251 62.5t-169 180.5t-61 284q0 165 55 288t159.5 191t253.5 68q213 0 329 -136.5t116 -372.5v-64h-753q-1 -104 33.5 -189t105.5 -136t179 -51q106 0 182 49.5t95 140.5h150q-20 -104 -83 -174t-153 -105.5t-188 -35.5zM268 592h600q0 144 -72.5 242
t-222.5 98q-105 0 -173 -50.5t-100.5 -128.5t-31.5 -161zM502 1155l206 291h186l-268 -291h-124z" />
    <glyph glyph-name="ebreve" unicode="&#x115;" horiz-adv-x="1128" 
d="M588 -20q-143 0 -251 62.5t-169 180.5t-61 284q0 165 55 288t159.5 191t253.5 68q213 0 329 -136.5t116 -372.5v-64h-753q-1 -104 33.5 -189t105.5 -136t179 -51q106 0 182 49.5t95 140.5h150q-20 -104 -83 -174t-153 -105.5t-188 -35.5zM268 592h600q0 144 -72.5 242
t-222.5 98q-105 0 -173 -50.5t-100.5 -128.5t-31.5 -161zM573 1152q-107 0 -187 53t-101 153h120q17 -47 61 -77t107 -30q62 0 108 30t64 77h120q-22 -96 -101 -151t-191 -55z" />
    <glyph glyph-name="ecaron" unicode="&#x11b;" horiz-adv-x="1123" 
d="M588 -20q-143 0 -251 62.5t-169 180.5t-61 284q0 165 55 288t159.5 191t253.5 68q213 0 329 -136.5t116 -372.5v-64h-753q-1 -104 33.5 -189t105.5 -136t179 -51q106 0 182 49.5t95 140.5h150q-20 -104 -83 -174t-153 -105.5t-188 -35.5zM268 592h600q0 144 -72.5 242
t-222.5 98q-105 0 -173 -50.5t-100.5 -128.5t-31.5 -161zM516 1155l-249 216h152l152 -131l142 131h160l-243 -216h-114z" />
    <glyph glyph-name="ecircumflex" unicode="&#xea;" horiz-adv-x="1128" 
d="M588 -20q-143 0 -251 62.5t-169 180.5t-61 284q0 165 55 288t159.5 191t253.5 68q213 0 329 -136.5t116 -372.5v-64h-753q-1 -104 33.5 -189t105.5 -136t179 -51q106 0 182 49.5t95 140.5h150q-20 -104 -83 -174t-153 -105.5t-188 -35.5zM268 592h600q0 144 -72.5 242
t-222.5 98q-105 0 -173 -50.5t-100.5 -128.5t-31.5 -161zM273 1155l247 215h114l243 -215h-160l-142 127l-152 -127h-150z" />
    <glyph glyph-name="uni1EBF" unicode="&#x1ebf;" horiz-adv-x="1128" 
d="M588 -20q-143 0 -251 62.5t-169 180.5t-61 284q0 165 55 288t159.5 191t253.5 68q213 0 329 -136.5t116 -372.5v-64h-753q-1 -104 33.5 -189t105.5 -136t179 -51q106 0 182 49.5t95 140.5h150q-20 -104 -83 -174t-153 -105.5t-188 -35.5zM268 592h600q0 144 -72.5 242
t-222.5 98q-105 0 -173 -50.5t-100.5 -128.5t-31.5 -161zM747 1370l144 237h159l-194 -237h-109zM273 1155l247 215h114l243 -215h-160l-142 127l-152 -127h-150z" />
    <glyph glyph-name="uni1EC7" unicode="&#x1ec7;" horiz-adv-x="1128" 
d="M588 -20q-143 0 -251 62.5t-169 180.5t-61 284q0 165 55 288t159.5 191t253.5 68q213 0 329 -136.5t116 -372.5v-64h-753q-1 -104 33.5 -189t105.5 -136t179 -51q106 0 182 49.5t95 140.5h150q-20 -104 -83 -174t-153 -105.5t-188 -35.5zM268 592h600q0 144 -72.5 242
t-222.5 98q-105 0 -173 -50.5t-100.5 -128.5t-31.5 -161zM494 -348v163h163v-163h-163zM273 1155l247 215h114l243 -215h-160l-142 127l-152 -127h-150z" />
    <glyph glyph-name="uni1EC1" unicode="&#x1ec1;" horiz-adv-x="1128" 
d="M588 -20q-143 0 -251 62.5t-169 180.5t-61 284q0 165 55 288t159.5 191t253.5 68q213 0 329 -136.5t116 -372.5v-64h-753q-1 -104 33.5 -189t105.5 -136t179 -51q106 0 182 49.5t95 140.5h150q-20 -104 -83 -174t-153 -105.5t-188 -35.5zM268 592h600q0 144 -72.5 242
t-222.5 98q-105 0 -173 -50.5t-100.5 -128.5t-31.5 -161zM848 1371l-206 237h158l159 -237h-111zM273 1155l247 215h114l243 -215h-160l-142 127l-152 -127h-150z" />
    <glyph glyph-name="uni1EC3" unicode="&#x1ec3;" horiz-adv-x="1128" 
d="M588 -20q-143 0 -251 62.5t-169 180.5t-61 284q0 165 55 288t159.5 191t253.5 68q213 0 329 -136.5t116 -372.5v-64h-753q-1 -104 33.5 -189t105.5 -136t179 -51q106 0 182 49.5t95 140.5h150q-20 -104 -83 -174t-153 -105.5t-188 -35.5zM268 592h600q0 144 -72.5 242
t-222.5 98q-105 0 -173 -50.5t-100.5 -128.5t-31.5 -161zM795 1323l-50 78q43 28 62 65t-2 71t-64 32.5t-85 -29.5l-50 78q82 53 160 43.5t119 -70.5q48 -73 22 -144t-112 -124zM277 1155l247 215h114l243 -215h-160l-142 127l-152 -127h-150z" />
    <glyph glyph-name="uni1EC5" unicode="&#x1ec5;" horiz-adv-x="1128" 
d="M588 -20q-143 0 -251 62.5t-169 180.5t-61 284q0 165 55 288t159.5 191t253.5 68q213 0 329 -136.5t116 -372.5v-64h-753q-1 -104 33.5 -189t105.5 -136t179 -51q106 0 182 49.5t95 140.5h150q-20 -104 -83 -174t-153 -105.5t-188 -35.5zM268 592h600q0 144 -72.5 242
t-222.5 98q-105 0 -173 -50.5t-100.5 -128.5t-31.5 -161zM320 1483l-32 98q32 29 68.5 49.5t90.5 20.5q48 0 89.5 -13.5t81.5 -27t84 -13.5q43 0 73 15t60 37l31 -108q-25 -18 -64 -36t-101 -18q-53 0 -91.5 12.5t-74 25t-79.5 12.5q-49 0 -78.5 -16.5t-57.5 -37.5z
M274 1155l247 215h114l243 -215h-160l-142 127l-152 -127h-150z" />
    <glyph glyph-name="uni0205" unicode="&#x205;" horiz-adv-x="1128" 
d="M588 -20q-143 0 -251 62.5t-169 180.5t-61 284q0 165 55 288t159.5 191t253.5 68q213 0 329 -136.5t116 -372.5v-64h-753q-1 -104 33.5 -189t105.5 -136t179 -51q106 0 182 49.5t95 140.5h150q-20 -104 -83 -174t-153 -105.5t-188 -35.5zM268 592h600q0 144 -72.5 242
t-222.5 98q-105 0 -173 -50.5t-100.5 -128.5t-31.5 -161zM383 1155l-286 291h177l233 -291h-124zM642 1155l-244 291h173l195 -291h-124z" />
    <glyph glyph-name="edieresis" unicode="&#xeb;" horiz-adv-x="1128" 
d="M588 -20q-143 0 -251 62.5t-169 180.5t-61 284q0 165 55 288t159.5 191t253.5 68q213 0 329 -136.5t116 -372.5v-64h-753q-1 -104 33.5 -189t105.5 -136t179 -51q106 0 182 49.5t95 140.5h150q-20 -104 -83 -174t-153 -105.5t-188 -35.5zM268 592h600q0 144 -72.5 242
t-222.5 98q-105 0 -173 -50.5t-100.5 -128.5t-31.5 -161zM681 1283l1 163h156l-1 -163h-156zM313 1283l1 163h156l-1 -163h-156z" />
    <glyph glyph-name="edotaccent" unicode="&#x117;" horiz-adv-x="1128" 
d="M588 -20q-143 0 -251 62.5t-169 180.5t-61 284q0 165 55 288t159.5 191t253.5 68q213 0 329 -136.5t116 -372.5v-64h-753q-1 -104 33.5 -189t105.5 -136t179 -51q106 0 182 49.5t95 140.5h150q-20 -104 -83 -174t-153 -105.5t-188 -35.5zM268 592h600q0 144 -72.5 242
t-222.5 98q-105 0 -173 -50.5t-100.5 -128.5t-31.5 -161zM494 1283v163h163v-163h-163z" />
    <glyph glyph-name="uni1EB9" unicode="&#x1eb9;" horiz-adv-x="1128" 
d="M588 -20q-143 0 -251 62.5t-169 180.5t-61 284q0 165 55 288t159.5 191t253.5 68q213 0 329 -136.5t116 -372.5v-64h-753q-1 -104 33.5 -189t105.5 -136t179 -51q106 0 182 49.5t95 140.5h150q-20 -104 -83 -174t-153 -105.5t-188 -35.5zM268 592h600q0 144 -72.5 242
t-222.5 98q-105 0 -173 -50.5t-100.5 -128.5t-31.5 -161zM494 -348v163h163v-163h-163z" />
    <glyph glyph-name="egrave" unicode="&#xe8;" horiz-adv-x="1128" 
d="M588 -20q-143 0 -251 62.5t-169 180.5t-61 284q0 165 55 288t159.5 191t253.5 68q213 0 329 -136.5t116 -372.5v-64h-753q-1 -104 33.5 -189t105.5 -136t179 -51q106 0 182 49.5t95 140.5h150q-20 -104 -83 -174t-153 -105.5t-188 -35.5zM268 592h600q0 144 -72.5 242
t-222.5 98q-105 0 -173 -50.5t-100.5 -128.5t-31.5 -161zM520 1155l-268 291h186l206 -291h-124z" />
    <glyph glyph-name="uni1EBB" unicode="&#x1ebb;" horiz-adv-x="1128" 
d="M588 -20q-143 0 -251 62.5t-169 180.5t-61 284q0 165 55 288t159.5 191t253.5 68q213 0 329 -136.5t116 -372.5v-64h-753q-1 -104 33.5 -189t105.5 -136t179 -51q106 0 182 49.5t95 140.5h150q-20 -104 -83 -174t-153 -105.5t-188 -35.5zM268 592h600q0 144 -72.5 242
t-222.5 98q-105 0 -173 -50.5t-100.5 -128.5t-31.5 -161zM629 1152l-51 77q44 28 62.5 65.5t-2.5 70.5q-21 34 -64 33t-84 -29l-51 78q83 53 161 43t118 -71q49 -73 22.5 -144t-111.5 -123z" />
    <glyph glyph-name="uni0207" unicode="&#x207;" horiz-adv-x="1128" 
d="M588 -20q-143 0 -251 62.5t-169 180.5t-61 284q0 165 55 288t159.5 191t253.5 68q213 0 329 -136.5t116 -372.5v-64h-753q-1 -104 33.5 -189t105.5 -136t179 -51q106 0 182 49.5t95 140.5h150q-20 -104 -83 -174t-153 -105.5t-188 -35.5zM268 592h600q0 144 -72.5 242
t-222.5 98q-105 0 -173 -50.5t-100.5 -128.5t-31.5 -161zM280 1215q22 100 102 153t186 53q113 0 192 -55t100 -151h-119q-18 47 -64 77.5t-109 30.5t-106.5 -30.5t-60.5 -77.5h-121z" />
    <glyph glyph-name="emacron" unicode="&#x113;" horiz-adv-x="1128" 
d="M588 -20q-143 0 -251 62.5t-169 180.5t-61 284q0 165 55 288t159.5 191t253.5 68q213 0 329 -136.5t116 -372.5v-64h-753q-1 -104 33.5 -189t105.5 -136t179 -51q106 0 182 49.5t95 140.5h150q-20 -104 -83 -174t-153 -105.5t-188 -35.5zM268 592h600q0 144 -72.5 242
t-222.5 98q-105 0 -173 -50.5t-100.5 -128.5t-31.5 -161zM291 1243v115h568v-115h-568z" />
    <glyph glyph-name="eogonek" unicode="&#x119;" horiz-adv-x="1128" 
d="M666 -314q-96 0 -144 42.5t-48 113.5q0 40 18 75t64 65q-134 6 -235 70t-157.5 179.5t-56.5 275.5q0 165 55 288t159.5 191t253.5 68q213 0 329 -136.5t116 -372.5v-64h-753q-1 -104 33.5 -189t105.5 -136t179 -51q106 0 182 49.5t95 140.5h150q-20 -103 -82 -169
t-154 -110q-87 -40 -129 -77.5t-42 -85.5q0 -76 98 -76q48 0 86 12t57 23v-87q-25 -14 -74 -26.5t-106 -12.5zM268 592h600q0 144 -72.5 242t-222.5 98q-105 0 -173 -50.5t-100.5 -128.5t-31.5 -161z" />
    <glyph glyph-name="uni1EBD" unicode="&#x1ebd;" horiz-adv-x="1128" 
d="M588 -20q-143 0 -251 62.5t-169 180.5t-61 284q0 165 55 288t159.5 191t253.5 68q213 0 329 -136.5t116 -372.5v-64h-753q-1 -104 33.5 -189t105.5 -136t179 -51q106 0 182 49.5t95 140.5h150q-20 -104 -83 -174t-153 -105.5t-188 -35.5zM268 592h600q0 144 -72.5 242
t-222.5 98q-105 0 -173 -50.5t-100.5 -128.5t-31.5 -161zM320 1227l-31 98q32 29 68 49.5t91 20.5q47 0 88.5 -13.5t82 -27t84.5 -13.5q42 0 72.5 15t60.5 37l31 -108q-25 -18 -64.5 -36t-100.5 -18q-53 0 -92 12.5t-74.5 25t-79.5 12.5q-49 0 -78 -16.5t-58 -37.5z" />
    <glyph glyph-name="uni0259" unicode="&#x259;" horiz-adv-x="1128" 
d="M553 -20q-213 0 -329 136.5t-116 372.5v65h754q0 103 -34.5 188t-105 136t-179.5 51q-106 0 -181.5 -49t-95.5 -141h-150q20 104 83 174t153 105.5t188 35.5q143 0 251 -62.5t169 -180.5t61 -284q0 -165 -55 -288t-159.5 -191t-253.5 -68zM555 103q105 0 173 50.5
t100.5 128.5t32.5 160h-601q0 -144 72.5 -241.5t222.5 -97.5z" />
    <glyph glyph-name="f" unicode="f" horiz-adv-x="792" 
d="M304 0v917h-226v117h226v164q0 248 243 248h183v-114h-159q-66 0 -89.5 -35.5t-23.5 -106.5v-156h262v-117h-260v-917h-156z" />
    <glyph glyph-name="g" unicode="g" horiz-adv-x="1242" 
d="M587 -342q-235 0 -369 70.5t-134 206.5q0 56 26 97t61.5 68t66 43.5t40.5 24.5q-27 16 -64 42t-37 82q0 47 44 86t131 60q-88 45 -138.5 119.5t-50.5 164.5q0 150 114.5 239t324.5 89q100 0 168.5 -23.5t128.5 -68.5q14 6 48 20.5t74.5 31.5t76.5 31.5t54 22.5l-1 -156
l-182 -36q38 -74 38 -149q0 -139 -104.5 -231t-316.5 -92h-26t-25 1q-120 -3 -164 -26.5t-44 -49.5q0 -30 44.5 -42.5t157.5 -20.5q40 -3 97.5 -6t129.5 -7q154 -10 241 -80.5t87 -195.5q0 -140 -123 -227.5t-374 -87.5zM590 506q120 0 193.5 54t73.5 162q0 111 -73.5 168
t-193.5 57q-122 0 -196.5 -57.5t-74.5 -167.5q0 -104 70.5 -160t200.5 -56zM615 -235q149 0 232 46.5t83 141.5q0 66 -49 108.5t-148 49.5l-305 19q-37 2 -81 -20.5t-75.5 -63.5t-31.5 -93q0 -88 91.5 -138t283.5 -50z" />
    <glyph glyph-name="gbreve" unicode="&#x11f;" horiz-adv-x="1242" 
d="M587 -342q-235 0 -369 70.5t-134 206.5q0 56 26 97t61.5 68t66 43.5t40.5 24.5q-27 16 -64 42t-37 82q0 47 44 86t131 60q-88 45 -138.5 119.5t-50.5 164.5q0 150 114.5 239t324.5 89q100 0 168.5 -23.5t128.5 -68.5q14 6 48 20.5t74.5 31.5t76.5 31.5t54 22.5l-1 -156
l-182 -36q38 -74 38 -149q0 -139 -104.5 -231t-316.5 -92h-26t-25 1q-120 -3 -164 -26.5t-44 -49.5q0 -30 44.5 -42.5t157.5 -20.5q40 -3 97.5 -6t129.5 -7q154 -10 241 -80.5t87 -195.5q0 -140 -123 -227.5t-374 -87.5zM590 506q120 0 193.5 54t73.5 162q0 111 -73.5 168
t-193.5 57q-122 0 -196.5 -57.5t-74.5 -167.5q0 -104 70.5 -160t200.5 -56zM615 -235q149 0 232 46.5t83 141.5q0 66 -49 108.5t-148 49.5l-305 19q-37 2 -81 -20.5t-75.5 -63.5t-31.5 -93q0 -88 91.5 -138t283.5 -50zM596 1152q-107 0 -187 53t-101 153h120q17 -47 61 -77
t107 -30q62 0 108 30t64 77h120q-22 -96 -101 -151t-191 -55z" />
    <glyph glyph-name="gcircumflex" unicode="&#x11d;" horiz-adv-x="1242" 
d="M587 -342q-235 0 -369 70.5t-134 206.5q0 56 26 97t61.5 68t66 43.5t40.5 24.5q-27 16 -64 42t-37 82q0 47 44 86t131 60q-88 45 -138.5 119.5t-50.5 164.5q0 150 114.5 239t324.5 89q100 0 168.5 -23.5t128.5 -68.5q14 6 48 20.5t74.5 31.5t76.5 31.5t54 22.5l-1 -156
l-182 -36q38 -74 38 -149q0 -139 -104.5 -231t-316.5 -92h-26t-25 1q-120 -3 -164 -26.5t-44 -49.5q0 -30 44.5 -42.5t157.5 -20.5q40 -3 97.5 -6t129.5 -7q154 -10 241 -80.5t87 -195.5q0 -140 -123 -227.5t-374 -87.5zM590 506q120 0 193.5 54t73.5 162q0 111 -73.5 168
t-193.5 57q-122 0 -196.5 -57.5t-74.5 -167.5q0 -104 70.5 -160t200.5 -56zM615 -235q149 0 232 46.5t83 141.5q0 66 -49 108.5t-148 49.5l-305 19q-37 2 -81 -20.5t-75.5 -63.5t-31.5 -93q0 -88 91.5 -138t283.5 -50zM296 1155l247 215h114l243 -215h-160l-142 127
l-152 -127h-150z" />
    <glyph glyph-name="uni0123" unicode="&#x123;" horiz-adv-x="1242" 
d="M587 -342q-235 0 -369 70.5t-134 206.5q0 56 26 97t61.5 68t66 43.5t40.5 24.5q-27 16 -64 42t-37 82q0 47 44 86t131 60q-88 45 -138.5 119.5t-50.5 164.5q0 150 114.5 239t324.5 89q100 0 168.5 -23.5t128.5 -68.5q14 6 48 20.5t74.5 31.5t76.5 31.5t54 22.5l-1 -156
l-182 -36q38 -74 38 -149q0 -139 -104.5 -231t-316.5 -92h-26t-25 1q-120 -3 -164 -26.5t-44 -49.5q0 -30 44.5 -42.5t157.5 -20.5q40 -3 97.5 -6t129.5 -7q154 -10 241 -80.5t87 -195.5q0 -140 -123 -227.5t-374 -87.5zM590 506q120 0 193.5 54t73.5 162q0 111 -73.5 168
t-193.5 57q-122 0 -196.5 -57.5t-74.5 -167.5q0 -104 70.5 -160t200.5 -56zM615 -235q149 0 232 46.5t83 141.5q0 66 -49 108.5t-148 49.5l-305 19q-37 2 -81 -20.5t-75.5 -63.5t-31.5 -93q0 -88 91.5 -138t283.5 -50zM516 1155v173l96 153h79l-73 -146l58 -4v-176h-160z
" />
    <glyph glyph-name="gdotaccent" unicode="&#x121;" horiz-adv-x="1242" 
d="M587 -342q-235 0 -369 70.5t-134 206.5q0 56 26 97t61.5 68t66 43.5t40.5 24.5q-27 16 -64 42t-37 82q0 47 44 86t131 60q-88 45 -138.5 119.5t-50.5 164.5q0 150 114.5 239t324.5 89q100 0 168.5 -23.5t128.5 -68.5q14 6 48 20.5t74.5 31.5t76.5 31.5t54 22.5l-1 -156
l-182 -36q38 -74 38 -149q0 -139 -104.5 -231t-316.5 -92h-26t-25 1q-120 -3 -164 -26.5t-44 -49.5q0 -30 44.5 -42.5t157.5 -20.5q40 -3 97.5 -6t129.5 -7q154 -10 241 -80.5t87 -195.5q0 -140 -123 -227.5t-374 -87.5zM590 506q120 0 193.5 54t73.5 162q0 111 -73.5 168
t-193.5 57q-122 0 -196.5 -57.5t-74.5 -167.5q0 -104 70.5 -160t200.5 -56zM615 -235q149 0 232 46.5t83 141.5q0 66 -49 108.5t-148 49.5l-305 19q-37 2 -81 -20.5t-75.5 -63.5t-31.5 -93q0 -88 91.5 -138t283.5 -50zM517 1283v163h163v-163h-163z" />
    <glyph glyph-name="h" unicode="h" horiz-adv-x="1145" 
d="M160 0v1486h151v-604q40 66 122.5 116.5t207.5 50.5q102 0 183.5 -37.5t129.5 -105t48 -159.5v-747h-156v712q0 98 -67 152.5t-177 54.5q-76 0 -141 -24.5t-105 -73t-40 -123.5v-698h-156z" />
    <glyph glyph-name="hbar" unicode="&#x127;" horiz-adv-x="1161" 
d="M177 0v1200h-137v103h137v183h151v-183h316v-103h-316v-318q39 66 122 116.5t208 50.5q101 0 183 -37.5t130 -105t48 -159.5v-747h-156v712q0 98 -67.5 152.5t-176.5 54.5q-76 0 -141.5 -24.5t-105.5 -73t-40 -123.5v-698h-155z" />
    <glyph glyph-name="hcircumflex" unicode="&#x125;" horiz-adv-x="1145" 
d="M160 0v1486h151v-604q40 66 122.5 116.5t207.5 50.5q102 0 183.5 -37.5t129.5 -105t48 -159.5v-747h-156v712q0 98 -67 152.5t-177 54.5q-76 0 -141 -24.5t-105 -73t-40 -123.5v-698h-156zM-68 1567l247 215h114l243 -215h-160l-142 127l-152 -127h-150z" />
    <glyph glyph-name="uni1E25" unicode="&#x1e25;" horiz-adv-x="1145" 
d="M160 0v1486h151v-604q40 66 122.5 116.5t207.5 50.5q102 0 183.5 -37.5t129.5 -105t48 -159.5v-747h-156v712q0 98 -67 152.5t-177 54.5q-76 0 -141 -24.5t-105 -73t-40 -123.5v-698h-156zM516 -348v163h163v-163h-163z" />
    <glyph glyph-name="i" unicode="i" horiz-adv-x="484" 
d="M160 1273v172h164v-172h-164zM167 0v1034h152v-1034h-152z" />
    <glyph glyph-name="dotlessi" unicode="&#x131;" horiz-adv-x="471" 
d="M160 0v1034h151v-1034h-151z" />
    <glyph glyph-name="iacute" unicode="&#xed;" horiz-adv-x="471" 
d="M160 0v1034h151v-1034h-151zM292 1155l-115 1l136 290h180z" />
    <glyph glyph-name="ibreve" unicode="&#x12d;" horiz-adv-x="471" 
d="M160 0v1034h151v-1034h-151zM235 1152q-107 0 -187 53t-101 153h120q17 -47 61 -77t107 -30q62 0 108 30t64 77h120q-22 -96 -101 -151t-191 -55z" />
    <glyph glyph-name="icircumflex" unicode="&#xee;" horiz-adv-x="471" 
d="M160 0v1034h151v-1034h-151zM-66 1155l247 215h114l243 -215h-160l-142 127l-152 -127h-150z" />
    <glyph glyph-name="uni0209" unicode="&#x209;" horiz-adv-x="471" 
d="M160 0v1034h151v-1034h-151zM44 1155l-286 291h177l233 -291h-124zM303 1155l-244 291h173l195 -291h-124z" />
    <glyph glyph-name="idieresis" unicode="&#xef;" horiz-adv-x="558" 
d="M201 0v1034h151v-1034h-151zM384 1282l1 163h156l-1 -163h-156zM16 1282l1 163h156l-1 -163h-156z" />
    <glyph glyph-name="i.loclTRK" horiz-adv-x="471" 
d="M160 0v1034h151v-1034h-151zM155 1283v163h163v-163h-163z" />
    <glyph glyph-name="uni1ECB" unicode="&#x1ecb;" horiz-adv-x="484" 
d="M160 1273v172h164v-172h-164zM167 0v1034h152v-1034h-152zM161 -348v163h163v-163h-163z" />
    <glyph glyph-name="igrave" unicode="&#xec;" horiz-adv-x="471" 
d="M160 0v1034h151v-1034h-151zM181 1155l-201 291h180l136 -290z" />
    <glyph glyph-name="uni1EC9" unicode="&#x1ec9;" horiz-adv-x="471" 
d="M160 0v1034h151v-1034h-151zM290 1152l-51 77q44 28 62.5 65.5t-2.5 70.5q-21 34 -64 33t-84 -29l-51 78q83 53 161 43t118 -71q49 -73 22.5 -144t-111.5 -123z" />
    <glyph glyph-name="uni020B" unicode="&#x20b;" horiz-adv-x="531" 
d="M188 0v1034h151v-1034h-151zM-30 1215q22 100 102 153t186 53q113 0 192 -55t100 -151h-119q-18 47 -64 77.5t-109 30.5t-106.5 -30.5t-60.5 -77.5h-121z" />
    <glyph glyph-name="imacron" unicode="&#x12b;" horiz-adv-x="534" 
d="M190 0v1034h151v-1034h-151zM-18 1243v115h568v-115h-568z" />
    <glyph glyph-name="iogonek" unicode="&#x12f;" horiz-adv-x="471" 
d="M160 0v1034h151v-1034h-151zM155 1283v163h163v-163h-163zM179 -330q-97 0 -145 42.5t-48 114.5q0 60 43.5 108t164.5 86l116 -14q-101 -43 -146.5 -81t-45.5 -89q0 -75 97 -75q48 0 86 12t57 23v-88q-24 -14 -73 -26.5t-106 -12.5z" />
    <glyph glyph-name="itilde" unicode="&#x129;" horiz-adv-x="526" 
d="M184 0v1034h151v-1034h-151zM6 1227l-31 98q32 29 68 49.5t91 20.5q47 0 88.5 -13.5t82 -27t84.5 -13.5q42 0 72.5 15t60.5 37l31 -108q-25 -18 -64.5 -36t-100.5 -18q-53 0 -92 12.5t-74.5 25t-79.5 12.5q-49 0 -78 -16.5t-58 -37.5z" />
    <glyph glyph-name="j" unicode="j" horiz-adv-x="511" 
d="M182 1273v172h169v-172h-169zM79 -332q-86 0 -107 11l-21 11l-1 104l108 4q72 4 101.5 37.5t29.5 111.5v1087h156v-1095q0 -138 -57.5 -204.5t-208.5 -66.5z" />
    <glyph glyph-name="uni0237" unicode="&#x237;" horiz-adv-x="506" 
d="M80 -332q-86 0 -107.5 6.5t-21.5 15.5l-1 104l109 4q71 4 101.5 37.5t30.5 111.5v1087h155v-1095q0 -138 -58 -204.5t-208 -66.5z" />
    <glyph glyph-name="jcircumflex" unicode="&#x135;" horiz-adv-x="506" 
d="M80 -332q-86 0 -107.5 6.5t-21.5 15.5l-1 104l109 4q71 4 101.5 37.5t30.5 111.5v1087h155v-1095q0 -138 -58 -204.5t-208 -66.5zM-35 1155l247 215h114l243 -215h-160l-142 127l-152 -127h-150z" />
    <glyph glyph-name="k" unicode="k" horiz-adv-x="1113" 
d="M160 0v1486h155v-993l515 541h184l-372 -389l401 -645h-169l-336 539l-223 -229v-310h-155z" />
    <glyph glyph-name="uni0137" unicode="&#x137;" horiz-adv-x="1113" 
d="M160 0v1486h155v-993l515 541h184l-372 -389l401 -645h-169l-336 539l-223 -229v-310h-155zM448 -364l79 118l-58 3v145h171v-122l-123 -144h-69z" />
    <glyph glyph-name="kgreenlandic" unicode="&#x138;" horiz-adv-x="1129" 
d="M160 0v1034h155v-552l530 552h178l-360 -365l396 -669h-185l-320 550l-239 -240v-310h-155z" />
    <glyph glyph-name="l" unicode="l" horiz-adv-x="592" 
d="M402 -11q-100 0 -152 37.5t-71 99t-19 134.5v1226h154v-1213q0 -85 32 -124.5t84 -42.5l58 -1v-102q-45 -14 -86 -14z" />
    <glyph glyph-name="lacute" unicode="&#x13a;" horiz-adv-x="592" 
d="M402 -11q-100 0 -152 37.5t-71 99t-19 134.5v1226h154v-1213q0 -85 32 -124.5t84 -42.5l58 -1v-102q-45 -14 -86 -14zM159 1647l206 291h186l-268 -291h-124z" />
    <glyph glyph-name="lcaron" unicode="&#x13e;" horiz-adv-x="592" 
d="M402 -11q-100 0 -152 37.5t-71 99t-19 134.5v1226h154v-1213q0 -85 32 -124.5t84 -42.5l58 -1v-102q-45 -14 -86 -14zM421 1111l75 179l-50 10v186h140v-195l-77 -180h-88z" />
    <glyph glyph-name="uni013C" unicode="&#x13c;" horiz-adv-x="592" 
d="M402 -11q-100 0 -152 37.5t-71 99t-19 134.5v1226h154v-1213q0 -85 32 -124.5t84 -42.5l58 -1v-102q-45 -14 -86 -14zM158 -362l79 118l-58 3v145h171v-122l-123 -144h-69z" />
    <glyph glyph-name="ldot" unicode="&#x140;" horiz-adv-x="661" 
d="M402 -11q-100 0 -152 37.5t-71 99t-19 134.5v1226h154v-1213q0 -85 32 -124.5t84 -42.5l58 -1v-102q-45 -14 -86 -14zM463 674v202h210v-202h-210z" />
    <glyph glyph-name="lslash" unicode="&#x142;" horiz-adv-x="696" 
d="M70 326v149l166 139v872h154v-743l185 155v-141l-185 -158v-326q0 -85 32 -124.5t84 -42.5l58 -1v-102q-45 -14 -86 -14q-100 0 -152 37.5t-71 99t-19 134.5v208z" />
    <glyph glyph-name="m" unicode="m" horiz-adv-x="1713" 
d="M160 0v1034h150v-151q41 69 114.5 120t193.5 51q87 0 174 -43.5t126 -126.5q48 78 130 124t186 46q54 0 112.5 -16t109.5 -56.5t82.5 -115t31.5 -191.5v-675h-156v661q0 103 -32 158.5t-83 77.5t-109 22q-52 0 -109.5 -19.5t-98 -67.5t-40.5 -133v-699h-156v723
q0 65 -34.5 108.5t-85.5 65.5t-102 22q-56 0 -113.5 -22.5t-96 -71t-38.5 -126.5v-699h-156z" />
    <glyph glyph-name="n" unicode="n" horiz-adv-x="1145" 
d="M160 0v1034h150v-151q39 67 122.5 117t207.5 50q99 0 181.5 -39.5t132 -122.5t49.5 -213v-675h-156v661q0 131 -67 194.5t-177 63.5q-76 0 -141.5 -24t-105.5 -73t-40 -123v-699h-156z" />
    <glyph glyph-name="nacute" unicode="&#x144;" horiz-adv-x="1145" 
d="M160 0v1034h150v-151q39 67 122.5 117t207.5 50q99 0 181.5 -39.5t132 -122.5t49.5 -213v-675h-156v661q0 131 -67 194.5t-177 63.5q-76 0 -141.5 -24t-105.5 -73t-40 -123v-699h-156zM523 1155l206 291h186l-268 -291h-124z" />
    <glyph glyph-name="ncaron" unicode="&#x148;" horiz-adv-x="1145" 
d="M160 0v1034h150v-151q39 67 122.5 117t207.5 50q99 0 181.5 -39.5t132 -122.5t49.5 -213v-675h-156v661q0 131 -67 194.5t-177 63.5q-76 0 -141.5 -24t-105.5 -73t-40 -123v-699h-156zM541 1155l-249 216h152l152 -131l142 131h160l-243 -216h-114z" />
    <glyph glyph-name="uni0146" unicode="&#x146;" horiz-adv-x="1145" 
d="M160 0v1034h150v-151q39 67 122.5 117t207.5 50q99 0 181.5 -39.5t132 -122.5t49.5 -213v-675h-156v661q0 131 -67 194.5t-177 63.5q-76 0 -141.5 -24t-105.5 -73t-40 -123v-699h-156zM480 -364l79 118l-58 3v145h171v-122l-123 -144h-69z" />
    <glyph glyph-name="uni1E45" unicode="&#x1e45;" horiz-adv-x="1145" 
d="M160 0v1034h150v-151q39 67 122.5 117t207.5 50q99 0 181.5 -39.5t132 -122.5t49.5 -213v-675h-156v661q0 131 -67 194.5t-177 63.5q-76 0 -141.5 -24t-105.5 -73t-40 -123v-699h-156zM515 1283v163h163v-163h-163z" />
    <glyph glyph-name="eng" unicode="&#x14b;" horiz-adv-x="1163" 
d="M738 -332q-78 0 -97 5.5t-19 14.5v104l94 3q70 3 100.5 37t30.5 113v769q0 96 -48.5 156t-162.5 60q-82 0 -162 -44t-157 -119v-767h-157l2 1034h149v-157q115 98 198.5 137.5t179.5 39.5q147 0 230.5 -81.5t83.5 -213.5v-805q0 -135 -67.5 -210.5t-197.5 -75.5z" />
    <glyph glyph-name="ntilde" unicode="&#xf1;" horiz-adv-x="1145" 
d="M160 0v1034h150v-151q39 67 122.5 117t207.5 50q99 0 181.5 -39.5t132 -122.5t49.5 -213v-675h-156v661q0 131 -67 194.5t-177 63.5q-76 0 -141.5 -24t-105.5 -73t-40 -123v-699h-156zM342 1227l-31 98q32 29 68 49.5t91 20.5q47 0 88.5 -13.5t82 -27t84.5 -13.5
q42 0 72.5 15t60.5 37l31 -108q-25 -18 -64.5 -36t-100.5 -18q-53 0 -92 12.5t-74.5 25t-79.5 12.5q-49 0 -78 -16.5t-58 -37.5z" />
    <glyph glyph-name="o" unicode="o" horiz-adv-x="1125" 
d="M565 -20q-212 0 -339.5 135.5t-127.5 397.5q0 162 53 284t157 189.5t257 67.5q210 0 336.5 -138t126.5 -403q0 -158 -52 -278.5t-155 -187.5t-256 -67zM565 106q145 0 226 107t81 304q0 118 -32 211t-100 146.5t-175 53.5q-147 0 -229 -106.5t-82 -304.5
q0 -118 32 -210.5t101 -146.5t178 -54z" />
    <glyph glyph-name="oacute" unicode="&#xf3;" horiz-adv-x="1125" 
d="M565 -20q-212 0 -339.5 135.5t-127.5 397.5q0 162 53 284t157 189.5t257 67.5q210 0 336.5 -138t126.5 -403q0 -158 -52 -278.5t-155 -187.5t-256 -67zM565 106q145 0 226 107t81 304q0 118 -32 211t-100 146.5t-175 53.5q-147 0 -229 -106.5t-82 -304.5
q0 -118 32 -210.5t101 -146.5t178 -54zM490 1155l206 291h186l-268 -291h-124z" />
    <glyph glyph-name="obreve" unicode="&#x14f;" horiz-adv-x="1125" 
d="M565 -20q-212 0 -339.5 135.5t-127.5 397.5q0 162 53 284t157 189.5t257 67.5q210 0 336.5 -138t126.5 -403q0 -158 -52 -278.5t-155 -187.5t-256 -67zM565 106q145 0 226 107t81 304q0 118 -32 211t-100 146.5t-175 53.5q-147 0 -229 -106.5t-82 -304.5
q0 -118 32 -210.5t101 -146.5t178 -54zM562 1152q-107 0 -187 53t-101 153h120q17 -47 61 -77t107 -30q62 0 108 30t64 77h120q-22 -96 -101 -151t-191 -55z" />
    <glyph glyph-name="ocircumflex" unicode="&#xf4;" horiz-adv-x="1125" 
d="M565 -20q-212 0 -339.5 135.5t-127.5 397.5q0 162 53 284t157 189.5t257 67.5q210 0 336.5 -138t126.5 -403q0 -158 -52 -278.5t-155 -187.5t-256 -67zM565 106q145 0 226 107t81 304q0 118 -32 211t-100 146.5t-175 53.5q-147 0 -229 -106.5t-82 -304.5
q0 -118 32 -210.5t101 -146.5t178 -54zM261 1155l247 215h114l243 -215h-160l-142 127l-152 -127h-150z" />
    <glyph glyph-name="uni1ED1" unicode="&#x1ed1;" horiz-adv-x="1125" 
d="M565 -20q-212 0 -339.5 135.5t-127.5 397.5q0 162 53 284t157 189.5t257 67.5q210 0 336.5 -138t126.5 -403q0 -158 -52 -278.5t-155 -187.5t-256 -67zM565 106q145 0 226 107t81 304q0 118 -32 211t-100 146.5t-175 53.5q-147 0 -229 -106.5t-82 -304.5
q0 -118 32 -210.5t101 -146.5t178 -54zM735 1370l144 237h159l-194 -237h-109zM261 1155l247 215h114l243 -215h-160l-142 127l-152 -127h-150z" />
    <glyph glyph-name="uni1ED9" unicode="&#x1ed9;" horiz-adv-x="1125" 
d="M565 -20q-212 0 -339.5 135.5t-127.5 397.5q0 162 53 284t157 189.5t257 67.5q210 0 336.5 -138t126.5 -403q0 -158 -52 -278.5t-155 -187.5t-256 -67zM565 106q145 0 226 107t81 304q0 118 -32 211t-100 146.5t-175 53.5q-147 0 -229 -106.5t-82 -304.5
q0 -118 32 -210.5t101 -146.5t178 -54zM484 -348v163h163v-163h-163zM261 1155l247 215h114l243 -215h-160l-142 127l-152 -127h-150z" />
    <glyph glyph-name="uni1ED3" unicode="&#x1ed3;" horiz-adv-x="1125" 
d="M565 -20q-212 0 -339.5 135.5t-127.5 397.5q0 162 53 284t157 189.5t257 67.5q210 0 336.5 -138t126.5 -403q0 -158 -52 -278.5t-155 -187.5t-256 -67zM565 106q145 0 226 107t81 304q0 118 -32 211t-100 146.5t-175 53.5q-147 0 -229 -106.5t-82 -304.5
q0 -118 32 -210.5t101 -146.5t178 -54zM836 1371l-206 237h158l159 -237h-111zM261 1155l247 215h114l243 -215h-160l-142 127l-152 -127h-150z" />
    <glyph glyph-name="uni1ED5" unicode="&#x1ed5;" horiz-adv-x="1125" 
d="M565 -20q-212 0 -339.5 135.5t-127.5 397.5q0 162 53 284t157 189.5t257 67.5q210 0 336.5 -138t126.5 -403q0 -158 -52 -278.5t-155 -187.5t-256 -67zM565 106q145 0 226 107t81 304q0 118 -32 211t-100 146.5t-175 53.5q-147 0 -229 -106.5t-82 -304.5
q0 -118 32 -210.5t101 -146.5t178 -54zM783 1323l-50 78q43 28 62 65t-2 71t-64 32.5t-85 -29.5l-50 78q82 53 160 43.5t119 -70.5q48 -73 22 -144t-112 -124zM265 1155l247 215h114l243 -215h-160l-142 127l-152 -127h-150z" />
    <glyph glyph-name="uni1ED7" unicode="&#x1ed7;" horiz-adv-x="1125" 
d="M565 -20q-212 0 -339.5 135.5t-127.5 397.5q0 162 53 284t157 189.5t257 67.5q210 0 336.5 -138t126.5 -403q0 -158 -52 -278.5t-155 -187.5t-256 -67zM565 106q145 0 226 107t81 304q0 118 -32 211t-100 146.5t-175 53.5q-147 0 -229 -106.5t-82 -304.5
q0 -118 32 -210.5t101 -146.5t178 -54zM308 1483l-32 98q32 29 68.5 49.5t90.5 20.5q48 0 89.5 -13.5t81.5 -27t84 -13.5q43 0 73 15t60 37l31 -108q-25 -18 -64 -36t-101 -18q-53 0 -91.5 12.5t-74 25t-79.5 12.5q-49 0 -78.5 -16.5t-57.5 -37.5zM262 1155l247 215h114
l243 -215h-160l-142 127l-152 -127h-150z" />
    <glyph glyph-name="uni020D" unicode="&#x20d;" horiz-adv-x="1125" 
d="M565 -20q-212 0 -339.5 135.5t-127.5 397.5q0 162 53 284t157 189.5t257 67.5q210 0 336.5 -138t126.5 -403q0 -158 -52 -278.5t-155 -187.5t-256 -67zM565 106q145 0 226 107t81 304q0 118 -32 211t-100 146.5t-175 53.5q-147 0 -229 -106.5t-82 -304.5
q0 -118 32 -210.5t101 -146.5t178 -54zM371 1155l-286 291h177l233 -291h-124zM630 1155l-244 291h173l195 -291h-124z" />
    <glyph glyph-name="odieresis" unicode="&#xf6;" horiz-adv-x="1125" 
d="M565 -20q-212 0 -339.5 135.5t-127.5 397.5q0 162 53 284t157 189.5t257 67.5q210 0 336.5 -138t126.5 -403q0 -158 -52 -278.5t-155 -187.5t-256 -67zM565 106q145 0 226 107t81 304q0 118 -32 211t-100 146.5t-175 53.5q-147 0 -229 -106.5t-82 -304.5
q0 -118 32 -210.5t101 -146.5t178 -54zM669 1283l1 163h156l-1 -163h-156zM301 1283l1 163h156l-1 -163h-156z" />
    <glyph glyph-name="uni1ECD" unicode="&#x1ecd;" horiz-adv-x="1125" 
d="M565 -20q-212 0 -339.5 135.5t-127.5 397.5q0 162 53 284t157 189.5t257 67.5q210 0 336.5 -138t126.5 -403q0 -158 -52 -278.5t-155 -187.5t-256 -67zM565 106q145 0 226 107t81 304q0 118 -32 211t-100 146.5t-175 53.5q-147 0 -229 -106.5t-82 -304.5
q0 -118 32 -210.5t101 -146.5t178 -54zM484 -348v163h163v-163h-163z" />
    <glyph glyph-name="ograve" unicode="&#xf2;" horiz-adv-x="1125" 
d="M565 -20q-212 0 -339.5 135.5t-127.5 397.5q0 162 53 284t157 189.5t257 67.5q210 0 336.5 -138t126.5 -403q0 -158 -52 -278.5t-155 -187.5t-256 -67zM565 106q145 0 226 107t81 304q0 118 -32 211t-100 146.5t-175 53.5q-147 0 -229 -106.5t-82 -304.5
q0 -118 32 -210.5t101 -146.5t178 -54zM509 1155l-268 291h186l206 -291h-124z" />
    <glyph glyph-name="uni1ECF" unicode="&#x1ecf;" horiz-adv-x="1125" 
d="M565 -20q-212 0 -339.5 135.5t-127.5 397.5q0 162 53 284t157 189.5t257 67.5q210 0 336.5 -138t126.5 -403q0 -158 -52 -278.5t-155 -187.5t-256 -67zM565 106q145 0 226 107t81 304q0 118 -32 211t-100 146.5t-175 53.5q-147 0 -229 -106.5t-82 -304.5
q0 -118 32 -210.5t101 -146.5t178 -54zM617 1152l-51 77q44 28 62.5 65.5t-2.5 70.5q-21 34 -64 33t-84 -29l-51 78q83 53 161 43t118 -71q49 -73 22.5 -144t-111.5 -123z" />
    <glyph glyph-name="ohorn" unicode="&#x1a1;" horiz-adv-x="1182" 
d="M565 -20q-212 0 -339.5 135.5t-127.5 397.5q0 162 53 284t157 189.5t257 67.5q212 0 335 -136q64 6 91.5 46t32.5 150h135q-1 -137 -46 -209t-150 -85q65 -121 65 -307q0 -158 -52 -278.5t-155 -187.5t-256 -67zM565 106q145 0 226 107t81 304q0 118 -32 211t-100 146.5
t-175 53.5q-147 0 -229 -106.5t-82 -304.5q0 -118 32 -210.5t101 -146.5t178 -54z" />
    <glyph glyph-name="uni1EDB" unicode="&#x1edb;" horiz-adv-x="1182" 
d="M500 1155l206 291h186l-268 -291h-124zM565 -20q-212 0 -339.5 135.5t-127.5 397.5q0 162 53 284t157 189.5t257 67.5q212 0 335 -136q64 6 91.5 46t32.5 150h135q-1 -137 -46 -209t-150 -85q65 -121 65 -307q0 -158 -52 -278.5t-155 -187.5t-256 -67zM565 106
q145 0 226 107t81 304q0 118 -32 211t-100 146.5t-175 53.5q-147 0 -229 -106.5t-82 -304.5q0 -118 32 -210.5t101 -146.5t178 -54z" />
    <glyph glyph-name="uni1EE3" unicode="&#x1ee3;" horiz-adv-x="1182" 
d="M468 -348v163h163v-163h-163zM565 -20q-212 0 -339.5 135.5t-127.5 397.5q0 162 53 284t157 189.5t257 67.5q212 0 335 -136q64 6 91.5 46t32.5 150h135q-1 -137 -46 -209t-150 -85q65 -121 65 -307q0 -158 -52 -278.5t-155 -187.5t-256 -67zM565 106q145 0 226 107
t81 304q0 118 -32 211t-100 146.5t-175 53.5q-147 0 -229 -106.5t-82 -304.5q0 -118 32 -210.5t101 -146.5t178 -54z" />
    <glyph glyph-name="uni1EDD" unicode="&#x1edd;" horiz-adv-x="1182" 
d="M498 1155l-268 291h186l206 -291h-124zM565 -20q-212 0 -339.5 135.5t-127.5 397.5q0 162 53 284t157 189.5t257 67.5q212 0 335 -136q64 6 91.5 46t32.5 150h135q-1 -137 -46 -209t-150 -85q65 -121 65 -307q0 -158 -52 -278.5t-155 -187.5t-256 -67zM565 106
q145 0 226 107t81 304q0 118 -32 211t-100 146.5t-175 53.5q-147 0 -229 -106.5t-82 -304.5q0 -118 32 -210.5t101 -146.5t178 -54z" />
    <glyph glyph-name="uni1EDF" unicode="&#x1edf;" horiz-adv-x="1182" 
d="M615 1152l-51 77q44 28 62.5 65.5t-2.5 70.5q-21 34 -64 33t-84 -29l-51 78q83 53 161 43t118 -71q49 -73 22.5 -144t-111.5 -123zM565 -20q-212 0 -339.5 135.5t-127.5 397.5q0 162 53 284t157 189.5t257 67.5q212 0 335 -136q64 6 91.5 46t32.5 150h135
q-1 -137 -46 -209t-150 -85q65 -121 65 -307q0 -158 -52 -278.5t-155 -187.5t-256 -67zM565 106q145 0 226 107t81 304q0 118 -32 211t-100 146.5t-175 53.5q-147 0 -229 -106.5t-82 -304.5q0 -118 32 -210.5t101 -146.5t178 -54z" />
    <glyph glyph-name="uni1EE1" unicode="&#x1ee1;" horiz-adv-x="1182" 
d="M307 1227l-31 98q32 29 68 49.5t91 20.5q47 0 88.5 -13.5t82 -27t84.5 -13.5q42 0 72.5 15t60.5 37l31 -108q-25 -18 -64.5 -36t-100.5 -18q-53 0 -92 12.5t-74.5 25t-79.5 12.5q-49 0 -78 -16.5t-58 -37.5zM565 -20q-212 0 -339.5 135.5t-127.5 397.5q0 162 53 284
t157 189.5t257 67.5q212 0 335 -136q64 6 91.5 46t32.5 150h135q-1 -137 -46 -209t-150 -85q65 -121 65 -307q0 -158 -52 -278.5t-155 -187.5t-256 -67zM565 106q145 0 226 107t81 304q0 118 -32 211t-100 146.5t-175 53.5q-147 0 -229 -106.5t-82 -304.5q0 -118 32 -210.5
t101 -146.5t178 -54z" />
    <glyph glyph-name="ohungarumlaut" unicode="&#x151;" horiz-adv-x="1125" 
d="M565 -20q-212 0 -339.5 135.5t-127.5 397.5q0 162 53 284t157 189.5t257 67.5q210 0 336.5 -138t126.5 -403q0 -158 -52 -278.5t-155 -187.5t-256 -67zM565 106q145 0 226 107t81 304q0 118 -32 211t-100 146.5t-175 53.5q-147 0 -229 -106.5t-82 -304.5
q0 -118 32 -210.5t101 -146.5t178 -54zM637 1155l233 291h177l-286 -291h-124zM378 1155l195 291h173l-244 -291h-124z" />
    <glyph glyph-name="uni020F" unicode="&#x20f;" horiz-adv-x="1125" 
d="M565 -20q-212 0 -339.5 135.5t-127.5 397.5q0 162 53 284t157 189.5t257 67.5q210 0 336.5 -138t126.5 -403q0 -158 -52 -278.5t-155 -187.5t-256 -67zM565 106q145 0 226 107t81 304q0 118 -32 211t-100 146.5t-175 53.5q-147 0 -229 -106.5t-82 -304.5
q0 -118 32 -210.5t101 -146.5t178 -54zM269 1215q22 100 102 153t186 53q113 0 192 -55t100 -151h-119q-18 47 -64 77.5t-109 30.5t-106.5 -30.5t-60.5 -77.5h-121z" />
    <glyph glyph-name="omacron" unicode="&#x14d;" horiz-adv-x="1125" 
d="M565 -20q-212 0 -339.5 135.5t-127.5 397.5q0 162 53 284t157 189.5t257 67.5q210 0 336.5 -138t126.5 -403q0 -158 -52 -278.5t-155 -187.5t-256 -67zM565 106q145 0 226 107t81 304q0 118 -32 211t-100 146.5t-175 53.5q-147 0 -229 -106.5t-82 -304.5
q0 -118 32 -210.5t101 -146.5t178 -54zM279 1243v115h568v-115h-568z" />
    <glyph glyph-name="uni01EB" unicode="&#x1eb;" horiz-adv-x="1125" 
d="M605 -329q-96 0 -144 42.5t-48 113.5q0 46 23 84.5t85 70.5q-193 13 -308 148t-115 383q0 162 53 284t157 189.5t257 67.5q210 0 336.5 -138t126.5 -403q0 -190 -75 -324t-222 -184q-98 -42 -142.5 -79.5t-44.5 -87.5q0 -76 98 -76q48 0 86 12t57 23v-87
q-25 -14 -74 -26.5t-106 -12.5zM565 106q145 0 226 107t81 304q0 118 -32 211t-100 146.5t-175 53.5q-147 0 -229 -106.5t-82 -304.5q0 -118 32 -210.5t101 -146.5t178 -54z" />
    <glyph glyph-name="oslash" unicode="&#xf8;" horiz-adv-x="1158" 
d="M107 -10l-69 73l140 136q-69 127 -69 314q0 162 53 284t157.5 189.5t257.5 67.5q215 0 338 -140l131 127l69 -73l-143 -139q67 -128 67 -316q0 -158 -52 -278.5t-155 -187.5t-256 -67q-216 0 -339 135zM265 517q0 -117 30 -205l515 500q-38 54 -95.5 85t-137.5 31
q-148 0 -230 -106.5t-82 -304.5zM577 106q145 0 226 107t81 304q0 113 -28 199l-513 -498q38 -53 96 -82.5t138 -29.5z" />
    <glyph glyph-name="oslashacute" unicode="&#x1ff;" horiz-adv-x="1158" 
d="M107 -10l-69 73l140 136q-69 127 -69 314q0 162 53 284t157.5 189.5t257.5 67.5q215 0 338 -140l131 127l69 -73l-143 -139q67 -128 67 -316q0 -158 -52 -278.5t-155 -187.5t-256 -67q-216 0 -339 135zM265 517q0 -117 30 -205l515 500q-38 54 -95.5 85t-137.5 31
q-148 0 -230 -106.5t-82 -304.5zM577 106q145 0 226 107t81 304q0 113 -28 199l-513 -498q38 -53 96 -82.5t138 -29.5zM505 1155l206 291h186l-268 -291h-124z" />
    <glyph glyph-name="otilde" unicode="&#xf5;" horiz-adv-x="1125" 
d="M565 -20q-212 0 -339.5 135.5t-127.5 397.5q0 162 53 284t157 189.5t257 67.5q210 0 336.5 -138t126.5 -403q0 -158 -52 -278.5t-155 -187.5t-256 -67zM565 106q145 0 226 107t81 304q0 118 -32 211t-100 146.5t-175 53.5q-147 0 -229 -106.5t-82 -304.5
q0 -118 32 -210.5t101 -146.5t178 -54zM309 1227l-31 98q32 29 68 49.5t91 20.5q47 0 88.5 -13.5t82 -27t84.5 -13.5q42 0 72.5 15t60.5 37l31 -108q-25 -18 -64.5 -36t-100.5 -18q-53 0 -92 12.5t-74.5 25t-79.5 12.5q-49 0 -78 -16.5t-58 -37.5z" />
    <glyph glyph-name="oe" unicode="&#x153;" horiz-adv-x="1903" 
d="M1795 545v-64h-753q-1 -104 33.5 -189t105.5 -136t179 -51q106 0 182 49.5t95 140.5h150q-20 -104 -83 -174t-153 -105.5t-188 -35.5q-140 0 -245.5 64t-160.5 185q-49 -117 -147 -183t-245 -66q-212 0 -339.5 135.5t-127.5 397.5q0 162 53 284t157 189.5t257 67.5
q137 0 238.5 -62t153.5 -188q51 119 151 184.5t242 65.5q213 0 329 -136.5t116 -372.5zM1043 592h600q0 144 -72.5 242t-222.5 98q-105 0 -173 -50.5t-100.5 -128.5t-31.5 -161zM565 106q145 0 226 107t81 304q0 118 -32 211t-100 146.5t-175 53.5q-147 0 -229 -106.5
t-82 -304.5q0 -118 32 -210.5t101 -146.5t178 -54z" />
    <glyph glyph-name="p" unicode="p" horiz-adv-x="1185" 
d="M160 -322v1356h155l3 -189q21 41 63 90t111 84t170 35q189 0 307 -127.5t118 -394.5q0 -262 -113 -407t-322 -145q-100 0 -167 36t-107.5 86.5t-60.5 93.5v-518h-157zM626 105q137 0 222.5 102.5t85.5 318.5q0 183 -77.5 293t-230.5 110t-232 -111.5t-79 -291.5
q0 -119 35.5 -214t104.5 -151t171 -56z" />
    <glyph glyph-name="thorn" unicode="&#xfe;" horiz-adv-x="1171" 
d="M160 -322v1768h153v-557q23 25 62.5 64t104.5 70t164 31q121 0 218 -57.5t154.5 -173t57.5 -291.5q0 -174 -57 -297.5t-158 -189t-236 -65.5q-92 0 -161 29t-117 70q-17 15 -23 12t-6 -25v-388h-156zM583 95q145 0 238 110.5t93 323.5q0 145 -44 235t-117 132t-159 42
q-82 0 -145 -36t-98 -88.5t-35 -103.5v-485q58 -59 123.5 -94.5t143.5 -35.5z" />
    <glyph glyph-name="q" unicode="q" horiz-adv-x="1185" 
d="M868 -322v518q-21 -43 -61 -93.5t-107 -86.5t-167 -36q-126 0 -224.5 58.5t-154.5 180.5t-56 313q0 244 108 383t317 139q101 0 170 -35t111 -84t63 -90l3 189h155v-1356h-157zM559 105q102 0 171 56t104.5 151t35.5 214q0 180 -79 291.5t-232 111.5q-137 0 -222.5 -99.5
t-85.5 -303.5q0 -195 77.5 -308t230.5 -113z" />
    <glyph glyph-name="r" unicode="r" horiz-adv-x="770" 
d="M160 0v1034h148v-187q39 110 124 158.5t177 48.5q24 0 48.5 -3.5t38.5 -11.5v-152q-16 8 -42.5 11t-44.5 3q-73 4 -140.5 -18t-110 -75t-42.5 -144v-664h-156z" />
    <glyph glyph-name="racute" unicode="&#x155;" horiz-adv-x="770" 
d="M160 0v1034h148v-187q39 110 124 158.5t177 48.5q24 0 48.5 -3.5t38.5 -11.5v-152q-16 8 -42.5 11t-44.5 3q-73 4 -140.5 -18t-110 -75t-42.5 -144v-664h-156zM342 1155l206 291h186l-268 -291h-124z" />
    <glyph glyph-name="rcaron" unicode="&#x159;" horiz-adv-x="770" 
d="M160 0v1034h148v-187q39 110 124 158.5t177 48.5q24 0 48.5 -3.5t38.5 -11.5v-152q-16 8 -42.5 11t-44.5 3q-73 4 -140.5 -18t-110 -75t-42.5 -144v-664h-156zM360 1155l-249 216h152l152 -131l142 131h160l-243 -216h-114z" />
    <glyph glyph-name="uni0157" unicode="&#x157;" horiz-adv-x="770" 
d="M160 0v1034h148v-187q39 110 124 158.5t177 48.5q24 0 48.5 -3.5t38.5 -11.5v-152q-16 8 -42.5 11t-44.5 3q-73 4 -140.5 -18t-110 -75t-42.5 -144v-664h-156zM134 -364l79 118l-58 3v145h171v-122l-123 -144h-69z" />
    <glyph glyph-name="uni0211" unicode="&#x211;" horiz-adv-x="770" 
d="M160 0v1034h148v-187q39 110 124 158.5t177 48.5q24 0 48.5 -3.5t38.5 -11.5v-152q-16 8 -42.5 11t-44.5 3q-73 4 -140.5 -18t-110 -75t-42.5 -144v-664h-156zM223 1155l-286 291h177l233 -291h-124zM482 1155l-244 291h173l195 -291h-124z" />
    <glyph glyph-name="uni1E5B" unicode="&#x1e5b;" horiz-adv-x="770" 
d="M160 0v1034h148v-187q39 110 124 158.5t177 48.5q24 0 48.5 -3.5t38.5 -11.5v-152q-16 8 -42.5 11t-44.5 3q-73 4 -140.5 -18t-110 -75t-42.5 -144v-664h-156zM156 -348v163h163v-163h-163z" />
    <glyph glyph-name="uni0213" unicode="&#x213;" horiz-adv-x="770" 
d="M160 0v1034h148v-187q39 110 124 158.5t177 48.5q24 0 48.5 -3.5t38.5 -11.5v-152q-16 8 -42.5 11t-44.5 3q-73 4 -140.5 -18t-110 -75t-42.5 -144v-664h-156zM121 1205q22 100 102 153t186 53q113 0 192 -55t100 -151h-119q-18 47 -64 77.5t-109 30.5t-106.5 -30.5
t-60.5 -77.5h-121z" />
    <glyph glyph-name="s" unicode="s" horiz-adv-x="1001" 
d="M521 -20q-109 0 -199 33.5t-149 103t-73 177.5h145q20 -93 93 -143t182 -50q110 0 177.5 42.5t67.5 130.5q0 117 -140 152l-222 57q-123 31 -195 93t-72 175q-1 133 95 218t288 85q162 0 262.5 -73.5t105.5 -217.5h-141q-11 79 -69 125.5t-159 46.5q-106 0 -171.5 -43.5
t-65.5 -132.5q0 -60 45.5 -93.5t131.5 -55.5l218 -57q90 -23 140.5 -67.5t71 -97.5t20.5 -105q0 -140 -100 -221.5t-287 -81.5z" />
    <glyph glyph-name="sacute" unicode="&#x15b;" horiz-adv-x="1001" 
d="M521 -20q-109 0 -199 33.5t-149 103t-73 177.5h145q20 -93 93 -143t182 -50q110 0 177.5 42.5t67.5 130.5q0 117 -140 152l-222 57q-123 31 -195 93t-72 175q-1 133 95 218t288 85q162 0 262.5 -73.5t105.5 -217.5h-141q-11 79 -69 125.5t-159 46.5q-106 0 -171.5 -43.5
t-65.5 -132.5q0 -60 45.5 -93.5t131.5 -55.5l218 -57q90 -23 140.5 -67.5t71 -97.5t20.5 -105q0 -140 -100 -221.5t-287 -81.5zM448 1155l206 291h186l-268 -291h-124z" />
    <glyph glyph-name="scaron" unicode="&#x161;" horiz-adv-x="1001" 
d="M521 -20q-109 0 -199 33.5t-149 103t-73 177.5h145q20 -93 93 -143t182 -50q110 0 177.5 42.5t67.5 130.5q0 117 -140 152l-222 57q-123 31 -195 93t-72 175q-1 133 95 218t288 85q162 0 262.5 -73.5t105.5 -217.5h-141q-11 79 -69 125.5t-159 46.5q-106 0 -171.5 -43.5
t-65.5 -132.5q0 -60 45.5 -93.5t131.5 -55.5l218 -57q90 -23 140.5 -67.5t71 -97.5t20.5 -105q0 -140 -100 -221.5t-287 -81.5zM466 1155l-249 216h152l152 -131l142 131h160l-243 -216h-114z" />
    <glyph glyph-name="scedilla" unicode="&#x15f;" horiz-adv-x="1001" 
d="M465 -408q-105 0 -179 49l29 72q25 -20 56.5 -33t75.5 -13q110 0 110 76q0 43 -37 65t-120 24q-16 0 -11 12l61 140q-137 14 -234 89.5t-116 220.5h145q20 -93 93 -143t182 -50q110 0 177.5 42.5t67.5 130.5q0 117 -140 152l-222 57q-123 31 -195 93t-72 175
q-1 133 95 218t288 85q162 0 262.5 -73.5t105.5 -217.5h-141q-11 79 -69 125.5t-159 46.5q-106 0 -171.5 -43.5t-65.5 -132.5q0 -60 45.5 -93.5t131.5 -55.5l218 -57q90 -23 140.5 -67.5t71 -97.5t20.5 -105q0 -137 -95 -218t-274 -85l-36 -91q99 -6 136 -51t37 -94
q0 -75 -62.5 -113.5t-148.5 -38.5z" />
    <glyph glyph-name="scircumflex" unicode="&#x15d;" horiz-adv-x="1001" 
d="M521 -20q-109 0 -199 33.5t-149 103t-73 177.5h145q20 -93 93 -143t182 -50q110 0 177.5 42.5t67.5 130.5q0 117 -140 152l-222 57q-123 31 -195 93t-72 175q-1 133 95 218t288 85q162 0 262.5 -73.5t105.5 -217.5h-141q-11 79 -69 125.5t-159 46.5q-106 0 -171.5 -43.5
t-65.5 -132.5q0 -60 45.5 -93.5t131.5 -55.5l218 -57q90 -23 140.5 -67.5t71 -97.5t20.5 -105q0 -140 -100 -221.5t-287 -81.5zM219 1155l247 215h114l243 -215h-160l-142 127l-152 -127h-150z" />
    <glyph glyph-name="uni0219" unicode="&#x219;" horiz-adv-x="1001" 
d="M521 -20q-109 0 -199 33.5t-149 103t-73 177.5h145q20 -93 93 -143t182 -50q110 0 177.5 42.5t67.5 130.5q0 117 -140 152l-222 57q-123 31 -195 93t-72 175q-1 133 95 218t288 85q162 0 262.5 -73.5t105.5 -217.5h-141q-11 79 -69 125.5t-159 46.5q-106 0 -171.5 -43.5
t-65.5 -132.5q0 -60 45.5 -93.5t131.5 -55.5l218 -57q90 -23 140.5 -67.5t71 -97.5t20.5 -105q0 -140 -100 -221.5t-287 -81.5zM399 -364l79 118l-58 3v145h171v-122l-123 -144h-69z" />
    <glyph glyph-name="uni1E63" unicode="&#x1e63;" horiz-adv-x="1001" 
d="M521 -20q-109 0 -199 33.5t-149 103t-73 177.5h145q20 -93 93 -143t182 -50q110 0 177.5 42.5t67.5 130.5q0 117 -140 152l-222 57q-123 31 -195 93t-72 175q-1 133 95 218t288 85q162 0 262.5 -73.5t105.5 -217.5h-141q-11 79 -69 125.5t-159 46.5q-106 0 -171.5 -43.5
t-65.5 -132.5q0 -60 45.5 -93.5t131.5 -55.5l218 -57q90 -23 140.5 -67.5t71 -97.5t20.5 -105q0 -140 -100 -221.5t-287 -81.5zM421 -348v163h163v-163h-163z" />
    <glyph glyph-name="germandbls" unicode="&#xdf;" horiz-adv-x="1158" 
d="M679 -20q-72 0 -148 18.5t-127 51.5l60 108q43 -26 89 -44t113 -18q115 0 183.5 54t68.5 154q0 74 -36.5 118t-95 71t-125.5 50q-51 17 -100 41t-81.5 65.5t-32.5 110.5q0 74 43.5 122.5t131.5 98.5q39 23 76.5 47t62.5 58t25 87q0 71 -53 114t-151 43q-118 0 -192 -71.5
t-74 -214.5v-1044h-154l-2 1018q2 189 114.5 308.5t323.5 119.5q122 0 195.5 -38.5t107 -101t33.5 -132.5q0 -76 -31.5 -124t-84.5 -81t-118 -64q-68 -37 -95.5 -58.5t-27.5 -60.5q0 -38 26 -54.5t93 -37.5q55 -21 119 -47t121 -66.5t93.5 -104t36.5 -157.5
q0 -111 -52 -186.5t-139.5 -114t-195.5 -38.5z" />
    <glyph glyph-name="t" unicode="t" horiz-adv-x="764" 
d="M521 -4q-149 0 -200.5 62.5t-51.5 186.5v672h-168v117h172l37 298h116v-297h234v-118h-234v-667q0 -60 11.5 -87.5t41 -35t82.5 -7.5h106v-108q-43 -16 -146 -16z" />
    <glyph glyph-name="tbar" unicode="&#x167;" horiz-adv-x="764" 
d="M521 -4q-149 0 -200.5 62.5t-51.5 186.5v307h-161v104h161v261h-168v117h172l37 298h116v-297h234v-118h-234v-261h226v-104h-226v-302q0 -60 11.5 -87.5t41 -35t82.5 -7.5h106v-108q-43 -16 -146 -16z" />
    <glyph glyph-name="tcaron" unicode="&#x165;" horiz-adv-x="830" 
d="M521 -4q-149 0 -200.5 62.5t-51.5 186.5v672h-168v117h172l37 298h116v-297h234v-118h-234v-667q0 -60 11.5 -87.5t41 -35t82.5 -7.5h106v-108q-43 -16 -146 -16zM514 1136l75 179l-50 10v186h140v-195l-77 -180h-88z" />
    <glyph glyph-name="uni0163" unicode="&#x163;" horiz-adv-x="764" 
d="M521 -4h-20l-41 -103q99 -6 136 -51t37 -93q0 -75 -62.5 -113.5t-148.5 -38.5q-105 0 -179 49l29 71q25 -19 56.5 -32.5t75.5 -13.5q110 0 110 76q0 44 -37 65.5t-120 24.5q-16 0 -11 12l69 158q-84 20 -115 79.5t-31 158.5v672h-168v117h172l37 298h116v-297h234v-118
h-234v-667q0 -60 11.5 -87.5t41 -35t82.5 -7.5h106v-108q-43 -16 -146 -16z" />
    <glyph glyph-name="uni021B" unicode="&#x21b;" horiz-adv-x="764" 
d="M521 -4q-149 0 -200.5 62.5t-51.5 186.5v672h-168v117h172l37 298h116v-297h234v-118h-234v-667q0 -60 11.5 -87.5t41 -35t82.5 -7.5h106v-108q-43 -16 -146 -16zM356 -359l79 118l-58 3v145h171v-122l-123 -144h-69z" />
    <glyph glyph-name="uni1E6D" unicode="&#x1e6d;" horiz-adv-x="764" 
d="M521 -4q-149 0 -200.5 62.5t-51.5 186.5v672h-168v117h172l37 298h116v-297h234v-118h-234v-667q0 -60 11.5 -87.5t41 -35t82.5 -7.5h106v-108q-43 -16 -146 -16zM378 -343v163h163v-163h-163z" />
    <glyph glyph-name="u" unicode="u" horiz-adv-x="1153" 
d="M540 -20q-111 1 -201 40.5t-143 118.5t-53 197v698h156v-684q0 -110 66 -177t203 -67q122 0 196 63.5t74 192.5v672h155v-1034h-126l-16 196q-28 -111 -112 -164t-199 -52z" />
    <glyph glyph-name="uacute" unicode="&#xfa;" horiz-adv-x="1153" 
d="M540 -20q-111 1 -201 40.5t-143 118.5t-53 197v698h156v-684q0 -110 66 -177t203 -67q122 0 196 63.5t74 192.5v672h155v-1034h-126l-16 196q-28 -111 -112 -164t-199 -52zM498 1155l206 291h186l-268 -291h-124z" />
    <glyph glyph-name="ubreve" unicode="&#x16d;" horiz-adv-x="1153" 
d="M540 -20q-111 1 -201 40.5t-143 118.5t-53 197v698h156v-684q0 -110 66 -177t203 -67q122 0 196 63.5t74 192.5v672h155v-1034h-126l-16 196q-28 -111 -112 -164t-199 -52zM570 1152q-107 0 -187 53t-101 153h120q17 -47 61 -77t107 -30q62 0 108 30t64 77h120
q-22 -96 -101 -151t-191 -55z" />
    <glyph glyph-name="uni01D4" unicode="&#x1d4;" horiz-adv-x="1153" 
d="M540 -20q-111 1 -201 40.5t-143 118.5t-53 197v698h156v-684q0 -110 66 -177t203 -67q122 0 196 63.5t74 192.5v672h155v-1034h-126l-16 196q-28 -111 -112 -164t-199 -52zM516 1155l-249 216h152l152 -131l142 131h160l-243 -216h-114z" />
    <glyph glyph-name="ucircumflex" unicode="&#xfb;" horiz-adv-x="1153" 
d="M540 -20q-111 1 -201 40.5t-143 118.5t-53 197v698h156v-684q0 -110 66 -177t203 -67q122 0 196 63.5t74 192.5v672h155v-1034h-126l-16 196q-28 -111 -112 -164t-199 -52zM269 1155l247 215h114l243 -215h-160l-142 127l-152 -127h-150z" />
    <glyph glyph-name="uni0215" unicode="&#x215;" horiz-adv-x="1153" 
d="M540 -20q-111 1 -201 40.5t-143 118.5t-53 197v698h156v-684q0 -110 66 -177t203 -67q122 0 196 63.5t74 192.5v672h155v-1034h-126l-16 196q-28 -111 -112 -164t-199 -52zM379 1155l-286 291h177l233 -291h-124zM638 1155l-244 291h173l195 -291h-124z" />
    <glyph glyph-name="udieresis" unicode="&#xfc;" horiz-adv-x="1153" 
d="M540 -20q-111 1 -201 40.5t-143 118.5t-53 197v698h156v-684q0 -110 66 -177t203 -67q122 0 196 63.5t74 192.5v672h155v-1034h-126l-16 196q-28 -111 -112 -164t-199 -52zM677 1283l1 163h156l-1 -163h-156zM309 1283l1 163h156l-1 -163h-156z" />
    <glyph glyph-name="uni1EE5" unicode="&#x1ee5;" horiz-adv-x="1153" 
d="M540 -20q-111 1 -201 40.5t-143 118.5t-53 197v698h156v-684q0 -110 66 -177t203 -67q122 0 196 63.5t74 192.5v672h155v-1034h-126l-16 196q-28 -111 -112 -164t-199 -52zM491 -348v163h163v-163h-163z" />
    <glyph glyph-name="ugrave" unicode="&#xf9;" horiz-adv-x="1153" 
d="M540 -20q-111 1 -201 40.5t-143 118.5t-53 197v698h156v-684q0 -110 66 -177t203 -67q122 0 196 63.5t74 192.5v672h155v-1034h-126l-16 196q-28 -111 -112 -164t-199 -52zM517 1155l-268 291h186l206 -291h-124z" />
    <glyph glyph-name="uni1EE7" unicode="&#x1ee7;" horiz-adv-x="1153" 
d="M540 -20q-111 1 -201 40.5t-143 118.5t-53 197v698h156v-684q0 -110 66 -177t203 -67q122 0 196 63.5t74 192.5v672h155v-1034h-126l-16 196q-28 -111 -112 -164t-199 -52zM625 1152l-51 77q44 28 62.5 65.5t-2.5 70.5q-21 34 -64 33t-84 -29l-51 78q83 53 161 43
t118 -71q49 -73 22.5 -144t-111.5 -123z" />
    <glyph glyph-name="uhorn" unicode="&#x1b0;" horiz-adv-x="1273" 
d="M540 -20q-111 1 -201 40.5t-143 118.5t-53 197v698h156v-684q0 -110 66 -177t203 -67q122 0 196 63.5t74 192.5v672h155v-118q74 2 105 42t36 156h135q-1 -161 -64.5 -233t-211.5 -63v-818h-126l-16 196q-28 -111 -112 -164t-199 -52z" />
    <glyph glyph-name="uni1EE9" unicode="&#x1ee9;" horiz-adv-x="1273" 
d="M519 1155l206 291h186l-268 -291h-124zM540 -20q-111 1 -201 40.5t-143 118.5t-53 197v698h156v-684q0 -110 66 -177t203 -67q122 0 196 63.5t74 192.5v672h155v-118q74 2 105 42t36 156h135q-1 -161 -64.5 -233t-211.5 -63v-818h-126l-16 196q-28 -111 -112 -164
t-199 -52z" />
    <glyph glyph-name="uni1EF1" unicode="&#x1ef1;" horiz-adv-x="1273" 
d="M488 -348v163h163v-163h-163zM540 -20q-111 1 -201 40.5t-143 118.5t-53 197v698h156v-684q0 -110 66 -177t203 -67q122 0 196 63.5t74 192.5v672h155v-118q74 2 105 42t36 156h135q-1 -161 -64.5 -233t-211.5 -63v-818h-126l-16 196q-28 -111 -112 -164t-199 -52z" />
    <glyph glyph-name="uni1EEB" unicode="&#x1eeb;" horiz-adv-x="1273" 
d="M517 1155l-268 291h186l206 -291h-124zM540 -20q-111 1 -201 40.5t-143 118.5t-53 197v698h156v-684q0 -110 66 -177t203 -67q122 0 196 63.5t74 192.5v672h155v-118q74 2 105 42t36 156h135q-1 -161 -64.5 -233t-211.5 -63v-818h-126l-16 196q-28 -111 -112 -164
t-199 -52z" />
    <glyph glyph-name="uni1EED" unicode="&#x1eed;" horiz-adv-x="1273" 
d="M634 1152l-51 77q44 28 62.5 65.5t-2.5 70.5q-21 34 -64 33t-84 -29l-51 78q83 53 161 43t118 -71q49 -73 22.5 -144t-111.5 -123zM540 -20q-111 1 -201 40.5t-143 118.5t-53 197v698h156v-684q0 -110 66 -177t203 -67q122 0 196 63.5t74 192.5v672h155v-118q74 2 105 42
t36 156h135q-1 -161 -64.5 -233t-211.5 -63v-818h-126l-16 196q-28 -111 -112 -164t-199 -52z" />
    <glyph glyph-name="uni1EEF" unicode="&#x1eef;" horiz-adv-x="1273" 
d="M326 1227l-31 98q32 29 68 49.5t91 20.5q47 0 88.5 -13.5t82 -27t84.5 -13.5q42 0 72.5 15t60.5 37l31 -108q-25 -18 -64.5 -36t-100.5 -18q-53 0 -92 12.5t-74.5 25t-79.5 12.5q-49 0 -78 -16.5t-58 -37.5zM540 -20q-111 1 -201 40.5t-143 118.5t-53 197v698h156v-684
q0 -110 66 -177t203 -67q122 0 196 63.5t74 192.5v672h155v-118q74 2 105 42t36 156h135q-1 -161 -64.5 -233t-211.5 -63v-818h-126l-16 196q-28 -111 -112 -164t-199 -52z" />
    <glyph glyph-name="uhungarumlaut" unicode="&#x171;" horiz-adv-x="1153" 
d="M540 -20q-111 1 -201 40.5t-143 118.5t-53 197v698h156v-684q0 -110 66 -177t203 -67q122 0 196 63.5t74 192.5v672h155v-1034h-126l-16 196q-28 -111 -112 -164t-199 -52zM645 1155l233 291h177l-286 -291h-124zM386 1155l195 291h173l-244 -291h-124z" />
    <glyph glyph-name="uni0217" unicode="&#x217;" horiz-adv-x="1153" 
d="M540 -20q-111 1 -201 40.5t-143 118.5t-53 197v698h156v-684q0 -110 66 -177t203 -67q122 0 196 63.5t74 192.5v672h155v-1034h-126l-16 196q-28 -111 -112 -164t-199 -52zM277 1215q22 100 102 153t186 53q113 0 192 -55t100 -151h-119q-18 47 -64 77.5t-109 30.5
t-106.5 -30.5t-60.5 -77.5h-121z" />
    <glyph glyph-name="umacron" unicode="&#x16b;" horiz-adv-x="1153" 
d="M540 -20q-111 1 -201 40.5t-143 118.5t-53 197v698h156v-684q0 -110 66 -177t203 -67q122 0 196 63.5t74 192.5v672h155v-1034h-126l-16 196q-28 -111 -112 -164t-199 -52zM287 1243v115h568v-115h-568z" />
    <glyph glyph-name="uogonek" unicode="&#x173;" horiz-adv-x="1153" 
d="M540 -20q-111 1 -201 40.5t-143 118.5t-53 197v698h156v-684q0 -110 66 -177t203 -67q122 0 196 63.5t74 192.5v672h155v-1034h-126l-16 196q-28 -111 -112 -164t-199 -52zM855 -332q-97 0 -145 42.5t-48 114.5q0 60 43.5 108t164.5 86l116 -14q-101 -43 -146.5 -81
t-45.5 -89q0 -75 97 -75q48 0 86 12t57 23v-88q-24 -14 -73 -26.5t-106 -12.5z" />
    <glyph glyph-name="uring" unicode="&#x16f;" horiz-adv-x="1153" 
d="M540 -20q-111 1 -201 40.5t-143 118.5t-53 197v698h156v-684q0 -110 66 -177t203 -67q122 0 196 63.5t74 192.5v672h155v-1034h-126l-16 196q-28 -111 -112 -164t-199 -52zM572 1159q-85 0 -144 59.5t-59 147.5q0 81 59.5 138.5t143.5 57.5q85 0 144.5 -58t59.5 -142
q0 -86 -59.5 -144.5t-144.5 -58.5zM570 1250q45 0 76.5 33.5t31.5 77.5q0 48 -31.5 78.5t-76.5 30.5q-44 0 -77 -30.5t-33 -78.5q0 -44 33 -77.5t77 -33.5z" />
    <glyph glyph-name="utilde" unicode="&#x169;" horiz-adv-x="1153" 
d="M540 -20q-111 1 -201 40.5t-143 118.5t-53 197v698h156v-684q0 -110 66 -177t203 -67q122 0 196 63.5t74 192.5v672h155v-1034h-126l-16 196q-28 -111 -112 -164t-199 -52zM317 1227l-31 98q32 29 68 49.5t91 20.5q47 0 88.5 -13.5t82 -27t84.5 -13.5q42 0 72.5 15
t60.5 37l31 -108q-25 -18 -64.5 -36t-100.5 -18q-53 0 -92 12.5t-74.5 25t-79.5 12.5q-49 0 -78 -16.5t-58 -37.5z" />
    <glyph glyph-name="v" unicode="v" horiz-adv-x="1000" 
d="M423 0l-370 1034h150l287 -841h20l291 841h147l-368 -1034h-157z" />
    <glyph glyph-name="w" unicode="w" horiz-adv-x="1555" 
d="M374 0l-315 1034h147l248 -836h18l244 836h121l256 -834h19l236 834h149l-307 -1034h-168l-247 801l-233 -801h-168z" />
    <glyph glyph-name="wacute" unicode="&#x1e83;" horiz-adv-x="1555" 
d="M374 0l-315 1034h147l248 -836h18l244 836h121l256 -834h19l236 834h149l-307 -1034h-168l-247 801l-233 -801h-168zM712 1155l206 291h186l-268 -291h-124z" />
    <glyph glyph-name="wcircumflex" unicode="&#x175;" horiz-adv-x="1555" 
d="M374 0l-315 1034h147l248 -836h18l244 836h121l256 -834h19l236 834h149l-307 -1034h-168l-247 801l-233 -801h-168zM483 1155l247 215h114l243 -215h-160l-142 127l-152 -127h-150z" />
    <glyph glyph-name="wdieresis" unicode="&#x1e85;" horiz-adv-x="1555" 
d="M374 0l-315 1034h147l248 -836h18l244 836h121l256 -834h19l236 834h149l-307 -1034h-168l-247 801l-233 -801h-168zM891 1283l1 163h156l-1 -163h-156zM523 1283l1 163h156l-1 -163h-156z" />
    <glyph glyph-name="wgrave" unicode="&#x1e81;" horiz-adv-x="1555" 
d="M374 0l-315 1034h147l248 -836h18l244 836h121l256 -834h19l236 834h149l-307 -1034h-168l-247 801l-233 -801h-168zM731 1155l-268 291h186l206 -291h-124z" />
    <glyph glyph-name="x" unicode="x" horiz-adv-x="1116" 
d="M70 0l399 537l-367 497h173l283 -383l284 383h174l-369 -497l399 -537h-173l-315 424l-314 -424h-174z" />
    <glyph glyph-name="y" unicode="y" horiz-adv-x="1055" 
d="M248 -330q-87 0 -118.5 11.5l-31.5 11.5v102l107 -1q73 -2 115 15.5t63.5 45.5t32.5 56l41 109l-404 1014h159l321 -832l317 832h152l-440 -1131q-54 -135 -132.5 -184t-181.5 -49z" />
    <glyph glyph-name="yacute" unicode="&#xfd;" horiz-adv-x="1055" 
d="M248 -330q-87 0 -118.5 11.5l-31.5 11.5v102l107 -1q73 -2 115 15.5t63.5 45.5t32.5 56l41 109l-404 1014h159l321 -832l317 832h152l-440 -1131q-54 -135 -132.5 -184t-181.5 -49zM459 1155l206 291h186l-268 -291h-124z" />
    <glyph glyph-name="ycircumflex" unicode="&#x177;" horiz-adv-x="1055" 
d="M248 -330q-87 0 -118.5 11.5l-31.5 11.5v102l107 -1q73 -2 115 15.5t63.5 45.5t32.5 56l41 109l-404 1014h159l321 -832l317 832h152l-440 -1131q-54 -135 -132.5 -184t-181.5 -49zM233 1155l247 215h114l243 -215h-160l-142 127l-152 -127h-150z" />
    <glyph glyph-name="ydieresis" unicode="&#xff;" horiz-adv-x="1055" 
d="M248 -330q-87 0 -118.5 11.5l-31.5 11.5v102l107 -1q73 -2 115 15.5t63.5 45.5t32.5 56l41 109l-404 1014h159l321 -832l317 832h152l-440 -1131q-54 -135 -132.5 -184t-181.5 -49zM639 1283l1 163h156l-1 -163h-156zM271 1283l1 163h156l-1 -163h-156z" />
    <glyph glyph-name="uni1EF5" unicode="&#x1ef5;" horiz-adv-x="1055" 
d="M248 -330q-87 0 -118.5 11.5l-31.5 11.5v102l107 -1q73 -2 115 15.5t63.5 45.5t32.5 56l41 109l-404 1014h159l321 -832l317 832h152l-440 -1131q-54 -135 -132.5 -184t-181.5 -49zM694 -344v163h163v-163h-163z" />
    <glyph glyph-name="ygrave" unicode="&#x1ef3;" horiz-adv-x="1055" 
d="M248 -330q-87 0 -118.5 11.5l-31.5 11.5v102l107 -1q73 -2 115 15.5t63.5 45.5t32.5 56l41 109l-404 1014h159l321 -832l317 832h152l-440 -1131q-54 -135 -132.5 -184t-181.5 -49zM478 1155l-268 291h186l206 -291h-124z" />
    <glyph glyph-name="uni1EF7" unicode="&#x1ef7;" horiz-adv-x="1055" 
d="M248 -330q-87 0 -118.5 11.5l-31.5 11.5v102l107 -1q73 -2 115 15.5t63.5 45.5t32.5 56l41 109l-404 1014h159l321 -832l317 832h152l-440 -1131q-54 -135 -132.5 -184t-181.5 -49zM586 1152l-51 77q44 28 62.5 65.5t-2.5 70.5q-21 34 -64 33t-84 -29l-51 78
q83 53 161 43t118 -71q49 -73 22.5 -144t-111.5 -123z" />
    <glyph glyph-name="uni1EF9" unicode="&#x1ef9;" horiz-adv-x="1055" 
d="M248 -330q-87 0 -118.5 11.5l-31.5 11.5v102l107 -1q73 -2 115 15.5t63.5 45.5t32.5 56l41 109l-404 1014h159l321 -832l317 832h152l-440 -1131q-54 -135 -132.5 -184t-181.5 -49zM278 1227l-31 98q32 29 68 49.5t91 20.5q47 0 88.5 -13.5t82 -27t84.5 -13.5
q42 0 72.5 15t60.5 37l31 -108q-25 -18 -64.5 -36t-100.5 -18q-53 0 -92 12.5t-74.5 25t-79.5 12.5q-49 0 -78 -16.5t-58 -37.5z" />
    <glyph glyph-name="z" unicode="z" horiz-adv-x="953" 
d="M80 0v103l604 814h-579v117h762v-102l-602 -814h608v-118h-793z" />
    <glyph glyph-name="zacute" unicode="&#x17a;" horiz-adv-x="953" 
d="M80 0v103l604 814h-579v117h762v-102l-602 -814h608v-118h-793zM413 1155l206 291h186l-268 -291h-124z" />
    <glyph glyph-name="zcaron" unicode="&#x17e;" horiz-adv-x="953" 
d="M80 0v103l604 814h-579v117h762v-102l-602 -814h608v-118h-793zM431 1155l-249 216h152l152 -131l142 131h160l-243 -216h-114z" />
    <glyph glyph-name="zdotaccent" unicode="&#x17c;" horiz-adv-x="953" 
d="M80 0v103l604 814h-579v117h762v-102l-602 -814h608v-118h-793zM405 1283v163h163v-163h-163z" />
    <glyph glyph-name="uni1E93" unicode="&#x1e93;" horiz-adv-x="953" 
d="M80 0v103l604 814h-579v117h762v-102l-602 -814h608v-118h-793zM406 -348v163h163v-163h-163z" />
    <glyph glyph-name="g.ss01" horiz-adv-x="1183" 
d="M579 -337q-113 0 -202 40t-145.5 107.5t-71.5 148.5h151q24 -86 100 -129.5t167 -44.5q115 -2 185.5 37.5t103 102t32.5 130.5l2 134q-46 -89 -133.5 -126.5t-199.5 -37.5q-134 0 -236.5 63.5t-161.5 174.5t-63 253q-3 140 48.5 262.5t153.5 198t250 75.5q87 0 153.5 -31
t110.5 -73t61 -75l3 159h146l7 -951q1 -135 -58 -228.5t-163.5 -141.5t-239.5 -48zM601 148q116 0 179 38.5t87 99.5t23 126l-3 258q-2 60 -41.5 120t-106.5 100.5t-148 40.5q-104 0 -176.5 -54t-110 -147.5t-37.5 -213.5q0 -107 41.5 -190t117 -130.5t175.5 -47.5z" />
    <glyph glyph-name="l.ss01" horiz-adv-x="541" 
d="M193 0v1486h156v-1486h-156z" />
    <glyph glyph-name="ordfeminine" unicode="&#xaa;" horiz-adv-x="820" 
d="M325 792q-104 0 -161 48t-57 132q0 94 83 149t238 67l119 10v48q0 69 -41.5 99.5t-111.5 30.5q-55 0 -96 -20.5t-76 -77.5l-98 29q35 74 103.5 114.5t173.5 40.5q130 -1 193 -59.5t63 -158.5v-231q0 -26 1.5 -63.5t6.5 -70.5l12 -75h-115l-17 89q-53 -53 -104 -77
t-116 -24zM360 874q80 0 137 53q50 43 50 86v109l-99 -8q-225 -16 -225 -137q0 -47 38 -75t99 -28z" />
    <glyph glyph-name="ordmasculine" unicode="&#xba;" horiz-adv-x="814" 
d="M406 795q-146 0 -227 93t-81 239q0 151 84.5 244.5t223.5 93.5q143 0 226.5 -94t83.5 -244q0 -146 -81.5 -239t-228.5 -93zM406 882q94 0 142 66.5t48 183.5q0 112 -48 178t-142 66q-93 0 -140 -66t-47 -178q0 -117 47 -183.5t140 -66.5z" />
    <glyph glyph-name="pi" unicode="&#x3c0;" horiz-adv-x="1309" 
d="M147 0q29 111 54.5 257t41.5 310.5t16 329.5q0 20 -17 20h-187v117h1194v-117h-235v-917h-152l-1 917h-455q0 -174 -16 -349t-43 -324t-59 -244h-141z" />
    <glyph glyph-name="zero" unicode="0" horiz-adv-x="1206" 
d="M602 -22q-231 0 -367 185t-136 554q0 373 138 561t367 188q228 0 365.5 -187t137.5 -559q0 -370 -137 -556t-368 -186zM605 117q161 0 246 141.5t85 461.5q0 323 -86.5 466.5t-246.5 143.5t-248 -144.5t-88 -465.5q0 -318 88 -460.5t250 -142.5z" />
    <glyph glyph-name="one" unicode="1" horiz-adv-x="802" 
d="M380 0v1169h-285v110q131 0 202 17.5t99.5 55t30.5 94.5h115v-1446h-162z" />
    <glyph glyph-name="two" unicode="2" horiz-adv-x="1171" 
d="M128 0v160q0 111 41.5 192.5t109.5 142t150 109t164 94t150.5 96.5t110 115.5t41.5 152.5q0 117 -82.5 190t-221.5 73q-151 0 -240 -84.5t-98 -220.5h-158q3 122 60.5 223t168.5 162t274 61q140 0 244 -50.5t161 -141.5t57 -212q0 -112 -41.5 -192.5t-109 -140
t-148.5 -106.5t-162 -91t-148.5 -93t-108.5 -113t-41 -151v-33h769v-142h-942z" />
    <glyph glyph-name="three" unicode="3" horiz-adv-x="1242" 
d="M598 -22q-143 2 -254 54.5t-175.5 148.5t-69.5 226h159q20 -138 113 -214.5t235 -76.5q167 0 267.5 77.5t100.5 202.5q0 94 -52 158t-140 97t-196 34l-128 2v137l123 2q100 1 180 38.5t126.5 97.5t46.5 131q0 93 -84.5 166t-243.5 73q-80 0 -154.5 -32.5t-123 -99
t-50.5 -169.5h-157q0 136 66 233.5t176 149.5t243 52q147 0 259 -44t175 -126.5t63 -198.5q0 -108 -70 -195.5t-210 -136.5q149 -40 234.5 -135t85.5 -234q0 -129 -70 -223.5t-193 -145t-282 -49.5z" />
    <glyph glyph-name="four" unicode="4" horiz-adv-x="1242" 
d="M780 0v383h-685v149l678 914h161v-922h244v-141h-244v-383h-154zM247 524h528v709z" />
    <glyph glyph-name="five" unicode="5" horiz-adv-x="1262" 
d="M648 -22q-132 0 -243.5 48t-191 133.5t-114.5 198.5l141 49q51 -130 152 -212t248 -82q160 0 258 94.5t98 261.5q0 103 -47 179t-124.5 117.5t-169.5 41.5q-94 0 -171 -27.5t-161 -126.5q-8 -3 -15 1l-140 35l65 757h845l-4 -138h-704l-39 -499q70 72 159 103t193 31
q126 0 235.5 -53t177 -157.5t67.5 -258.5q0 -150 -64 -261.5t-180 -173t-271 -61.5z" />
    <glyph glyph-name="six" unicode="6" horiz-adv-x="1225" 
d="M636 -22q-163 0 -284 86.5t-187 248.5t-66 389q0 231 63 403t186.5 266.5t304.5 94.5q115 0 213.5 -43.5t164 -125t83.5 -196.5h-149q-30 105 -110 168.5t-200 63.5q-201 0 -302 -170t-84 -499q38 120 143.5 195t240.5 75q141 0 247.5 -55.5t166 -159t59.5 -247.5
q0 -146 -59.5 -257t-169 -174t-261.5 -63zM636 112q94 0 166.5 44.5t113.5 124t41 184.5q0 156 -82 246.5t-241 90.5q-85 0 -161 -39.5t-124 -106t-48 -147.5q-1 -115 40.5 -205t117.5 -141t177 -51z" />
    <glyph glyph-name="seven" unicode="7" horiz-adv-x="1187" 
d="M355 0q18 102 62 251t114 325.5t166.5 364t219.5 367.5h-822v138h997v-138q-79 -111 -156 -249t-146 -286.5t-124.5 -292t-92 -268t-48.5 -212.5h-170z" />
    <glyph glyph-name="eight" unicode="8" horiz-adv-x="1283" 
d="M640 -22q-164 0 -285.5 51t-188.5 143.5t-67 216.5q0 84 43 162t110.5 133t142.5 69q-103 42 -168 122t-65 200q0 125 63.5 212t171.5 133t243 46q137 0 245 -46t170.5 -133t62.5 -212q0 -120 -64 -200t-167 -122q75 -14 143 -69t111 -133t43 -162q0 -124 -67 -216.5
t-189.5 -143.5t-287.5 -51zM640 822q142 0 229 67.5t87 190.5q0 122 -87.5 193t-228.5 71q-140 0 -227.5 -71.5t-87.5 -192.5q0 -123 87.5 -190.5t227.5 -67.5zM640 108q171 0 273 76.5t102 203.5q0 126 -102 208t-273 82q-169 0 -270.5 -82t-101.5 -208
q0 -127 101.5 -203.5t270.5 -76.5z" />
    <glyph glyph-name="nine" unicode="9" horiz-adv-x="1230" 
d="M571 -22q-116 0 -216 43.5t-168 125t-86 195.5h153q26 -103 109.5 -166.5t202.5 -63.5q202 0 312.5 162.5t94.5 510.5q-35 -124 -140 -201.5t-247 -77.5t-249.5 55.5t-167.5 160t-60 250.5t58.5 257.5t167.5 174t261 62.5q163 0 283.5 -86t186 -248t65.5 -390
q0 -358 -144.5 -561t-415.5 -203zM598 642q85 0 161 39.5t124 106.5t48 148q1 115 -40.5 204.5t-117.5 141.5t-178 52q-140 0 -228 -98.5t-88 -255.5q0 -154 80 -246t239 -92z" />
    <glyph glyph-name="zero.osf" horiz-adv-x="1206" 
d="M602 -22q-231 0 -367 185t-136 554q0 373 138 561t367 188q228 0 365.5 -187t137.5 -559q0 -370 -137 -556t-368 -186zM605 117q161 0 246 141.5t85 461.5q0 323 -86.5 466.5t-246.5 143.5t-248 -144.5t-88 -465.5q0 -318 88 -460.5t250 -142.5z" />
    <glyph glyph-name="one.osf" horiz-adv-x="802" 
d="M380 0v1169h-285v110q131 0 202 17.5t99.5 55t30.5 94.5h115v-1446h-162z" />
    <glyph glyph-name="two.osf" horiz-adv-x="1171" 
d="M128 0v160q0 111 41.5 192.5t109.5 142t150 109t164 94t150.5 96.5t110 115.5t41.5 152.5q0 117 -82.5 190t-221.5 73q-151 0 -240 -84.5t-98 -220.5h-158q3 122 60.5 223t168.5 162t274 61q140 0 244 -50.5t161 -141.5t57 -212q0 -112 -41.5 -192.5t-109 -140
t-148.5 -106.5t-162 -91t-148.5 -93t-108.5 -113t-41 -151v-33h769v-142h-942z" />
    <glyph glyph-name="three.osf" horiz-adv-x="1242" 
d="M598 -14q-143 2 -254 54.5t-175.5 148.5t-69.5 226h159q20 -138 113 -214.5t235 -76.5q167 0 267.5 77.5t100.5 202.5q0 94 -52 158t-140 97t-196 34l-128 2v137l123 2q100 1 180 38.5t126.5 97.5t46.5 131q0 93 -84.5 166t-243.5 73q-80 0 -154.5 -32.5t-123 -99
t-50.5 -169.5h-157q0 136 66 233.5t176 149.5t243 52q147 0 259 -44t175 -126.5t63 -198.5q0 -108 -70 -195.5t-210 -136.5q149 -40 234.5 -135t85.5 -234q0 -129 -70 -223.5t-193 -145t-282 -49.5z" />
    <glyph glyph-name="four.osf" horiz-adv-x="1242" 
d="M780 0v383h-685v149l678 914h161v-922h244v-141h-244v-383h-154zM247 524h528v709z" />
    <glyph glyph-name="five.osf" horiz-adv-x="1262" 
d="M648 -22q-132 0 -243.5 48t-191 133.5t-114.5 198.5l141 49q51 -130 152 -212t248 -82q160 0 258 94.5t98 261.5q0 103 -47 179t-124.5 117.5t-169.5 41.5q-94 0 -171 -27.5t-161 -126.5q-8 -3 -15 1l-140 35l65 757h845l-4 -138h-704l-39 -499q70 72 159 103t193 31
q126 0 235.5 -53t177 -157.5t67.5 -258.5q0 -150 -64 -261.5t-180 -173t-271 -61.5z" />
    <glyph glyph-name="six.osf" horiz-adv-x="1225" 
d="M636 -22q-163 0 -284 86.5t-187 248.5t-66 389q0 231 63 403t186.5 266.5t304.5 94.5q115 0 213.5 -43.5t164 -125t83.5 -196.5h-149q-30 105 -110 168.5t-200 63.5q-201 0 -302 -170t-84 -499q38 120 143.5 195t240.5 75q141 0 247.5 -55.5t166 -159t59.5 -247.5
q0 -146 -59.5 -257t-169 -174t-261.5 -63zM636 112q94 0 166.5 44.5t113.5 124t41 184.5q0 156 -82 246.5t-241 90.5q-85 0 -161 -39.5t-124 -106t-48 -147.5q-1 -115 40.5 -205t117.5 -141t177 -51z" />
    <glyph glyph-name="seven.osf" horiz-adv-x="1187" 
d="M355 0q18 102 62 251t114 325.5t166.5 364t219.5 367.5h-822v138h997v-138q-79 -111 -156 -249t-146 -286.5t-124.5 -292t-92 -268t-48.5 -212.5h-170z" />
    <glyph glyph-name="eight.osf" horiz-adv-x="1283" 
d="M640 -22q-164 0 -285.5 51t-188.5 143.5t-67 216.5q0 84 43 162t110.5 133t142.5 69q-103 42 -168 122t-65 200q0 125 63.5 212t171.5 133t243 46q137 0 245 -46t170.5 -133t62.5 -212q0 -120 -64 -200t-167 -122q75 -14 143 -69t111 -133t43 -162q0 -124 -67 -216.5
t-189.5 -143.5t-287.5 -51zM640 822q142 0 229 67.5t87 190.5q0 122 -87.5 193t-228.5 71q-140 0 -227.5 -71.5t-87.5 -192.5q0 -123 87.5 -190.5t227.5 -67.5zM640 108q171 0 273 76.5t102 203.5q0 126 -102 208t-273 82q-169 0 -270.5 -82t-101.5 -208
q0 -127 101.5 -203.5t270.5 -76.5z" />
    <glyph glyph-name="nine.osf" horiz-adv-x="1230" 
d="M571 -22q-116 0 -216 43.5t-168 125t-86 195.5h153q26 -103 109.5 -166.5t202.5 -63.5q202 0 312.5 162.5t94.5 510.5q-35 -124 -140 -201.5t-247 -77.5t-249.5 55.5t-167.5 160t-60 250.5t58.5 257.5t167.5 174t261 62.5q163 0 283.5 -86t186 -248t65.5 -390
q0 -358 -144.5 -561t-415.5 -203zM598 642q85 0 161 39.5t124 106.5t48 148q1 115 -40.5 204.5t-117.5 141.5t-178 52q-140 0 -228 -98.5t-88 -255.5q0 -154 80 -246t239 -92z" />
    <glyph glyph-name="zero.tf" horiz-adv-x="1400" 
d="M699 -22q-231 0 -367 185t-136 554q0 373 138 561t367 188q228 0 365.5 -187t137.5 -559q0 -370 -137 -556t-368 -186zM702 117q161 0 246 141.5t85 461.5q0 323 -86.5 466.5t-246.5 143.5t-248 -144.5t-88 -465.5q0 -318 88 -460.5t250 -142.5z" />
    <glyph glyph-name="one.tf" horiz-adv-x="1400" 
d="M207 0v142h447v1135l-424 -167v150l485 188h97v-1306h438v-142h-1043z" />
    <glyph glyph-name="two.tf" horiz-adv-x="1400" 
d="M259 0v160q0 111 41.5 192.5t109.5 142t150 109t164 94t150.5 96.5t110 115.5t41.5 152.5q0 117 -82.5 190t-221.5 73q-151 0 -240 -84.5t-98 -220.5h-158q3 122 60.5 223t168.5 162t274 61q140 0 244 -50.5t161 -141.5t57 -212q0 -112 -41.5 -192.5t-109 -140
t-148.5 -106.5t-162 -91t-148.5 -93t-108.5 -113t-41 -151v-33h769v-142h-942z" />
    <glyph glyph-name="three.tf" horiz-adv-x="1400" 
d="M686 -22q-143 2 -254 54.5t-175.5 148.5t-69.5 226h159q20 -138 113 -214.5t235 -76.5q167 0 267.5 77.5t100.5 202.5q0 94 -52 158t-140 97t-196 34l-128 2v137l123 2q100 1 180 38.5t126.5 97.5t46.5 131q0 93 -84.5 166t-243.5 73q-80 0 -154.5 -32.5t-123 -99
t-50.5 -169.5h-157q0 136 66 233.5t176 149.5t243 52q147 0 259 -44t175 -126.5t63 -198.5q0 -108 -70 -195.5t-210 -136.5q149 -40 234.5 -135t85.5 -234q0 -129 -70 -223.5t-193 -145t-282 -49.5z" />
    <glyph glyph-name="four.tf" horiz-adv-x="1400" 
d="M842 0v383h-685v149l678 914h161v-922h244v-141h-244v-383h-154zM309 524h528v709z" />
    <glyph glyph-name="five.tf" horiz-adv-x="1400" 
d="M738 -22q-132 0 -243.5 48t-191 133.5t-114.5 198.5l141 49q51 -130 152 -212t248 -82q160 0 258 94.5t98 261.5q0 103 -47 179t-124.5 117.5t-169.5 41.5q-94 0 -171 -27.5t-161 -126.5q-8 -3 -15 1l-140 35l65 757h845l-4 -138h-704l-39 -499q70 72 159 103t193 31
q126 0 235.5 -53t177 -157.5t67.5 -258.5q0 -150 -64 -261.5t-180 -173t-271 -61.5z" />
    <glyph glyph-name="six.tf" horiz-adv-x="1400" 
d="M725 -22q-163 0 -284 86.5t-187 248.5t-66 389q0 231 63 403t186.5 266.5t304.5 94.5q115 0 213.5 -43.5t164 -125t83.5 -196.5h-149q-30 105 -110 168.5t-200 63.5q-201 0 -302 -170t-84 -499q38 120 143.5 195t240.5 75q141 0 247.5 -55.5t166 -159t59.5 -247.5
q0 -146 -59.5 -257t-169 -174t-261.5 -63zM725 112q94 0 166.5 44.5t113.5 124t41 184.5q0 156 -82 246.5t-241 90.5q-85 0 -161 -39.5t-124 -106t-48 -147.5q-1 -115 40.5 -205t117.5 -141t177 -51z" />
    <glyph glyph-name="seven.tf" horiz-adv-x="1400" 
d="M418 0q19 102 77.5 251t147.5 325.5t199.5 364t233.5 367.5h-922v138h1102v-138q-79 -111 -165.5 -249t-169 -286.5t-152 -292t-115.5 -268t-58 -212.5h-178z" />
    <glyph glyph-name="eight.tf" horiz-adv-x="1400" 
d="M699 -22q-164 0 -285.5 51t-188.5 143.5t-67 216.5q0 84 43 162t110.5 133t142.5 69q-103 42 -168 122t-65 200q0 125 63.5 212t171.5 133t243 46q137 0 245 -46t170.5 -133t62.5 -212q0 -120 -64 -200t-167 -122q75 -14 143 -69t111 -133t43 -162q0 -124 -67 -216.5
t-189.5 -143.5t-287.5 -51zM699 822q142 0 229 67.5t87 190.5q0 122 -87.5 193t-228.5 71q-140 0 -227.5 -71.5t-87.5 -192.5q0 -123 87.5 -190.5t227.5 -67.5zM699 108q171 0 273 76.5t102 203.5q0 126 -102 208t-273 82q-169 0 -270.5 -82t-101.5 -208
q0 -127 101.5 -203.5t270.5 -76.5z" />
    <glyph glyph-name="nine.tf" horiz-adv-x="1400" 
d="M662 -22q-116 0 -216 43.5t-168 125t-86 195.5h153q26 -103 109.5 -166.5t202.5 -63.5q202 0 312.5 162.5t94.5 510.5q-35 -124 -140 -201.5t-247 -77.5t-249.5 55.5t-167.5 160t-60 250.5t58.5 257.5t167.5 174t261 62.5q163 0 283.5 -86t186 -248t65.5 -390
q0 -358 -144.5 -561t-415.5 -203zM689 642q85 0 161 39.5t124 106.5t48 148q1 115 -40.5 204.5t-117.5 141.5t-178 52q-140 0 -228 -98.5t-88 -255.5q0 -154 80 -246t239 -92z" />
    <glyph glyph-name="zero.subs" horiz-adv-x="746" 
d="M373 -344q-153 0 -235 120t-82 342q0 225 83 348.5t234 123.5q152 0 235 -123t83 -347q0 -222 -82.5 -343t-235.5 -121zM374 -250q104 0 153.5 90.5t49.5 279.5q0 378 -204 378q-205 0 -205 -378q0 -370 206 -370z" />
    <glyph glyph-name="one.subs" horiz-adv-x="470" 
d="M225 -331v729h-178v77q119 -1 162 22.5t45 81.5h80v-910h-109z" />
    <glyph glyph-name="two.subs" horiz-adv-x="720" 
d="M67 -331v103q0 82 34.5 138.5t89 97t116 74t116 68t89 78.5t34.5 107q0 72 -50.5 116t-135.5 44q-89 0 -146 -50.5t-62 -139.5h-105q0 77 36.5 142t107 104.5t174.5 39.5q133 0 212 -70.5t79 -185.5q0 -82 -34.5 -138t-88 -96t-114 -72t-114.5 -65t-88 -76.5t-34 -106.5
v-16h480v-96h-596z" />
    <glyph glyph-name="three.subs" horiz-adv-x="790" 
d="M381 -344q-140 2 -226 77.5t-89 195.5h106q12 -86 69.5 -132.5t143.5 -46.5q103 0 164.5 46.5t61.5 121.5q0 80 -64.5 128.5t-173.5 49.5l-82 1v92l79 2q90 1 153 48.5t63 113.5q0 56 -51.5 100t-148.5 44q-74 0 -137.5 -44.5t-63.5 -141.5h-106q-1 126 87 202t220 76
q138 0 225 -61.5t87 -171.5q0 -69 -42 -122.5t-124 -83.5q87 -27 140 -85t53 -146q0 -124 -98 -194.5t-246 -68.5z" />
    <glyph glyph-name="four.subs" horiz-adv-x="776" 
d="M473 -328v238h-426v98l423 573h107v-576h152v-95h-152v-238h-104zM152 5h319v428z" />
    <glyph glyph-name="five.subs" horiz-adv-x="783" 
d="M403 -343q-126 0 -221 67.5t-126 175.5l95 31q32 -83 95 -132.5t152 -49.5q100 0 159.5 58.5t59.5 158.5q0 95 -62 151t-147 56q-60 0 -108 -17t-100 -81q-5 0 -9 2l-91 23l41 480h535l-3 -93h-440l-23 -297q84 76 215 76q79 0 148 -34t112 -100t43 -163q0 -142 -89 -227
t-236 -85z" />
    <glyph glyph-name="six.subs" horiz-adv-x="759" 
d="M394 -341q-158 0 -248 122t-90 331q0 228 92 354.5t257 126.5q113 0 195 -63.5t97 -171.5h-101q-18 68 -68.5 105.5t-121.5 37.5q-123 0 -183.5 -100t-54.5 -287q30 67 94 107t142 40q138 0 219 -79t81 -213q0 -140 -84.5 -225t-225.5 -85zM394 -251q86 0 141 59.5
t55 156.5q0 102 -53 154t-144 52q-55 0 -101 -25t-74 -66t-28 -87q-2 -110 55.5 -177t148.5 -67z" />
    <glyph glyph-name="seven.subs" horiz-adv-x="703" 
d="M208 -331q15 84 58 218t115.5 290.5t174.5 307.5h-509v94h630v-92q-63 -87 -122.5 -199t-108.5 -229t-82 -219.5t-42 -170.5h-114z" />
    <glyph glyph-name="eight.subs" horiz-adv-x="820" 
d="M410 -339q-156 0 -250 71t-94 189q0 51 25 99.5t65.5 83.5t86.5 47q-66 29 -101.5 77.5t-35.5 117.5q0 114 85 181.5t219 67.5t219 -67.5t85 -181.5q0 -69 -35.5 -117.5t-101.5 -77.5q46 -12 86.5 -47t66 -83.5t25.5 -99.5q0 -118 -95 -189t-250 -71zM410 197
q91 0 142.5 40t51.5 113t-53.5 117t-140.5 44q-88 0 -141 -44t-53 -117t51.5 -113t142.5 -40zM410 -251q105 0 167.5 47t62.5 125q0 79 -63.5 128.5t-166.5 49.5t-166.5 -49.5t-63.5 -128.5q0 -78 62 -125t168 -47z" />
    <glyph glyph-name="nine.subs" horiz-adv-x="763" 
d="M354 -344q-115 0 -198.5 64t-98.5 169h103q16 -64 67.5 -103t123.5 -39q124 0 190 97t61 293q-28 -69 -91.5 -111t-146.5 -42q-137 0 -219 80t-82 215q0 141 83.5 226t223.5 85q158 0 247.5 -123t89.5 -331q0 -234 -93.5 -357t-259.5 -123zM371 77q54 0 100 25t74.5 66
t29.5 89q1 108 -56.5 175.5t-148.5 67.5q-86 0 -139.5 -59.5t-53.5 -156.5q0 -102 51.5 -154.5t142.5 -52.5z" />
    <glyph glyph-name="zero.dnom" horiz-adv-x="746" 
d="M373 -14q-153 0 -235 120t-82 342q0 225 83 348.5t234 123.5q152 0 235 -123t83 -347q0 -222 -82.5 -343t-235.5 -121zM374 80q104 0 153.5 90.5t49.5 279.5q0 378 -204 378q-205 0 -205 -378q0 -370 206 -370z" />
    <glyph glyph-name="one.dnom" horiz-adv-x="470" 
d="M225 -1v729h-178v77q119 -1 162 22.5t45 81.5h80v-910h-109z" />
    <glyph glyph-name="two.dnom" horiz-adv-x="720" 
d="M67 -1v103q0 82 34.5 138.5t89 97t116 74t116 68t89 78.5t34.5 107q0 72 -50.5 116t-135.5 44q-89 0 -146 -50.5t-62 -139.5h-105q0 77 36.5 142t107 104.5t174.5 39.5q133 0 212 -70.5t79 -185.5q0 -82 -34.5 -138t-88 -96t-114 -72t-114.5 -65t-88 -76.5t-34 -106.5
v-16h480v-96h-596z" />
    <glyph glyph-name="three.dnom" horiz-adv-x="790" 
d="M381 -14q-140 2 -226 77.5t-89 195.5h106q12 -86 69.5 -132.5t143.5 -46.5q103 0 164.5 46.5t61.5 121.5q0 80 -64.5 128.5t-173.5 49.5l-82 1v92l79 2q90 1 153 48.5t63 113.5q0 56 -51.5 100t-148.5 44q-74 0 -137.5 -44.5t-63.5 -141.5h-106q-1 126 87 202t220 76
q138 0 225 -61.5t87 -171.5q0 -69 -42 -122.5t-124 -83.5q87 -27 140 -85t53 -146q0 -124 -98 -194.5t-246 -68.5z" />
    <glyph glyph-name="four.dnom" horiz-adv-x="776" 
d="M473 2v238h-426v98l423 573h107v-576h152v-95h-152v-238h-104zM152 335h319v428z" />
    <glyph glyph-name="five.dnom" horiz-adv-x="783" 
d="M403 -13q-126 0 -221 67.5t-126 175.5l95 31q32 -83 95 -132.5t152 -49.5q100 0 159.5 58.5t59.5 158.5q0 95 -62 151t-147 56q-60 0 -108 -17t-100 -81q-5 0 -9 2l-91 23l41 480h535l-3 -93h-440l-23 -297q84 76 215 76q79 0 148 -34t112 -100t43 -163q0 -142 -89 -227
t-236 -85z" />
    <glyph glyph-name="six.dnom" horiz-adv-x="759" 
d="M394 -11q-158 0 -248 122t-90 331q0 228 92 354.5t257 126.5q113 0 195 -63.5t97 -171.5h-101q-18 68 -68.5 105.5t-121.5 37.5q-123 0 -183.5 -100t-54.5 -287q30 67 94 107t142 40q138 0 219 -79t81 -213q0 -140 -84.5 -225t-225.5 -85zM394 79q86 0 141 59.5t55 156.5
q0 102 -53 154t-144 52q-55 0 -101 -25t-74 -66t-28 -87q-2 -110 55.5 -177t148.5 -67z" />
    <glyph glyph-name="seven.dnom" horiz-adv-x="703" 
d="M208 -1q15 84 58 218t115.5 290.5t174.5 307.5h-509v94h630v-92q-63 -87 -122.5 -199t-108.5 -229t-82 -219.5t-42 -170.5h-114z" />
    <glyph glyph-name="eight.dnom" horiz-adv-x="820" 
d="M410 -11q-156 0 -250 71t-94 189q0 51 25 99.5t65.5 83.5t86.5 47q-66 29 -101.5 77.5t-35.5 117.5q0 114 85 181.5t219 67.5t219 -67.5t85 -181.5q0 -69 -35.5 -117.5t-101.5 -77.5q46 -12 86.5 -47t66 -83.5t25.5 -99.5q0 -118 -95 -189t-250 -71zM410 525
q91 0 142.5 40t51.5 113t-53.5 117t-140.5 44q-88 0 -141 -44t-53 -117t51.5 -113t142.5 -40zM410 77q105 0 167.5 47t62.5 125q0 79 -63.5 128.5t-166.5 49.5t-166.5 -49.5t-63.5 -128.5q0 -78 62 -125t168 -47z" />
    <glyph glyph-name="nine.dnom" horiz-adv-x="763" 
d="M354 -14q-115 0 -198.5 64t-98.5 169h103q16 -64 67.5 -103t123.5 -39q124 0 190 97t61 293q-28 -69 -91.5 -111t-146.5 -42q-137 0 -219 80t-82 215q0 141 83.5 226t223.5 85q158 0 247.5 -123t89.5 -331q0 -234 -93.5 -357t-259.5 -123zM371 407q54 0 100 25t74.5 66
t29.5 89q1 108 -56.5 175.5t-148.5 67.5q-86 0 -139.5 -59.5t-53.5 -156.5q0 -102 51.5 -154.5t142.5 -52.5z" />
    <glyph glyph-name="zero.numr" horiz-adv-x="746" 
d="M373 524q-153 0 -235 120t-82 342q0 225 83 348.5t234 123.5q152 0 235 -123t83 -347q0 -222 -82.5 -343t-235.5 -121zM374 618q104 0 153.5 90.5t49.5 279.5q0 378 -204 378q-205 0 -205 -378q0 -370 206 -370z" />
    <glyph glyph-name="one.numr" horiz-adv-x="470" 
d="M225 536v729h-178v77q119 -1 162 22.5t45 81.5h80v-910h-109z" />
    <glyph glyph-name="two.numr" horiz-adv-x="720" 
d="M67 537v103q0 82 34.5 138.5t89 97t116 74t116 68t89 78.5t34.5 107q0 72 -50.5 116t-135.5 44q-89 0 -146 -50.5t-62 -139.5h-105q0 77 36.5 142t107 104.5t174.5 39.5q133 0 212 -70.5t79 -185.5q0 -82 -34.5 -138t-88 -96t-114 -72t-114.5 -65t-88 -76.5t-34 -106.5
v-16h480v-96h-596z" />
    <glyph glyph-name="three.numr" horiz-adv-x="790" 
d="M381 526q-140 2 -226 77.5t-89 195.5h106q12 -86 69.5 -132.5t143.5 -46.5q103 0 164.5 46.5t61.5 121.5q0 80 -64.5 128.5t-173.5 49.5l-82 1v92l79 2q90 1 153 48.5t63 113.5q0 56 -51.5 100t-148.5 44q-74 0 -137.5 -44.5t-63.5 -141.5h-106q-1 126 87 202t220 76
q138 0 225 -61.5t87 -171.5q0 -69 -42 -122.5t-124 -83.5q87 -27 140 -85t53 -146q0 -124 -98 -194.5t-246 -68.5z" />
    <glyph glyph-name="four.numr" horiz-adv-x="776" 
d="M473 537v238h-426v98l423 573h107v-576h152v-95h-152v-238h-104zM152 870h319v428z" />
    <glyph glyph-name="five.numr" horiz-adv-x="783" 
d="M403 523q-126 0 -221 67.5t-126 175.5l95 31q32 -83 95 -132.5t152 -49.5q100 0 159.5 58.5t59.5 158.5q0 95 -62 151t-147 56q-60 0 -108 -17t-100 -81q-5 0 -9 2l-91 23l41 480h535l-3 -93h-440l-23 -297q84 76 215 76q79 0 148 -34t112 -100t43 -163q0 -142 -89 -227
t-236 -85z" />
    <glyph glyph-name="six.numr" horiz-adv-x="759" 
d="M394 524q-158 0 -248 122t-90 331q0 228 92 354.5t257 126.5q113 0 195 -63.5t97 -171.5h-101q-18 68 -68.5 105.5t-121.5 37.5q-123 0 -183.5 -100t-54.5 -287q30 67 94 107t142 40q138 0 219 -79t81 -213q0 -140 -84.5 -225t-225.5 -85zM394 614q86 0 141 59.5
t55 156.5q0 102 -53 154t-144 52q-55 0 -101 -25t-74 -66t-28 -87q-2 -110 55.5 -177t148.5 -67z" />
    <glyph glyph-name="seven.numr" horiz-adv-x="703" 
d="M208 537q15 84 58 218t115.5 290.5t174.5 307.5h-509v94h630v-92q-63 -87 -122.5 -199t-108.5 -229t-82 -219.5t-42 -170.5h-114z" />
    <glyph glyph-name="eight.numr" horiz-adv-x="820" 
d="M410 524q-156 0 -250 71t-94 189q0 51 25 99.5t65.5 83.5t86.5 47q-66 29 -101.5 77.5t-35.5 117.5q0 114 85 181.5t219 67.5t219 -67.5t85 -181.5q0 -69 -35.5 -117.5t-101.5 -77.5q46 -12 86.5 -47t66 -83.5t25.5 -99.5q0 -118 -95 -189t-250 -71zM410 1060
q91 0 142.5 40t51.5 113t-53.5 117t-140.5 44q-88 0 -141 -44t-53 -117t51.5 -113t142.5 -40zM410 612q105 0 167.5 47t62.5 125q0 79 -63.5 128.5t-166.5 49.5t-166.5 -49.5t-63.5 -128.5q0 -78 62 -125t168 -47z" />
    <glyph glyph-name="nine.numr" horiz-adv-x="763" 
d="M354 524q-115 0 -198.5 64t-98.5 169h103q16 -64 67.5 -103t123.5 -39q124 0 190 97t61 293q-28 -69 -91.5 -111t-146.5 -42q-137 0 -219 80t-82 215q0 141 83.5 226t223.5 85q158 0 247.5 -123t89.5 -331q0 -234 -93.5 -357t-259.5 -123zM371 945q54 0 100 25t74.5 66
t29.5 89q1 108 -56.5 175.5t-148.5 67.5q-86 0 -139.5 -59.5t-53.5 -156.5q0 -102 51.5 -154.5t142.5 -52.5z" />
    <glyph glyph-name="uni2070" unicode="&#x2070;" horiz-adv-x="746" 
d="M373 732q-153 0 -235 120t-82 342q0 225 83 348.5t234 123.5q152 0 235 -123t83 -347q0 -222 -82.5 -343t-235.5 -121zM374 826q104 0 153.5 90.5t49.5 279.5q0 378 -204 378q-205 0 -205 -378q0 -370 206 -370z" />
    <glyph glyph-name="uni00B9" unicode="&#xb9;" horiz-adv-x="470" 
d="M225 744v729h-178v77q119 -1 162 22.5t45 81.5h80v-910h-109z" />
    <glyph glyph-name="uni00B2" unicode="&#xb2;" horiz-adv-x="720" 
d="M67 747v103q0 82 34.5 138.5t89 97t116 74t116 68t89 78.5t34.5 107q0 72 -50.5 116t-135.5 44q-89 0 -146 -50.5t-62 -139.5h-105q0 77 36.5 142t107 104.5t174.5 39.5q133 0 212 -70.5t79 -185.5q0 -82 -34.5 -138t-88 -96t-114 -72t-114.5 -65t-88 -76.5t-34 -106.5
v-16h480v-96h-596z" />
    <glyph glyph-name="uni00B3" unicode="&#xb3;" horiz-adv-x="790" 
d="M381 736q-140 2 -226 77.5t-89 195.5h106q12 -86 69.5 -132.5t143.5 -46.5q103 0 164.5 46.5t61.5 121.5q0 80 -64.5 128.5t-173.5 49.5l-82 1v92l79 2q90 1 153 48.5t63 113.5q0 56 -51.5 100t-148.5 44q-74 0 -137.5 -44.5t-63.5 -141.5h-106q-1 126 87 202t220 76
q138 0 225 -61.5t87 -171.5q0 -69 -42 -122.5t-124 -83.5q87 -27 140 -85t53 -146q0 -124 -98 -194.5t-246 -68.5z" />
    <glyph glyph-name="uni2074" unicode="&#x2074;" horiz-adv-x="776" 
d="M473 745v238h-426v98l423 573h107v-576h152v-95h-152v-238h-104zM152 1078h319v428z" />
    <glyph glyph-name="uni2075" unicode="&#x2075;" horiz-adv-x="783" 
d="M403 731q-126 0 -221 67.5t-126 175.5l95 31q32 -83 95 -132.5t152 -49.5q100 0 159.5 58.5t59.5 158.5q0 95 -62 151t-147 56q-60 0 -108 -17t-100 -81q-5 0 -9 2l-91 23l41 480h535l-3 -93h-440l-23 -297q84 76 215 76q79 0 148 -34t112 -100t43 -163q0 -142 -89 -227
t-236 -85z" />
    <glyph glyph-name="uni2076" unicode="&#x2076;" horiz-adv-x="759" 
d="M394 734q-158 0 -248 122t-90 331q0 228 92 354.5t257 126.5q113 0 195 -63.5t97 -171.5h-101q-18 68 -68.5 105.5t-121.5 37.5q-123 0 -183.5 -100t-54.5 -287q30 67 94 107t142 40q138 0 219 -79t81 -213q0 -140 -84.5 -225t-225.5 -85zM394 824q86 0 141 59.5
t55 156.5q0 102 -53 154t-144 52q-55 0 -101 -25t-74 -66t-28 -87q-2 -110 55.5 -177t148.5 -67z" />
    <glyph glyph-name="uni2077" unicode="&#x2077;" horiz-adv-x="703" 
d="M208 747q15 84 58 218t115.5 290.5t174.5 307.5h-509v94h630v-92q-63 -87 -122.5 -199t-108.5 -229t-82 -219.5t-42 -170.5h-114z" />
    <glyph glyph-name="uni2078" unicode="&#x2078;" horiz-adv-x="820" 
d="M410 734q-156 0 -250 71t-94 189q0 51 25 99.5t65.5 83.5t86.5 47q-66 29 -101.5 77.5t-35.5 117.5q0 114 85 181.5t219 67.5t219 -67.5t85 -181.5q0 -69 -35.5 -117.5t-101.5 -77.5q46 -12 86.5 -47t66 -83.5t25.5 -99.5q0 -118 -95 -189t-250 -71zM410 1270
q91 0 142.5 40t51.5 113t-53.5 117t-140.5 44q-88 0 -141 -44t-53 -117t51.5 -113t142.5 -40zM410 822q105 0 167.5 47t62.5 125q0 79 -63.5 128.5t-166.5 49.5t-166.5 -49.5t-63.5 -128.5q0 -78 62 -125t168 -47z" />
    <glyph glyph-name="uni2079" unicode="&#x2079;" horiz-adv-x="763" 
d="M354 734q-115 0 -198.5 64t-98.5 169h103q16 -64 67.5 -103t123.5 -39q124 0 190 97t61 293q-28 -69 -91.5 -111t-146.5 -42q-137 0 -219 80t-82 215q0 141 83.5 226t223.5 85q158 0 247.5 -123t89.5 -331q0 -234 -93.5 -357t-259.5 -123zM371 1155q54 0 100 25t74.5 66
t29.5 89q1 108 -56.5 175.5t-148.5 67.5q-86 0 -139.5 -59.5t-53.5 -156.5q0 -102 51.5 -154.5t142.5 -52.5z" />
    <glyph glyph-name="fraction.alt" horiz-adv-x="1334" 
d="M238 -8l-113 1l977 1469h108z" />
    <glyph glyph-name="fraction" unicode="&#x2044;" horiz-adv-x="461" 
d="M-195 -8l-113 1l977 1469h108z" />
    <glyph glyph-name="onehalf" unicode="&#xbd;" horiz-adv-x="1714" 
d="M225 536v729h-178v77q119 -1 162 22.5t45 81.5h80v-910h-109zM318 -8l-113 1l977 1469h108zM1061 -1v103q0 82 34.5 138.5t89 97t116 74t116 68t89 78.5t34.5 107q0 72 -50.5 116t-135.5 44q-89 0 -146 -50.5t-62 -139.5h-105q0 77 36.5 142t107 104.5t174.5 39.5
q133 0 212 -70.5t79 -185.5q0 -82 -34.5 -138t-88 -96t-114 -72t-114.5 -65t-88 -76.5t-34 -106.5v-16h480v-96h-596z" />
    <glyph glyph-name="uni2153" unicode="&#x2153;" horiz-adv-x="1732" 
d="M225 536v729h-178v77q119 -1 162 22.5t45 81.5h80v-910h-109zM318 -8l-113 1l977 1469h108zM1323 -14q-140 2 -226 77.5t-89 195.5h106q12 -86 69.5 -132.5t143.5 -46.5q103 0 164.5 46.5t61.5 121.5q0 80 -64.5 128.5t-173.5 49.5l-82 1v92l79 2q90 1 153 48.5t63 113.5
q0 56 -51.5 100t-148.5 44q-74 0 -137.5 -44.5t-63.5 -141.5h-106q-1 126 87 202t220 76q138 0 225 -61.5t87 -171.5q0 -69 -42 -122.5t-124 -83.5q87 -27 140 -85t53 -146q0 -124 -98 -194.5t-246 -68.5z" />
    <glyph glyph-name="uni2154" unicode="&#x2154;" horiz-adv-x="2031" 
d="M67 537v103q0 82 34.5 138.5t89 97t116 74t116 68t89 78.5t34.5 107q0 72 -50.5 116t-135.5 44q-89 0 -146 -50.5t-62 -139.5h-105q0 77 36.5 142t107 104.5t174.5 39.5q133 0 212 -70.5t79 -185.5q0 -82 -34.5 -138t-88 -96t-114 -72t-114.5 -65t-88 -76.5t-34 -106.5
v-16h480v-96h-596zM617 -8l-113 1l977 1469h108zM1622 -14q-140 2 -226 77.5t-89 195.5h106q12 -86 69.5 -132.5t143.5 -46.5q103 0 164.5 46.5t61.5 121.5q0 80 -64.5 128.5t-173.5 49.5l-82 1v92l79 2q90 1 153 48.5t63 113.5q0 56 -51.5 100t-148.5 44
q-74 0 -137.5 -44.5t-63.5 -141.5h-106q-1 126 87 202t220 76q138 0 225 -61.5t87 -171.5q0 -69 -42 -122.5t-124 -83.5q87 -27 140 -85t53 -146q0 -124 -98 -194.5t-246 -68.5z" />
    <glyph glyph-name="onequarter" unicode="&#xbc;" horiz-adv-x="1562" 
d="M225 536v729h-178v77q119 -1 162 22.5t45 81.5h80v-910h-109zM318 -8l-113 1l977 1469h108zM1260 2v238h-426v98l423 573h107v-576h152v-95h-152v-238h-104zM939 335h319v428z" />
    <glyph glyph-name="threequarters" unicode="&#xbe;" horiz-adv-x="1815" 
d="M381 526q-140 2 -226 77.5t-89 195.5h106q12 -86 69.5 -132.5t143.5 -46.5q103 0 164.5 46.5t61.5 121.5q0 80 -64.5 128.5t-173.5 49.5l-82 1v92l79 2q90 1 153 48.5t63 113.5q0 56 -51.5 100t-148.5 44q-74 0 -137.5 -44.5t-63.5 -141.5h-106q-1 126 87 202t220 76
q138 0 225 -61.5t87 -171.5q0 -69 -42 -122.5t-124 -83.5q87 -27 140 -85t53 -146q0 -124 -98 -194.5t-246 -68.5zM570 -8l-113 1l977 1469h108zM1512 2v238h-426v98l423 573h107v-576h152v-95h-152v-238h-104zM1191 335h319v428z" />
    <glyph glyph-name="oneeighth" unicode="&#x215b;" horiz-adv-x="1762" 
d="M225 536v729h-178v77q119 -1 162 22.5t45 81.5h80v-910h-109zM318 -8l-113 1l977 1469h108zM1352 -11q-156 0 -250 71t-94 189q0 51 25 99.5t65.5 83.5t86.5 47q-66 29 -101.5 77.5t-35.5 117.5q0 114 85 181.5t219 67.5t219 -67.5t85 -181.5q0 -69 -35.5 -117.5
t-101.5 -77.5q46 -12 86.5 -47t66 -83.5t25.5 -99.5q0 -118 -95 -189t-250 -71zM1352 525q91 0 142.5 40t51.5 113t-53.5 117t-140.5 44q-88 0 -141 -44t-53 -117t51.5 -113t142.5 -40zM1352 77q105 0 167.5 47t62.5 125q0 79 -63.5 128.5t-166.5 49.5t-166.5 -49.5
t-63.5 -128.5q0 -78 62 -125t168 -47z" />
    <glyph glyph-name="threeeighths" unicode="&#x215c;" horiz-adv-x="2014" 
d="M381 526q-140 2 -226 77.5t-89 195.5h106q12 -86 69.5 -132.5t143.5 -46.5q103 0 164.5 46.5t61.5 121.5q0 80 -64.5 128.5t-173.5 49.5l-82 1v92l79 2q90 1 153 48.5t63 113.5q0 56 -51.5 100t-148.5 44q-74 0 -137.5 -44.5t-63.5 -141.5h-106q-1 126 87 202t220 76
q138 0 225 -61.5t87 -171.5q0 -69 -42 -122.5t-124 -83.5q87 -27 140 -85t53 -146q0 -124 -98 -194.5t-246 -68.5zM570 -8l-113 1l977 1469h108zM1604 -11q-156 0 -250 71t-94 189q0 51 25 99.5t65.5 83.5t86.5 47q-66 29 -101.5 77.5t-35.5 117.5q0 114 85 181.5t219 67.5
t219 -67.5t85 -181.5q0 -69 -35.5 -117.5t-101.5 -77.5q46 -12 86.5 -47t66 -83.5t25.5 -99.5q0 -118 -95 -189t-250 -71zM1604 525q91 0 142.5 40t51.5 113t-53.5 117t-140.5 44q-88 0 -141 -44t-53 -117t51.5 -113t142.5 -40zM1604 77q105 0 167.5 47t62.5 125
q0 79 -63.5 128.5t-166.5 49.5t-166.5 -49.5t-63.5 -128.5q0 -78 62 -125t168 -47z" />
    <glyph glyph-name="fiveeighths" unicode="&#x215d;" horiz-adv-x="2007" 
d="M403 523q-126 0 -221 67.5t-126 175.5l95 31q32 -83 95 -132.5t152 -49.5q100 0 159.5 58.5t59.5 158.5q0 95 -62 151t-147 56q-60 0 -108 -17t-100 -81q-5 0 -9 2l-91 23l41 480h535l-3 -93h-440l-23 -297q84 76 215 76q79 0 148 -34t112 -100t43 -163q0 -142 -89 -227
t-236 -85zM563 -8l-113 1l977 1469h108zM1597 -11q-156 0 -250 71t-94 189q0 51 25 99.5t65.5 83.5t86.5 47q-66 29 -101.5 77.5t-35.5 117.5q0 114 85 181.5t219 67.5t219 -67.5t85 -181.5q0 -69 -35.5 -117.5t-101.5 -77.5q46 -12 86.5 -47t66 -83.5t25.5 -99.5
q0 -118 -95 -189t-250 -71zM1597 525q91 0 142.5 40t51.5 113t-53.5 117t-140.5 44q-88 0 -141 -44t-53 -117t51.5 -113t142.5 -40zM1597 77q105 0 167.5 47t62.5 125q0 79 -63.5 128.5t-166.5 49.5t-166.5 -49.5t-63.5 -128.5q0 -78 62 -125t168 -47z" />
    <glyph glyph-name="seveneighths" unicode="&#x215e;" horiz-adv-x="1828" 
d="M208 537q15 84 58 218t115.5 290.5t174.5 307.5h-509v94h630v-92q-63 -87 -122.5 -199t-108.5 -229t-82 -219.5t-42 -170.5h-114zM384 -8l-113 1l977 1469h108zM1418 -11q-156 0 -250 71t-94 189q0 51 25 99.5t65.5 83.5t86.5 47q-66 29 -101.5 77.5t-35.5 117.5
q0 114 85 181.5t219 67.5t219 -67.5t85 -181.5q0 -69 -35.5 -117.5t-101.5 -77.5q46 -12 86.5 -47t66 -83.5t25.5 -99.5q0 -118 -95 -189t-250 -71zM1418 525q91 0 142.5 40t51.5 113t-53.5 117t-140.5 44q-88 0 -141 -44t-53 -117t51.5 -113t142.5 -40zM1418 77
q105 0 167.5 47t62.5 125q0 79 -63.5 128.5t-166.5 49.5t-166.5 -49.5t-63.5 -128.5q0 -78 62 -125t168 -47z" />
    <glyph glyph-name="period" unicode="." horiz-adv-x="426" 
d="M113 0v214h193v-214h-193z" />
    <glyph glyph-name="comma" unicode="," horiz-adv-x="464" 
d="M85 -243l111 240l-83 4v204h213v-177l-161 -271h-80z" />
    <glyph glyph-name="colon" unicode=":" horiz-adv-x="427" 
d="M113 775v213h194v-213h-194zM113 6v212h194v-212h-194z" />
    <glyph glyph-name="semicolon" unicode=";" horiz-adv-x="460" 
d="M138 772v215h194v-215h-194zM113 -279l110 279h-77v212h194v-187l-157 -304h-70z" />
    <glyph glyph-name="ellipsis" unicode="&#x2026;" horiz-adv-x="1466" 
d="M1153 0v214h193v-214h-193zM113 0v214h193v-214h-193zM633 0v214h193v-214h-193z" />
    <glyph glyph-name="exclam" unicode="!" horiz-adv-x="485" 
d="M186 346l-41 1100h189l-40 -1100h-108zM143 0v212h192v-212h-192z" />
    <glyph glyph-name="exclamdown" unicode="&#xa1;" horiz-adv-x="486" 
d="M143 823v211h192v-211h-192zM145 -322l41 1009h107l42 -1009h-190z" />
    <glyph glyph-name="question" unicode="?" horiz-adv-x="1034" 
d="M414 350q0 115 38 200t94.5 152.5t112.5 129t94.5 128.5t38.5 152q0 106 -75.5 167.5t-198.5 61.5q-68 0 -134 -26.5t-116.5 -72t-72.5 -100.5l-142 46q63 130 187 204t279 74q132 0 230 -44.5t151.5 -123t53.5 -181.5t-40.5 -179.5t-100.5 -140t-120 -127.5
t-100.5 -140.5t-40.5 -179.5h-138zM387 0v212h193v-212h-193z" />
    <glyph glyph-name="questiondown" unicode="&#xbf;" horiz-adv-x="1022" 
d="M437 823v211h194v-211h-194zM498 -342q-206 0 -320.5 98t-114.5 253q0 83 29 142t74.5 105t97 88t97 89t75 108.5t29.5 147.5h138q0 -116 -38.5 -193.5t-94.5 -133.5t-112.5 -105t-94.5 -105.5t-38 -136.5q0 -105 75.5 -167t198.5 -62q68 0 134 26.5t116.5 71.5t72.5 100
l142 -47q-63 -130 -186.5 -204.5t-279.5 -74.5z" />
    <glyph glyph-name="periodcentered" unicode="&#xb7;" horiz-adv-x="443" 
d="M113 628v202h210v-202h-210z" />
    <glyph glyph-name="bullet" unicode="&#x2022;" horiz-adv-x="613" 
d="M303 554q-75 0 -127.5 53.5t-52.5 128.5t52.5 127.5t127.5 52.5t127.5 -52.5t52.5 -127.5t-52.5 -128.5t-127.5 -53.5z" />
    <glyph glyph-name="asterisk" unicode="*" horiz-adv-x="745" 
d="M220 796l-97 67l184 231l-254 73l36 102l244 -96l-17 273h121l-16 -273l247 105l32 -102l-249 -81l179 -221l-98 -71l-153 247z" />
    <glyph glyph-name="numbersign" unicode="#" horiz-adv-x="1199" 
d="M345 -3l-102 15l70 462h-235v103h251l46 307h-233v103h249l71 462l102 -12l-69 -450h302l71 462l102 -12l-68 -450h215v-103h-231l-47 -307h214v-103h-229l-72 -477l-103 15l70 462h-302zM433 577h302l46 307h-301z" />
    <glyph glyph-name="slash" unicode="/" horiz-adv-x="685" 
d="M28 -88l499 1534h128l-500 -1534h-127z" />
    <glyph glyph-name="backslash" unicode="\" horiz-adv-x="685" 
d="M526 -88l-498 1534h127l500 -1534h-129z" />
    <glyph glyph-name="period.tf" horiz-adv-x="600" 
d="M204 0v214h193v-214h-193z" />
    <glyph glyph-name="comma.tf" horiz-adv-x="600" 
d="M180 -243l111 240l-83 4v204h213v-177l-161 -271h-80z" />
    <glyph glyph-name="parenleft" unicode="(" horiz-adv-x="589" 
d="M413 -236q-82 140 -142 277t-93 284t-33 317q0 247 80 475.5t206 414.5h105q-102 -195 -168.5 -425.5t-66.5 -466.5q0 -225 55.5 -439t161.5 -437h-105z" />
    <glyph glyph-name="parenright" unicode=")" horiz-adv-x="604" 
d="M61 -236q106 223 161.5 437t55.5 439q0 236 -66.5 466.5t-168.5 425.5h106q125 -186 205 -414.5t80 -475.5q0 -170 -33 -317t-93 -284t-142 -277h-105z" />
    <glyph glyph-name="braceleft" unicode="{" horiz-adv-x="625" 
d="M489 -322q-117 0 -182.5 55t-65.5 147v439q0 47 -24.5 92t-74.5 74t-127 29v102q116 1 171 58.5t55 146.5v429q0 90 67.5 143t177.5 53h89v-106h-68q-74 0 -99 -26t-25 -76v-433q-1 -114 -60 -169.5t-133 -62.5q-12 -2 -13 -7t13 -7q73 -6 132.5 -57.5t60.5 -173.5v-437
q0 -55 26 -81t100 -26h66v-106h-86z" />
    <glyph glyph-name="braceright" unicode="}" horiz-adv-x="636" 
d="M41 -322v106h66q73 0 99.5 26t26.5 81v437q1 122 60.5 173.5t132.5 57.5q14 2 13 7t-13 7q-75 7 -133.5 62.5t-59.5 169.5v433q0 50 -25.5 76t-98.5 26h-68v106h89q109 0 177 -53t68 -143v-429q0 -89 54.5 -146.5t171.5 -58.5v-102q-77 0 -127 -29t-74.5 -74t-24.5 -92
v-439q0 -92 -66 -147t-182 -55h-86z" />
    <glyph glyph-name="bracketleft" unicode="[" horiz-adv-x="588" 
d="M189 -322l-1 1768h350v-106h-208l-2 -1556h208v-106h-347z" />
    <glyph glyph-name="bracketright" unicode="]" horiz-adv-x="588" 
d="M52 -322v106h208l-2 1556h-208v106h350l-1 -1768h-347z" />
    <glyph glyph-name="hyphen" unicode="-" horiz-adv-x="747" 
d="M125 453v127l497 1v-127z" />
    <glyph glyph-name="uni00AD" unicode="&#xad;" horiz-adv-x="747" 
d="M125 453v127l497 1v-127z" />
    <glyph glyph-name="endash" unicode="&#x2013;" horiz-adv-x="1090" 
d="M125 439v127l841 1v-127z" />
    <glyph glyph-name="emdash" unicode="&#x2014;" horiz-adv-x="2216" 
d="M374 439v127l1469 1v-127z" />
    <glyph glyph-name="underscore" unicode="_" horiz-adv-x="1016" 
d="M125 -226v126l763 2v-127z" />
    <glyph glyph-name="emdash.alt" horiz-adv-x="1469" 
d="M0 439v127l1469 1v-127z" />
    <glyph glyph-name="quotesinglbase" unicode="&#x201a;" horiz-adv-x="464" 
d="M85 -242l110 240l-82 4v204h213v-177l-161 -271h-80z" />
    <glyph glyph-name="quotedblbase" unicode="&#x201e;" horiz-adv-x="811" 
d="M432 -242l110 240l-82 4v204h213v-177l-161 -271h-80zM85 -242l110 240l-82 4v204h213v-177l-161 -271h-80z" />
    <glyph glyph-name="quotedblleft" unicode="&#x201c;" horiz-adv-x="806" 
d="M114 999v178l162 269h80l-111 -240l82 -3v-204h-213zM453 999v178l161 269h80l-111 -240l83 -3v-204h-213z" />
    <glyph glyph-name="quotedblright" unicode="&#x201d;" horiz-adv-x="784" 
d="M438 999l111 241l-82 4v202h212v-176l-161 -271h-80zM100 999l110 241l-82 4v202h213v-176l-161 -271h-80z" />
    <glyph glyph-name="quoteleft" unicode="&#x2018;" horiz-adv-x="466" 
d="M114 1063v176l161 271h80l-110 -241l82 -4v-202h-213z" />
    <glyph glyph-name="quoteright" unicode="&#x2019;" horiz-adv-x="446" 
d="M100 999l110 241l-82 4v202h213v-176l-161 -271h-80z" />
    <glyph glyph-name="guillemotleft" unicode="&#xab;" horiz-adv-x="885" 
d="M689 144l-268 358l269 375h93l-212 -375l209 -358h-91zM343 144l-268 358l269 375h93l-212 -375l209 -358h-91z" />
    <glyph glyph-name="guillemotright" unicode="&#xbb;" horiz-adv-x="940" 
d="M472 144l210 358l-213 375h92l269 -375l-268 -358h-90zM127 144l209 358l-212 375h91l269 -375l-267 -358h-90z" />
    <glyph glyph-name="guilsinglleft" unicode="&#x2039;" horiz-adv-x="539" 
d="M343 144l-268 358l269 375h93l-212 -375l209 -358h-91z" />
    <glyph glyph-name="guilsinglright" unicode="&#x203a;" horiz-adv-x="538" 
d="M106 144l209 358l-212 375h91l269 -375l-268 -358h-89z" />
    <glyph glyph-name="quotedbl" unicode="&#x22;" horiz-adv-x="821" 
d="M528 1005l-53 441h204l-56 -441h-95zM196 1005l-53 441h204l-56 -441h-95z" />
    <glyph glyph-name="quotesingle" unicode="'" horiz-adv-x="489" 
d="M196 1005l-53 441h204l-56 -441h-95z" />
    <glyph glyph-name="space" unicode=" " horiz-adv-x="495" 
 />
    <glyph glyph-name="uni00A0" unicode="&#xa0;" horiz-adv-x="495" 
 />
    <glyph glyph-name="CR" unicode="&#xd;" horiz-adv-x="465" 
 />
    <glyph glyph-name="cent" unicode="&#xa2;" horiz-adv-x="1075" 
d="M511 0v206q-181 20 -292.5 153.5t-111.5 375.5q0 224 103.5 369.5t300.5 167.5v174h121v-173q139 -15 236 -101.5t119 -229.5h-142q-15 87 -85.5 146t-181.5 59q-141 0 -230 -101t-89 -309q0 -187 81 -299.5t240 -112.5q110 0 180.5 60t85.5 144h140
q-21 -141 -118.5 -225.5t-235.5 -98.5v-205h-121z" />
    <glyph glyph-name="colonmonetary" unicode="&#x20a1;" horiz-adv-x="1361" 
d="M409 -122l30 160q-159 77 -243.5 252t-84.5 436q0 357 156.5 548.5t443.5 191.5l18 94h94l-19 -100q59 -9 114 -30l25 130h94l-33 -171q105 -63 169 -163.5t77 -215.5h-168q-12 62 -39 117t-70 98l-209 -1102q136 16 215.5 108t102.5 212h168q-14 -117 -75.5 -221
t-171 -170.5t-267.5 -71.5l-19 -102h-94l20 105q-61 6 -116 22l-24 -127h-94zM284 724q0 -399 184 -534l216 1136q-197 -9 -298.5 -156t-101.5 -446zM554 145q52 -19 115 -24l222 1164q-52 27 -113 37z" />
    <glyph glyph-name="currency" unicode="&#xa4;" horiz-adv-x="1058" 
d="M190 312l-80 85l116 114q-68 97 -68 217q0 113 60 201q9 15 -2 26l-104 106l81 81l116 -119q94 70 214 70q114 0 202 -62q15 -8 25 2l107 107l80 -82l-117 -117q32 -46 50.5 -100t18.5 -113q0 -55 -15.5 -107.5t-45.5 -93.5q-8 -14 2 -23l108 -104l-80 -82l-116 115
q-48 -34 -102.5 -53.5t-113.5 -19.5q-113 0 -205 61q-15 11 -26 -2zM527 485q69 0 123.5 34t86.5 89t32 120q0 64 -32 119.5t-86.5 89.5t-123.5 34t-124 -34t-87 -89.5t-32 -119.5q0 -65 32 -120t87 -89t124 -34z" />
    <glyph glyph-name="dollar" unicode="$" horiz-adv-x="1305" 
d="M592 -214v197q-190 17 -315 112.5t-152 265.5l164 13q33 -129 134 -192.5t246 -63.5q87 0 165.5 30t128 86t49.5 131q0 100 -58.5 161.5t-184.5 97.5l-253 69q-160 43 -252.5 128t-93.5 228q0 111 54 199.5t152 144t229 67.5v205h149v-205q122 -15 209.5 -72.5
t135.5 -142.5t54 -183l-159 -12q-48 278 -316 278q-84 0 -162 -29.5t-127.5 -88.5t-49.5 -148q0 -82 57.5 -130t208.5 -95l242 -71q180 -53 256.5 -158t76.5 -240q0 -104 -55 -186.5t-154 -134.5t-230 -64v-197h-149z" />
    <glyph glyph-name="dong" unicode="&#x20ab;" horiz-adv-x="1002" 
d="M442 247q-99 0 -180 47.5t-129 142.5t-48 236q0 136 48 238t132.5 159t194.5 57q84 0 135 -28t91 -63q15 -12 20 -9t5 19v181h-276v90h276v128h136v-128h123v-90h-123v-964h-132v120q-20 -22 -52.5 -54t-86 -57t-134.5 -25zM487 352q64 0 113.5 28.5t77.5 71t28 85.5v381
q-47 48 -98.5 73.5t-114.5 25.5q-113 0 -186 -86t-73 -253q0 -171 75 -248.5t178 -77.5zM129 0v95h725v-95h-725z" />
    <glyph glyph-name="Euro" unicode="&#x20ac;" horiz-adv-x="1170" 
d="M-25 515v105h169q-4 51 -4 104q0 56 4 108h-169v105h183q45 251 195.5 390t381.5 139q100 0 192 -36t163 -99l-108 -104q-50 43 -107 72t-128 29q-164 0 -267.5 -97.5t-138.5 -293.5l411 1v-104l-424 -1q-4 -53 -4 -110q0 -54 4 -102l424 1v-105l-411 -1
q71 -393 421 -393q71 0 135.5 27t111.5 67l87 -105q-69 -58 -159.5 -95t-193.5 -37q-237 0 -389 141.5t-197 393.5h-182z" />
    <glyph glyph-name="florin" unicode="&#x192;" horiz-adv-x="878" 
d="M-160 -333l17 113l115 2q71 1 106.5 36.5t50.5 124.5l171 974h-167l21 117h166l29 164q21 121 95 184.5t192 63.5h182l-18 -114h-150q-56 0 -97 -41t-53 -107l-26 -150h264l-21 -117h-261l-173 -992q-22 -122 -94 -190t-195 -68h-154z" />
    <glyph glyph-name="franc" unicode="&#x20a3;" horiz-adv-x="1208" 
d="M180 0v274h-187v105h187v1067h923l-1 -138h-744v-533h642v-136h-642v-260l334 1v-105l-334 -1v-274h-178z" />
    <glyph glyph-name="lira" unicode="&#x20a4;" horiz-adv-x="1207" 
d="M28 0v137h77q72 -2 124.5 66t56.5 212q1 15 0.5 34t-1.5 43q-2 12 -17 12h-214v104h215l-31 189h-184v105h166l-7 56q-28 187 21 298.5t150 160.5t227 49q85 0 165 -29t140.5 -80t87.5 -115l-140 -52q-32 63 -86.5 100.5t-148.5 37.5q-107 0 -181.5 -62t-74.5 -175
q0 -25 6 -70t16 -101q3 -18 21 -18l327 2v-105l-329 -2l30 -189l299 2v-105h-293q3 -92 -23.5 -195t-91.5 -171h371q102 0 167 36t99 127l135 -38q-45 -131 -147 -197.5t-246 -66.5h-686z" />
    <glyph glyph-name="uni20BA" unicode="&#x20ba;" horiz-adv-x="1087" 
d="M227 0v446l-149 -54l-38 110l187 67v203l-159 -58l-38 110l197 71v551h178v-486l278 101l41 -109l-319 -116v-202l287 105l41 -109l-328 -119v-372h103q138 1 238.5 83.5t167.5 265.5l148 -34q-69 -211 -218 -332.5t-378 -121.5h-239z" />
    <glyph glyph-name="uni20A6" unicode="&#x20a6;" horiz-adv-x="1481" 
d="M221 0v521h-208v99h208v252h-208v99h208v475h146l322 -474h471v474h156v-474l153 1v-100h-153v-252l153 1v-100h-153v-522h-139l-354 521h-446v-521h-156zM377 1180v-209l141 1zM756 872l171 -251h233v252zM377 872v-252l379 1l-171 251h-208zM1160 277v245h-166z" />
    <glyph glyph-name="uni20B9" unicode="&#x20b9;" horiz-adv-x="1137" 
d="M716 0l-248 684h-453v126h375q168 0 256.5 53.5t102.5 176.5l-731 -1v100l731 1q-30 200 -310 200h-424v106h3l1082 2v-100h-279q98 -78 114 -208h165v-99l-164 -1q-10 -95 -53 -159.5t-105 -104t-125 -60.5q-14 -4 -8 -19l265 -697h-194z" />
    <glyph glyph-name="sterling" unicode="&#xa3;" horiz-adv-x="1207" 
d="M28 0v137h77q75 0 129 69.5t54 222.5q0 52 -5.5 112.5t-18.5 149.5h-202v106h183l-32 161q-27 118 -4 212t82 160t142 101t178 35q91 0 170.5 -30t137.5 -81t84 -113l-139 -52q-35 68 -89 103t-146 35q-107 0 -181.5 -62t-74.5 -175q0 -61 13.5 -139.5t36.5 -153.5h330
v-106h-316q12 -72 16 -125.5t0 -108.5q-4 -141 -44.5 -214.5t-71.5 -104.5h369q104 0 167.5 36t98.5 127l135 -38q-92 -264 -393 -264h-686z" />
    <glyph glyph-name="uni20A9" unicode="&#x20a9;" horiz-adv-x="2009" 
d="M507 0l-177 618h-302v105h273l-60 207h-213v105h183l-117 411h159l114 -411h445l117 411h127l115 -411l449 1l117 410h158l-119 -410h200v-104l-230 -1l-61 -207h291v-104l-321 -1l-180 -619h-154l-175 619h-313l-177 -619h-149zM991 1169l-38 -134h76zM1201 931l58 -208
l272 1l59 207h-389zM923 931l-60 -208h254l-59 208h-135zM396 930l58 -207h270l59 208zM1395 241l107 378h-214zM587 241l107 378l-211 -1z" />
    <glyph glyph-name="yen" unicode="&#xa5;" horiz-adv-x="1197" 
d="M208 278v104l307 1v183h-307v105h268l-461 775h203l397 -684l398 684h169l-469 -775l287 1v-105l-307 -1v-183l307 1v-105l-307 -1v-278h-178v278h-307z" />
    <glyph glyph-name="cent.tf" horiz-adv-x="1400" 
d="M666 0v206q-181 20 -292.5 153.5t-111.5 375.5q0 224 103.5 369.5t300.5 167.5v174h121v-173q139 -15 236 -101.5t119 -229.5h-142q-15 87 -85.5 146t-181.5 59q-141 0 -230 -101t-89 -309q0 -187 81 -299.5t240 -112.5q110 0 180.5 60t85.5 144h140
q-21 -141 -118.5 -225.5t-235.5 -98.5v-205h-121z" />
    <glyph glyph-name="colonmonetary.tf" horiz-adv-x="1400" 
d="M418 -122l30 160q-159 77 -243.5 252t-84.5 436q0 357 156.5 548.5t443.5 191.5l18 94h94l-19 -100q59 -9 114 -30l25 130h94l-33 -171q105 -63 169 -163.5t77 -215.5h-168q-12 62 -39 117t-70 98l-209 -1102q136 16 215.5 108t102.5 212h168q-14 -117 -75.5 -221
t-171 -170.5t-267.5 -71.5l-19 -102h-94l20 105q-61 6 -116 22l-24 -127h-94zM293 724q0 -399 184 -534l216 1136q-197 -9 -298.5 -156t-101.5 -446zM563 145q52 -19 115 -24l222 1164q-52 27 -113 37z" />
    <glyph glyph-name="dollar.tf" horiz-adv-x="1400" 
d="M640 -214v197q-190 17 -315 112.5t-152 265.5l164 13q33 -129 134 -192.5t246 -63.5q87 0 165.5 30t128 86t49.5 131q0 100 -58.5 161.5t-184.5 97.5l-253 69q-160 43 -252.5 128t-93.5 228q0 111 54 199.5t152 144t229 67.5v205h149v-205q122 -15 209.5 -72.5
t135.5 -142.5t54 -183l-159 -12q-48 278 -316 278q-84 0 -162 -29.5t-127.5 -88.5t-49.5 -148q0 -82 57.5 -130t208.5 -95l242 -71q180 -53 256.5 -158t76.5 -240q0 -104 -55 -186.5t-154 -134.5t-230 -64v-197h-149z" />
    <glyph glyph-name="dong.tf" horiz-adv-x="1400" 
d="M615 247q-99 0 -180 47.5t-129 142.5t-48 236q0 136 48 238t132.5 159t194.5 57q84 0 135 -28t91 -63q15 -12 20 -9t5 19v181h-276v90h276v128h136v-128h123v-90h-123v-964h-132v120q-20 -22 -52.5 -54t-86 -57t-134.5 -25zM660 352q64 0 113.5 28.5t77.5 71t28 85.5v381
q-47 48 -98.5 73.5t-114.5 25.5q-113 0 -186 -86t-73 -253q0 -171 75 -248.5t178 -77.5zM302 0v95h725v-95h-725z" />
    <glyph glyph-name="Euro.tf" horiz-adv-x="1400" 
d="M128 515v105h169q-4 51 -4 104q0 56 4 108h-169v105h183q45 251 195.5 390t381.5 139q100 0 192 -36t163 -99l-108 -104q-50 43 -107 72t-128 29q-164 0 -267.5 -97.5t-138.5 -293.5l411 1v-104l-424 -1q-4 -53 -4 -110q0 -54 4 -102l424 1v-105l-411 -1
q71 -393 421 -393q71 0 135.5 27t111.5 67l87 -105q-69 -58 -159.5 -95t-193.5 -37q-237 0 -389 141.5t-197 393.5h-182z" />
    <glyph glyph-name="florin.tf" horiz-adv-x="1400" 
d="M182 -333l17 113l115 2q71 1 106.5 36.5t50.5 124.5l171 974h-167l21 117h166l29 164q21 121 95 184.5t192 63.5h182l-18 -114h-150q-56 0 -97 -41t-53 -107l-26 -150h264l-21 -117h-261l-173 -992q-22 -122 -94 -190t-195 -68h-154z" />
    <glyph glyph-name="franc.tf" horiz-adv-x="1400" 
d="M330 0v274h-187v105h187v1067h923l-1 -138h-744v-533h642v-136h-642v-260l334 1v-105l-334 -1v-274h-178z" />
    <glyph glyph-name="lira.tf" horiz-adv-x="1400" 
d="M161 0v137h77q72 -2 124.5 66t56.5 212q1 15 0.5 34t-1.5 43q-2 12 -17 12h-214v104h215l-31 189h-184v105h166l-7 56q-28 187 21 298.5t150 160.5t227 49q85 0 165 -29t140.5 -80t87.5 -115l-140 -52q-32 63 -86.5 100.5t-148.5 37.5q-107 0 -181.5 -62t-74.5 -175
q0 -25 6 -70t16 -101q3 -18 21 -18l327 2v-105l-329 -2l30 -189l299 2v-105h-293q3 -92 -23.5 -195t-91.5 -171h371q102 0 167 36t99 127l135 -38q-45 -131 -147 -197.5t-246 -66.5h-686z" />
    <glyph glyph-name="uni20BA.tf" horiz-adv-x="1400" 
d="M396 0v446l-149 -54l-38 110l187 67v203l-159 -58l-38 110l197 71v551h178v-486l278 101l41 -109l-319 -116v-202l287 105l41 -109l-328 -119v-372h103q138 1 238.5 83.5t167.5 265.5l148 -34q-69 -211 -218 -332.5t-378 -121.5h-239z" />
    <glyph glyph-name="uni20B9.tf" horiz-adv-x="1400" 
d="M859 0l-248 684h-453v126h375q168 0 256.5 53.5t102.5 176.5l-731 -1v100l731 1q-30 200 -310 200h-424v106h3l1082 2v-100h-279q98 -78 114 -208h165v-99l-164 -1q-10 -95 -53 -159.5t-105 -104t-125 -60.5q-14 -4 -8 -19l265 -697h-194z" />
    <glyph glyph-name="sterling.tf" horiz-adv-x="1400" 
d="M161 0v137h77q75 0 129 69.5t54 222.5q0 52 -5.5 112.5t-18.5 149.5h-202v106h183l-32 161q-27 118 -4 212t82 160t142 101t178 35q91 0 170.5 -30t137.5 -81t84 -113l-139 -52q-35 68 -89 103t-146 35q-107 0 -181.5 -62t-74.5 -175q0 -61 13.5 -139.5t36.5 -153.5h330
v-106h-316q12 -72 16 -125.5t0 -108.5q-4 -141 -44.5 -214.5t-71.5 -104.5h369q104 0 167.5 36t98.5 127l135 -38q-92 -264 -393 -264h-686z" />
    <glyph glyph-name="yen.tf" horiz-adv-x="1400" 
d="M310 278v104l307 1v183h-307v105h268l-461 775h203l397 -684l398 684h169l-469 -775l287 1v-105l-307 -1v-183l307 1v-105l-307 -1v-278h-178v278h-307z" />
    <glyph glyph-name="uni2219" unicode="&#x2219;" horiz-adv-x="617" 
d="M305 619q-48 0 -81.5 34t-33.5 82t33.5 81.5t81.5 33.5t81 -33.5t33 -81.5t-33 -82t-81 -34z" />
    <glyph glyph-name="uni2215" unicode="&#x2215;" horiz-adv-x="1182" 
d="M211 -8l-112 1l876 1469h108z" />
    <glyph glyph-name="plus" unicode="+" horiz-adv-x="1091" 
d="M485 307l-1 357h-359v124l359 1v359h124l1 -359l357 1v-125l-357 -1l1 -357h-125z" />
    <glyph glyph-name="minus" unicode="&#x2212;" horiz-adv-x="1091" 
d="M125 664v124l841 2v-125z" />
    <glyph glyph-name="multiply" unicode="&#xd7;" horiz-adv-x="1060" 
d="M216 323l-89 90l313 314l-315 314l89 88l314 -313l316 316l89 -88l-315 -317l316 -314l-90 -90l-315 315z" />
    <glyph glyph-name="divide" unicode="&#xf7;" horiz-adv-x="1091" 
d="M441 966v204h212v-204h-212zM125 664v124l841 2v-125zM441 285v204h212v-204h-212z" />
    <glyph glyph-name="equal" unicode="=" horiz-adv-x="1091" 
d="M125 858v124l841 2v-125zM125 418v124l841 2v-125z" />
    <glyph glyph-name="notequal" unicode="&#x2260;" horiz-adv-x="1091" 
d="M231 132l128 286h-234v124l290 1l141 315h-431v124l487 1l120 268h94l-119 -268l259 1v-125l-314 -1l-140 -315l454 1v-125l-509 -1l-126 -286h-100z" />
    <glyph glyph-name="greater" unicode="&#x3e;" horiz-adv-x="1073" 
d="M127 297v149l630 247l-632 249v153l823 -328v-148z" />
    <glyph glyph-name="less" unicode="&#x3c;" horiz-adv-x="1074" 
d="M948 297l-823 322v148l824 328v-153l-631 -249l630 -247v-149z" />
    <glyph glyph-name="greaterequal" unicode="&#x2265;" horiz-adv-x="1091" 
d="M132 470v150l630 248l-631 248v152l823 -326v-148zM125 126v124l841 1v-124z" />
    <glyph glyph-name="lessequal" unicode="&#x2264;" horiz-adv-x="1091" 
d="M959 470l-821 324v148l822 326v-152l-629 -248l628 -248v-150zM125 127v124l841 -1v-124z" />
    <glyph glyph-name="plusminus" unicode="&#xb1;" horiz-adv-x="1091" 
d="M608 937l358 1v-124l-358 -1v-357h-123l-1 357l-359 -1v125h359v360h124v-360zM125 129v124l841 2v-124z" />
    <glyph glyph-name="approxequal" unicode="&#x2248;" horiz-adv-x="1122" 
d="M171 780l-46 94q51 49 110 87t148 38q74 0 132 -25.5t114.5 -50.5t123.5 -25q75 0 121 32.5t76 71.5l47 -98q-31 -48 -93 -82.5t-151 -34.5q-75 0 -131.5 24.5t-111 49t-124.5 24.5q-77 0 -127.5 -33t-87.5 -72zM171 389l-46 95q51 50 110 87t148 37q74 0 132 -25.5
t114.5 -50.5t123.5 -25q75 0 121 33t76 71l47 -96q-31 -48 -93 -83.5t-151 -35.5q-79 0 -136 24.5t-110 49.5t-121 25q-77 0 -128 -33t-87 -73z" />
    <glyph glyph-name="asciitilde" unicode="~" horiz-adv-x="1112" 
d="M163 618l-45 94q51 50 110 87.5t147 37.5q74 0 132.5 -25t114.5 -50t123 -25q76 0 121.5 32t75.5 71l48 -96q-32 -49 -94 -84t-150 -35q-79 0 -136 25t-110.5 50t-121.5 25q-76 0 -127 -34t-88 -73z" />
    <glyph glyph-name="logicalnot" unicode="&#xac;" horiz-adv-x="1091" 
d="M125 664v124l841 2v-408h-132l-1 283z" />
    <glyph glyph-name="asciicircum" unicode="^" horiz-adv-x="940" 
d="M705 260l-240 604l-241 -601h-129l294 719q27 68 75 70.5t78 -69.5l296 -723h-133z" />
    <glyph glyph-name="emptyset" unicode="&#x2205;" horiz-adv-x="1149" 
d="M183 288l-70 72l132 121q-38 52 -59.5 115t-21.5 132q0 113 55 205.5t148 148.5t206 56q78 0 148 -28t125 -77l117 108l66 -71l-118 -109q35 -50 54.5 -109t19.5 -124q0 -113 -56 -206.5t-149.5 -149t-206.5 -55.5q-74 0 -140 24.5t-119 67.5zM257 728q0 -101 57 -183
l463 425q-42 34 -94 54t-110 20q-88 0 -159.5 -43t-114 -115t-42.5 -158zM573 410q88 0 160 43t115 115t43 160q0 91 -50 169l-458 -424q84 -63 190 -63z" />
    <glyph glyph-name="infinity" unicode="&#x221e;" horiz-adv-x="1433" 
d="M397 220q-81 0 -149 39t-109 110t-41 167q0 143 90 230t230 87q104 0 164 -46t121 -114q15 -15 23 -15t22 15q31 35 70.5 72t92.5 62.5t126 25.5q126 0 210 -82.5t84 -223.5v-2q0 -103 -43 -176t-113.5 -111t-153.5 -38q-104 0 -166.5 51.5t-123.5 122.5q-10 11 -16 12.5
t-17 -12.5q-16 -17 -54 -59t-99.5 -78.5t-147.5 -36.5zM404 343h6q47 0 89.5 23.5t77.5 57.5t58 66q19 26 18 39.5t-22 44.5q-50 75 -104 118.5t-125 43.5q-81 0 -131.5 -54t-50.5 -140q0 -89 54 -144t130 -55zM1038 343q55 0 93 29t57 74.5t19 93.5q0 78 -47 137t-128 59
h-2q-73 0 -129 -50.5t-101 -103.5q-20 -24 -16.5 -44.5t16.5 -35.5q50 -70 95.5 -104t82 -44.5t60.5 -10.5z" />
    <glyph glyph-name="integral" unicode="&#x222b;" horiz-adv-x="864" 
d="M241 -342q-81 0 -127 12t-99 43l42 143q46 -26 83 -37.5t86 -11.5q67 0 117.5 51t50.5 169q0 208 -22 423t-43.5 425.5t-21.5 406.5q0 193 86 291t224 98q82 0 129 -12.5t98 -43.5l-40 -143q-48 25 -85 37t-86 12q-71 0 -121.5 -51.5t-50.5 -166.5q0 -208 21 -423.5
t42 -426t21 -403.5q0 -195 -86 -293.5t-218 -98.5z" />
    <glyph glyph-name="uni2126" unicode="&#x2126;" horiz-adv-x="1531" 
d="M181 0v145h323q-20 17 -64.5 52t-98.5 91t-104 133t-82 176.5t-32 223.5q0 132 42 254.5t124 219t202 153t276 56.5q157 0 277 -57.5t201 -155t122 -219t41 -249.5q0 -142 -38.5 -251t-123.5 -210t-225 -217h329v-145h-511v138q52 37 117.5 94t127 137.5t101.5 188
t40 244.5q0 149 -51 277t-152.5 206t-254.5 78q-152 0 -254.5 -77.5t-154.5 -205.5t-52 -280q0 -211 95.5 -365.5t291.5 -296.5v-138h-512z" />
    <glyph glyph-name="uni2206" unicode="&#x2206;" horiz-adv-x="1370" 
d="M38 0l651 1446l644 -1446h-1295zM270 143h832l-413 958z" />
    <glyph glyph-name="product" unicode="&#x220f;" horiz-adv-x="1289" 
d="M235 0v1308h-202v138h1219v-138h-205v-1308h-165v1308h-480v-1308h-167z" />
    <glyph glyph-name="summation" unicode="&#x2211;" horiz-adv-x="1034" 
d="M53 0v107l432 615l-405 608v116h868v-135h-652l386 -576l-419 -595h721v-140h-931z" />
    <glyph glyph-name="radical" unicode="&#x221a;" horiz-adv-x="1237" 
d="M556 -322l-338 916l-149 -59l-39 106l287 107l317 -899l468 1802h140l-517 -1973h-169z" />
    <glyph glyph-name="partialdiff" unicode="&#x2202;" horiz-adv-x="1172" 
d="M563 -20q-139 0 -243 61t-162 165.5t-58 235.5q0 194 127 314t352 120q106 0 169.5 -27t133.5 -71q17 -10 22 -6.5t5 12.5q0 261 -104 405t-306 144q-100 0 -164 -30.5t-119 -67.5l-51 100q50 54 154.5 92.5t221.5 38.5q243 0 386 -183.5t143 -554.5q0 -354 -131.5 -551
t-375.5 -197zM548 110h2q91 0 166 54.5t124 153.5t62 231q3 31 0.5 44.5t-12.5 25.5q-44 54 -133 93t-180 39q-93 0 -164.5 -41.5t-111.5 -113t-40 -163.5q0 -91 38.5 -164.5t103.5 -116t145 -42.5z" />
    <glyph glyph-name="uni00B5" unicode="&#xb5;" horiz-adv-x="1161" 
d="M143 -330v1390h159v-740q0 -77 64 -133.5t154 -56.5q86 0 166 50t154 136v744h161l-2 -1060h-153v164q-98 -83 -169 -119.5t-151 -39.5q-64 -3 -120 12t-104 56v-403h-159z" />
    <glyph glyph-name="percent" unicode="%" horiz-adv-x="1789" 
d="M447 642q-97 0 -173.5 50.5t-120 143t-43.5 218.5t44 219t120 144t173 51t172 -51t118 -144t43 -219t-43 -218.5t-118 -143t-172 -50.5zM338 -8l977 1470h108l-972 -1470h-113zM445 733q101 0 158 82t57 239q0 158 -57 241t-158 83t-158 -83.5t-57 -240.5
q0 -156 57 -238.5t158 -82.5zM1341 -20q-146 0 -241.5 110t-95.5 305q0 127 43.5 220t120 143.5t173.5 50.5q145 0 239 -111.5t94 -302.5q0 -195 -94 -305t-239 -110zM1339 72q101 0 158 82t57 239q0 158 -57.5 240.5t-157.5 82.5q-101 0 -158 -83.5t-57 -239.5t56.5 -238.5
t158.5 -82.5z" />
    <glyph glyph-name="perthousand" unicode="&#x2030;" horiz-adv-x="2583" 
d="M447 642q-97 0 -173.5 50.5t-120 143t-43.5 218.5t44 219t120 144t173 51t172 -51t118 -144t43 -219t-43 -218.5t-118 -143t-172 -50.5zM351 -8l977 1470h108l-972 -1470h-113zM445 733q101 0 158 82t57 239q0 158 -57 241t-158 83t-158 -83.5t-57 -240.5
q0 -156 57 -238.5t158 -82.5zM1341 -20q-146 0 -241.5 110t-95.5 305q0 127 43.5 220t120 143.5t173.5 50.5q145 0 239 -111.5t94 -302.5q0 -195 -94 -305t-239 -110zM2135 -20q-146 0 -241.5 110t-95.5 305q0 127 43.5 220t120 143.5t173.5 50.5q145 0 239 -111.5
t94 -302.5q0 -195 -94 -305t-239 -110zM1339 72q101 0 158 82t57 239q0 158 -57.5 240.5t-157.5 82.5q-101 0 -158 -83.5t-57 -239.5t56.5 -238.5t158.5 -82.5zM2133 72q101 0 157.5 82t56.5 239q0 158 -57 240.5t-157 82.5q-101 0 -158 -83.5t-57 -239.5t57 -238.5
t158 -82.5z" />
    <glyph glyph-name="lozenge" unicode="&#x25ca;" horiz-adv-x="940" 
d="M404 0l-316 723l327 723h132l318 -719l-328 -727h-133zM478 128l244 595l-244 595l-246 -587z" />
    <glyph glyph-name="at" unicode="@" horiz-adv-x="1665" 
d="M851 -220q-177 0 -317 57t-237 157t-148 232t-51 283q0 158 56 298.5t159.5 248.5t247.5 170t320 62q126 0 248 -36.5t221 -112t158 -194t59 -282.5q0 -149 -49.5 -263t-134.5 -178t-192 -64q-146 0 -174 105q-5 13 -9.5 13t-13.5 -10q-44 -59 -110 -97.5t-162 -38.5
q-73 0 -135.5 42.5t-100.5 120t-37 182.5q0 124 47.5 226.5t132.5 163.5t195 61q80 0 136.5 -34.5t89.5 -90.5q3 -4 7.5 -3t5.5 9l19 69h113l-75 -448q-15 -88 6.5 -122t72.5 -34q98 0 170 101t72 278q0 143 -49 243.5t-131 163t-181.5 91.5t-200.5 29q-209 0 -355.5 -92
t-223.5 -244.5t-77 -334.5q0 -172 74.5 -312.5t220.5 -222.5t360 -82q89 0 152 17t113 46t101 64l66 -86q-90 -69 -207 -110t-252 -41zM747 249q65 0 120.5 38t93.5 101.5t48 138.5q13 93 -10.5 155.5t-68.5 94t-98 31.5q-73 0 -128.5 -44t-86.5 -117.5t-31 -163.5
q0 -107 42 -170.5t119 -63.5z" />
    <glyph glyph-name="ampersand" unicode="&#x26;" horiz-adv-x="1376" 
d="M513 -10q-205 0 -316.5 103.5t-111.5 270.5q0 139 83.5 242.5t254.5 194.5q-87 91 -134.5 175t-47.5 180q0 87 45.5 158t126 112.5t186.5 41.5q102 0 189 -37.5t140.5 -106t53.5 -162.5q0 -47 -26 -109.5t-101 -135t-221 -149.5l342 -399q20 26 50 81.5t55 135.5t30 181
h151q-17 -160 -75 -276.5t-131 -217.5l232 -273h-183l-145 166q-108 -92 -221 -134t-226 -42zM562 860q113 64 172.5 115.5t81 95.5t21.5 89q0 72 -34.5 115t-88 62t-110.5 18q-101 -1 -153.5 -58.5t-52.5 -132.5q0 -54 23.5 -106t54 -94.5t52.5 -66.5zM544 118q91 0 180 40
t157 106l-377 439q-111 -61 -181.5 -146t-66.5 -192q4 -113 88 -180t200 -67z" />
    <glyph glyph-name="paragraph" unicode="&#xb6;" horiz-adv-x="1097" 
d="M521 -166v760q-131 3 -226 59.5t-146 149.5t-51 205q0 111 50.5 211.5t152 163.5t254.5 63h399v-99h-120v-1513h-108v1513h-97v-1513h-108z" />
    <glyph glyph-name="section" unicode="&#xa7;" horiz-adv-x="969" 
d="M501 -140q-140 0 -255.5 64.5t-167.5 166.5l106 58q46 -75 127.5 -125t191.5 -50q100 0 166 39.5t66 113.5q0 53 -42.5 100t-161.5 94l-176 68q-135 51 -193.5 121.5t-58.5 164.5q0 92 57 158.5t145 100.5q-121 63 -159 126.5t-38 133.5q0 116 100.5 194t266.5 78
q131 0 229.5 -60.5t148.5 -138.5l-107 -59q-48 60 -112.5 102t-148.5 42q-108 0 -168.5 -40t-60.5 -106q0 -45 35.5 -88t131.5 -81l169 -68q154 -63 220.5 -140t66.5 -178t-55 -159.5t-127 -95.5q90 -51 138.5 -112t48.5 -143q0 -122 -104 -201.5t-279 -79.5zM547 462
q77 -6 134 45t55 122q-1 63 -35.5 110t-139.5 89l-114 45q-85 -7 -144.5 -61t-59.5 -118q0 -56 34.5 -95t145.5 -84z" />
    <glyph glyph-name="copyright" unicode="&#xa9;" horiz-adv-x="1626" 
d="M811 -20q-154 0 -289 57.5t-237 159.5t-159.5 237t-57.5 290q0 153 57.5 287.5t159.5 236.5t237 160t289 58q153 0 287.5 -58t237 -160t160.5 -236.5t58 -287.5q0 -155 -58 -290t-160.5 -237t-237 -159.5t-287.5 -57.5zM811 94q127 0 239 44t198.5 127t135.5 199t49 260
q0 142 -49 258t-135.5 199t-198.5 128.5t-239 45.5q-173 0 -314.5 -79t-225 -221t-83.5 -331q0 -192 83.5 -333.5t225 -219t314.5 -77.5zM816 311q-113 0 -198.5 52.5t-133 146t-47.5 217.5t48.5 218.5t134 148t196.5 53.5q120 0 199 -64t126 -148l-119 -35
q-38 66 -86.5 104.5t-113.5 38.5q-108 0 -176.5 -84t-68.5 -228q0 -147 69.5 -231.5t178.5 -84.5q77 0 134.5 43t93.5 112l92 -37q-45 -86 -127 -154t-202 -68z" />
    <glyph glyph-name="registered" unicode="&#xae;" horiz-adv-x="1070" 
d="M534 536q-130 0 -236 62t-168 167.5t-62 234.5t62 235t168 168.5t236 62.5q128 0 233 -62.5t168 -168.5t63 -235t-63 -234.5t-168 -167.5t-233 -62zM534 622q110 0 194 46.5t131.5 131.5t47.5 200t-47.5 200.5t-131.5 133t-194 47.5q-168 0 -272 -104.5t-104 -276.5
q0 -173 104 -275.5t272 -102.5zM357 767v461h206q74 0 115 -29.5t41 -86.5q0 -55 -31 -83t-67 -41l89 -221h-85l-79 214h-110v-214h-79zM436 1046h116q35 0 60 12.5t25 46.5q0 24 -19 42t-72 18h-110v-119z" />
    <glyph glyph-name="uni2117" unicode="&#x2117;" horiz-adv-x="1626" 
d="M811 -20q-154 0 -289 57.5t-237 159.5t-159.5 237t-57.5 290q0 153 57.5 287.5t159.5 236.5t237 160t289 58q153 0 287.5 -58t237 -160t160.5 -236.5t58 -287.5q0 -155 -58 -290t-160.5 -237t-237 -159.5t-287.5 -57.5zM811 94q127 0 239 44t198.5 127t135.5 199t49 260
q0 142 -49 258t-135.5 199t-198.5 128.5t-239 45.5q-173 0 -314.5 -79t-225 -221t-83.5 -331q0 -192 83.5 -333.5t225 -219t314.5 -77.5zM552 331v777h298q124 0 206 -51.5t82 -164.5q0 -125 -78.5 -187t-198.5 -62h-192v-312h-117zM669 737h183q69 0 117.5 34.5t48.5 106.5
q0 78 -50.5 107t-122.5 29h-176v-277z" />
    <glyph glyph-name="trademark" unicode="&#x2122;" horiz-adv-x="1803" 
d="M834 0v904h131l290 -774l295 774h131v-904h-102v741l-274 -741h-99l-272 734v-734h-100zM321 0v813h-297v91h674v-91h-279v-813h-98z" />
    <glyph glyph-name="degree" unicode="&#xb0;" horiz-adv-x="920" 
d="M458 1057q-90 0 -159.5 39t-109 108.5t-39.5 159.5t39.5 160t109 110t159.5 40q88 0 157.5 -40t109.5 -110t40 -160t-40 -159.5t-109.5 -108.5t-157.5 -39zM456 1161q88 0 140 56t52 145t-52 145t-142 56q-88 0 -141 -56t-51 -145q1 -89 52.5 -145t141.5 -56z" />
    <glyph glyph-name="bar" unicode="|" horiz-adv-x="524" 
d="M200 -322l-1 1974h126v-1974h-125z" />
    <glyph glyph-name="brokenbar" unicode="&#xa6;" horiz-adv-x="524" 
d="M200 854l-1 798h126v-798h-125zM200 -322l-1 798h126v-798h-125z" />
    <glyph glyph-name="uni2113" unicode="&#x2113;" horiz-adv-x="976" 
d="M522 -14q-287 0 -320 369l-103 -71l-51 101l156 113v516q0 155 45.5 255t123.5 148.5t174 48.5q139 0 207 -88.5t68 -220.5q0 -110 -41.5 -208t-109 -186.5t-149 -168.5t-160.5 -152q0 -183 44.5 -258t139.5 -75q71 0 129.5 34t124.5 131l67 -54q-50 -100 -130.5 -167
t-214.5 -67zM362 592q52 47 111.5 109.5t111.5 138t85 160.5t33 177q0 173 -149 173q-91 0 -141.5 -81t-50.5 -295v-382z" />
    <glyph glyph-name="dagger" unicode="&#x2020;" horiz-adv-x="880" 
d="M355 -322l31 1131l-363 -23v151l356 -20l-25 529h170l-26 -529l355 20v-151l-363 23l33 -1131h-168z" />
    <glyph glyph-name="daggerdbl" unicode="&#x2021;" horiz-adv-x="880" 
d="M354 -322l25 520l-356 -20v152l362 -24v492l-362 -22v150l356 -20l-25 540h169l-25 -540l355 20v-150l-362 22v-492l362 24v-152l-356 20l27 -520h-170z" />
    <glyph glyph-name="uni2116" unicode="&#x2116;" horiz-adv-x="2307" 
d="M199 0v1446h146l793 -1169v1169h156v-1446h-139l-800 1180v-1180h-156zM1899 795q-146 0 -227 93t-81 239q0 151 84.5 244.5t223.5 93.5q143 0 226.5 -94t83.5 -244q0 -146 -81.5 -239t-228.5 -93zM1899 882q94 0 142 66.5t48 183.5q0 112 -48 178t-142 66
q-93 0 -140 -66t-47 -178q0 -117 47 -183.5t140 -66.5z" />
    <glyph glyph-name="uni2120" unicode="&#x2120;" horiz-adv-x="1950" 
d="M416 -13q-131 0 -230 63t-116 185h103q17 -81 86 -122.5t161 -41.5t158.5 44t66.5 122q0 106 -149 148l-190 50q-92 23 -150.5 75.5t-58.5 155.5q0 111 89.5 180t223.5 69q105 0 176 -37t107.5 -96t36.5 -126h-101q-9 99 -74 137.5t-148 38.5q-101 0 -154 -47t-53 -112
q0 -60 37.5 -93.5t108.5 -52.5l189 -50q117 -30 163.5 -93t46.5 -141q0 -110 -89.5 -183t-239.5 -73zM980 0v904h132l290 -774l295 774h130v-904h-101v741l-275 -741h-98l-272 734v-734h-101z" />
    <glyph glyph-name="uni02BC" unicode="&#x2bc;" horiz-adv-x="418" 
d="M100 1013v65l15 1q37 2 67 42.5t30 89.5v11l-112 5v201h213v-178q0 -72 -32 -130t-81 -88t-100 -19z" />
    <glyph glyph-name="uni02BB" unicode="&#x2bb;" horiz-adv-x="418" 
d="M100 1010v178q0 71 32 129t81 88.5t100 19.5v-66l-14 -1q-38 -2 -68 -42.5t-30 -88.5v-12l112 -4v-201h-213z" />
    <glyph glyph-name="uni0308" unicode="&#x308;" 
d="M378 1283l1 163h156l-1 -163h-156zM10 1283l1 163h156l-1 -163h-156z" />
    <glyph glyph-name="uni0307" unicode="&#x307;" 
d="M10 1283v163h163v-163h-163z" />
    <glyph glyph-name="gravecomb" unicode="&#x300;" 
d="M278 1155l-268 291h186l206 -291h-124z" />
    <glyph glyph-name="acutecomb" unicode="&#x301;" 
d="M10 1155l206 291h186l-268 -291h-124z" />
    <glyph glyph-name="uni030B" unicode="&#x30b;" 
d="M270 1155l233 291h177l-286 -291h-124zM11 1155l195 291h173l-244 -291h-124z" />
    <glyph glyph-name="uni030C.alt" 
d="M107 1071l75 179l-50 10v186h140v-195l-77 -180h-88z" />
    <glyph glyph-name="uni0302" unicode="&#x302;" 
d="M8 1155l247 215h114l243 -215h-160l-142 127l-152 -127h-150z" />
    <glyph glyph-name="uni030C" unicode="&#x30c;" 
d="M255 1155l-249 216h152l152 -131l142 131h160l-243 -216h-114z" />
    <glyph glyph-name="uni0306" unicode="&#x306;" 
d="M306 1155q-107 0 -187 53t-101 153h120q17 -47 61 -77t107 -30q62 0 108 30t64 77h120q-22 -96 -101 -151t-191 -55z" />
    <glyph glyph-name="uni030A" unicode="&#x30a;" 
d="M227 1153q-85 0 -144 59.5t-59 147.5q0 81 59.5 138.5t143.5 57.5q85 0 144.5 -58t59.5 -142q0 -86 -59.5 -144.5t-144.5 -58.5zM225 1244q45 0 76.5 33.5t31.5 77.5q0 48 -31.5 78.5t-76.5 30.5q-44 0 -77 -30.5t-33 -78.5q0 -44 33 -77.5t77 -33.5z" />
    <glyph glyph-name="tildecomb" unicode="&#x303;" 
d="M66 1227l-31 98q32 29 68 49.5t91 20.5q47 0 88.5 -13.5t82 -27t84.5 -13.5q42 0 72.5 15t60.5 37l31 -108q-25 -18 -64.5 -36t-100.5 -18q-53 0 -92 12.5t-74.5 25t-79.5 12.5q-49 0 -78 -16.5t-58 -37.5z" />
    <glyph glyph-name="uni0304" unicode="&#x304;" 
d="M24 1243v115h568v-115h-568z" />
    <glyph glyph-name="hookabovecomb" unicode="&#x309;" 
d="M664 1171l-51 77q44 28 62.5 65.5t-2.5 70.5q-21 34 -64 33t-84 -29l-51 78q83 53 161 43t118 -71q49 -73 22.5 -144t-111.5 -123z" />
    <glyph glyph-name="uni030F" unicode="&#x30f;" 
d="M296 1155l-286 291h177l233 -291h-124zM555 1155l-244 291h173l195 -291h-124z" />
    <glyph glyph-name="uni0311" unicode="&#x311;" 
d="M6 1215q22 100 102 153t186 53q113 0 192 -55t100 -151h-119q-18 47 -64 77.5t-109 30.5t-106.5 -30.5t-60.5 -77.5h-121z" />
    <glyph glyph-name="uni0312" unicode="&#x312;" 
d="M124 1155v173l96 153h79l-73 -146l58 -4v-176h-160z" />
    <glyph glyph-name="uni031B" unicode="&#x31b;" 
d="M0 955v106q60 -1 95.5 10.5t53 52t21.5 124.5h135q-1 -168 -71 -239.5t-234 -53.5z" />
    <glyph glyph-name="dotbelowcomb" unicode="&#x323;" 
d="M10 -348v163h163v-163h-163z" />
    <glyph glyph-name="uni0326" unicode="&#x326;" 
d="M-1 -364l79 118l-58 3v145h171v-122l-123 -144h-69z" />
    <glyph glyph-name="uni0327" unicode="&#x327;" 
d="M200 -408q-105 0 -179 49l29 72q24 -20 55.5 -33t76.5 -13q110 0 110 76q0 43 -37 65t-120 24q-17 0 -11 12l73 166h89l-48 -121q99 -6 136 -51t37 -94q0 -75 -62.5 -113.5t-148.5 -38.5z" />
    <glyph glyph-name="uni0328" unicode="&#x328;" 
d="M217 -331q-97 0 -145 42.5t-48 114.5q0 60 43.5 108t164.5 86l116 -14q-101 -43 -146.5 -81t-45.5 -89q0 -75 97 -75q48 0 86 12t57 23v-88q-24 -14 -73 -26.5t-106 -12.5z" />
    <glyph glyph-name="dieresis" unicode="&#xa8;" horiz-adv-x="545" 
d="M378 1283l1 163h156l-1 -163h-156zM10 1283l1 163h156l-1 -163h-156z" />
    </font>
</defs>
</svg>
